<mxfile host="app.diagrams.net" modified="2024-01-16T04:04:19.435Z" agent="Mozilla/5.0 (Macintosh; Intel Mac OS X 10_15_7) AppleWebKit/605.1.15 (KHTML, like Gecko) Version/17.1.2 Safari/605.1.15" etag="rQpFFFtJ9_ePDF-wAvBD" version="22.1.18" type="github">
  <diagram name="Page-1" id="T7sAMOObyuy1Mv8iU_8_">
    <mxGraphModel dx="1532" dy="2228" grid="1" gridSize="10" guides="1" tooltips="1" connect="1" arrows="1" fold="1" page="1" pageScale="1" pageWidth="850" pageHeight="1100" math="0" shadow="0">
      <root>
        <mxCell id="0" />
        <mxCell id="1" parent="0" />
        <mxCell id="_1nmayrgC0QgBhLAWD-L-1" value="" style="shape=image;verticalLabelPosition=bottom;labelBackgroundColor=default;verticalAlign=top;aspect=fixed;imageAspect=0;image=data:image/png,iVBORw0KGgoAAAANSUhEUgAABT0AAAMQCAYAAADl78HeAAAAAXNSR0IArs4c6QAAAERlWElmTU0AKgAAAAgAAYdpAAQAAAABAAAAGgAAAAAAA6ABAAMAAAABAAEAAKACAAQAAAABAAAFPaADAAQAAAABAAADEAAAAABqJvNTAABAAElEQVR4Aezdf6zV91348Tez5jtwXdOCoQsbUjSD4bQMMeIAo10mzD/cLBFGabdkW4SWasWVJopgA1YTaSQs0tF2+6MC3UpCtRMrNCnRABENY7AphWkoYnGtgSJdQzun5cvz7V6n73vuOeeee++5954fz3dyOOd8frx/PD6XC+d1Xu/3Z9zVayVZFFBAAQUUUEABBRRQQAEFFFBAAQUUUECBLhF4R5eMw2EooIACCiiggAIKKKCAAgoooIACCiiggAJZwKCnPwgKKKCAAgoooIACCiiggAIKKKCAAgoo0FUCBj276nI6GAUUUEABBRRQQAEFFFBAAQUUUEABBRQw6OnPgAIKKKCAAgoooIACCiiggAIKKKCAAgp0lYBBz666nA5GAQUUUEABBRRQQAEFFFBAAQUUUEABBQx6+jOggAIKKKCAAgoooIACCiiggAIKKKCAAl0lYNCzqy6ng1FAAQUUUEABBRRQQAEFFFBAAQUUUEABg57+DCiggAIKKKCAAgoooIACCiiggAIKKKBAVwkY9Oyqy+lgFFBAAQUUUEABBRRQQAEFFFBAAQUUUMCgpz8DCiiggAIKKKCAAgoooIACCiiggAIKKNBVAgY9u+pyOhgFFFBAAQUUUEABBRRQQAEFFFBAAQUUMOjpz4ACCiiggAIKKKCAAgoooIACCiiggAIKdJWAQc+uupwORgEFFFBAAQUUUEABBRRQQAEFFFBAAQWuk0ABBRRQQAEFFFBAAQUUUEABBRRQoDmBcePGNXegRymgwKgIXL16tWY7Bj1rsrhRAQUUUEABBRRQQAEFFFBAAQUUqC1QL8hS+2i3KqDASAk0+hLC6e0jpW69CiiggAIKKKCAAgoooIACCiiggAIKKDAmAgY9x4TdRhVQQAEFFFBAAQUUUEABBRRQQAEFFFBgpAQMeo6UrPUqoIACCiiggAIKKKCAAgoooIACCiigwJgIGPQcE3YbVUABBRRQQAEFFFBAAQUUUEABBRRQQIGREjDoOVKy1quAAgoooIACCiiggAIKKKCAAgoooIACYyJg0HNM2G1UAQUUUEABBRRQQAEFFFBAAQUUUKAdBXbt2pV4WDpbwKBnZ18/e6+AAgoooIACCiiggAIKKKCAAgoo0CIBgp133nlni2qzmrEUMOg5lvq2rYACCiiggAIKKKCAAgoooIACCvSgwMWLF9PixYvzg9eUw4cPp3HjxlWyLN944420atWqvI3tPDimLJs2barsp76oq6w/6uDYRqUMeBL4/NznPpcfs2fPTqdPn86nRp9iG9t5TRsPPPBApS/VmaL1+tmoP+4bnoBBz+H5ebYCCiiggAIKKKCAAgq0kUB8KPb5/4IDOvSGQxv9FbQrCrRU4OGHH06PPvponzpXr15dCUASSNywYUNl//79+9O6desSgckobIs6brvtttjc1PN1112X5s+fn06cOJGOHj2azzl37lw6cuRImjdvXpo6dWqlHtrYvHlz5T1B0wjQNtPPyom+aJmAQc+WUVqRAgoooIACCiiggAIKtIPA1atXkw8NeuVnoB3+ztkHBUZS4NZbb02nTp2q/F4/fvx4mjFjRs7oJKi4cuXKdOXKlbx/586dOcB57NixPl06dOhQ3k8As1FZsWJFog4Kz9u3b08f/vCHE304c+ZM3k7wkyDowoUL0/jx4/M2/ij7GXUcOHBgUP2sVOaLlggY9GwJo5UooIACCiiggAIKKKCAAgoooIACCrRSgMxMAowzZ87M08bL6esXLlxIL7/8cg5yTpgwIe+PtTjPnj1b6caiRYvy+ZUNg3xBNidZnQRYmTJP8JMA59y5c/vUtGTJkhyMZSP9pN3z58+nl156qal+9qnMNy0RMOjZEkYrUUABBRRQQAEFFFBAAQUUUEABBRQYjkAZrKQeMjPJ2o7MSaaqT5o0qTJtvF5bkZVZb/9gtpPNSVYnbZMxSvCzemo79RHgLKfVN9NGK/vZTHu9doxBz1674o5XAQUUUEABBRRQQAEFFFBAAQUUaBMBsjXJ2iRgePDgwZq9Yto5wU+CjhSmjRP8vPnmm/tMb49lLdavX1+znqFuJKuT7M5PfOITOfhZPbWdelnnk/U+Kfv27cvHTZkyJb33ve8dtX7mxv2jImDQs0LhCwUUUEABBRRQQAEFFFBAAQUUUECB0RBgSvq0adMq09d5Hzccov24S3p5Q7YFCxbkrjHtfeLEiTkTlHNiejvHxl3VhzsGpsrHdPqY4k6dtaa2s72chh/T7Eejn7RtqS1g0LO2i1sVUEABBRRQQAEFFFBAAQUUUEABBUZIgGnja9asyUFEmmANzL/8y7+stMb+LVu25EzOysZrL5jqHjckIqNz48aN5e60bdu2ytqafXY0+SbW4ywPjynubKs1tZ3t3FBp7dq1vMxlpPsZ7fhcX2DctdTfq/V3u0cBBRRQQAEFFFBAAQUU6BwBsnz8iNM518ueDl/An/nhGw62Bs0HK9Ydx+/atSuRwUkwk+n2UU6fPp2WLVuWg6EEaQmQWkZPoNHfRzM9R+862JICCiiggAIKKKCAAgoooIACCiigQIcJxHqj9aa2d9hweqa7Bj175lI7UAUUUEABBRRQQAEFFFCgvwBZSqyBt2rVqsqdh8loInuGuxRTaq2tF/uixk2bNuVzOC/WwWPfxYsX83u20Qb7ObaZOqNunxVQQIFWCJS/p/hdVP2o/r1Gm2yL9UaZvj5jxoxWdMU6RkHAoOcoINuEAgoooIACCiiggAIKKNDJAg8//HCfG4wwltWrVycCphQCCRs2bMiv+WP//v1p3bp1lSBqbIublHBzj4HqrFTmCwUUUKBFAqwBGnd4r/Uca4WWzbEtji2ntccxBEGPHz+etm/f7tT2QGmTZ4OebXIh7IYCCiiggAIKKKCAAgoo0M4CTOs8depU5cM/H/L5sE8mJ5lQ3MTjypUreT9r3hHgPHbsWJ8hHTp0KO+PwEK9Ovuc5BsFFFBAAQWGIGDQcwhonqKAAgoooIACCiiggAIK9JIAmZknTpxIM2fOzNNBy+nrFy5cSC+//HIOcjIFlOmi3OyDcvbs2fzMH9yZmfOjNKozjvFZAQUUUECBoQoY9ByqnOcpoIACCiiggAIKKKCAAl0qcObMmT4ji+mdZHBSmL4+adKkypqffQ4u3lTXU+xKQ62zrMPXCiiggAIK1BMw6FlPxu0KKKCAAgoooIACCiigQA8JkJXJ9PSYrl5r6Kxnx9p2TFOnHDhwIAc/b7755j7T22P9O9bPG6jUqnOgc9yvgAIKKKDAQAIGPQcScr8CCiiggAIKKKCAAgoo0MUCZGwStIzsTd7zOkqtu6wvWLAg72aK+sSJE3PWJmt4xvR2prhzR/i40VHUFc8D1RnH+ayAAgoooMBQBQx6DlXO8xRQQAEFFFBAAQUUUECBLhAgaFlmZHJDorjLOsMbP3582rJlS87kLIfLVPe4IRHnb9y4sdydtm3blm901GfjD940U2et89ymgAIKKKBAswLjrk07uNrswR6ngAIKKKCAAgoooIACCrSzABmGfsRp5ytk31ot4M98q0UHru/xxx8f+CCPUECBUROYNWtW5Uu4slGDnqWGrxVQQAEFFFBAAQUUUKCjBQwAdfTls/NDEPBnfghowzxF82ECeroCLRRo9PfR6e0thLYqBRRQQAEFFFBAAQUUUEABBRRQQAEFFBh7AYOeY38N7IECCiiggAIKKKCAAgoooIACCiiggAIKtFDAoGcLMa1KAQUUUEABBRRQQAEFFFBAAQUUUEABBcZewKDn2F8De6CAAgoooIACCiiggAIKKKCAAgoooIACLRQw6NlCTKtSQAEFFFBAAQUUUEABBRRQQAEFFFBAgbEXMOg59tfAHiiggAIKKKCAAgoooIACCiiggAIKKKBACwUMerYQ06oUUEABBRRQQAEFFFBAAQUUUEABBRRQYOwFDHqO/TWwBwoooIACCiiggAIKKKCAAgoooIACCijQQoFxV6+VFtZnVQoooIACCiiggAIKKKDAmAk8/vjjY9a2DSswVgKzZs1K8+fPH6vme67dcePGJUMpPXfZHXCbCjT6+2jQs00vmt1SQAEFFFBAAQUUUECBwQs0+vAz+No8Q4H2F/BnfvSvkeajb26LCtQTaPT30ent9dTcroACCiiggAIKKKCAAgoooIACCiiggAIdKWDQsyMvm51WQAEFFFBAAQUUUEABBRRQQAEFFFBAgXoCBj3rybhdAQUUUEABBRRQQAEFFFBAAQUU6CCBN954I61atSodPny4g3rdO13dtWtXvj5cp1aW06dPp+XLl6eLFy/2qZafA34eqtujH0wL57F48eI+58XPUOzftGlTpU7aeeCBB/rVVzmgzV4Y9GyzC2J3FFBAAQUUUEABBRRQQAEFFFBAAQUUaEaAIOWXv/zl9OCDD6aJEydWTiHguWDBgsr7eMH2HTt2pAsXLuQbct11111p3bp1lUDmww8/nKZMmZL3XblyJZ0/fz4RJKXMmDEj3Xrrrenpp5+O6tr62aBnW18eO6eAAgoooIACCiiggAIKKKCAAu0sQHYd2XJldmV1Rh/ZcpE5V51ZF+fH/jKzjnq2bNmS62d/2Ua1CcGvNWvWpEcffTQHuziXusr6IouPfbRLduAzzzyTZs+enftXnRXYqG/V7Ve/p92y79X9J2sw2mUfr9lGicxF+la6lOdUO2ITx1a3VX09yr5WG7Ev7Hhdtlmrn2Q+8mBfWHN+9KUcF/Vdvnw5feYzn6ns59gocX3iXJ5jP9eC64Mp2+NaHTt2LF1//fU5IEk9cc1Wr16d1q5dG1XnZ+on4EmgMwKkONKnc+fO5bEeOnQoLV26NB8/fvz4fOzBgwcrQVGO37t3b+Va9Wmgzd4Y9GyzC2J3FFBAAQUUUEABBRRQQAEFFFCgewQIWpEtR9bc1atXcxApMusIUK1YsSKtX7++ZmYdCk888UTaunVr3j9//vy6MASoCIitXLkyEbii3ttuuy0HSmmHQmCLABeBK8qlS5fSF7/4xfT888/n+snwI3BKcKyZvuVKGvxR9n3nzp05KEi9BBKXLVuWtm3bVhn3vHnzcv9pm/LCCy+kb37zm3n/qVOn0p49e9J9992X+4rltGnT0r59+/KxBDwJOEb2Isdv3LixEpjDYvv27Qmj6lJtRPsE+djeTD+fe+65nP3IteU60pcyk5Ix0u+4Bl/96lfTvffem8fFddq8eXNuh3axjyxL6sMs9tPvs2fPptdffz2fy3gotEVfy/L5z38+HT9+PPer3I4bdWAXZcKECemGG25IR48ezX4EVCdNmhS78+sXX3wx/+ywkWDprFmz8vGVg9r0hUHPNr0wdksBBRRQQAEFFFBAAQUUUEABBbpPoAzAEbQjkBnBTIJyBL7IpIsgGcHAqVOnDgli5syZ+TyCgBQCWwSsIsuPbQTq4j0ZfhHgaqZvnN+oLFmypJKBOHfu3BysIzDJNGmCcuW4Fy5c2KeqyZMnVzIOGT8OkaGIE8efOXMmB2gJ/JXjoP5PfepTaffu3X3qrPWm2igCw2xvtp+MjULgsjqTkjFiGcYEpefMmZOPp42bb745BxsZE4FMxhGFenEoSxngJIhJELsMUtLORz/60fKUPq9vvPHGPsfTLoHWKARECYRGoe6bbrop3ubn6dOn58BwBKj77GyjNwY92+hi2BUFFFBAAQUUUEABBRRQQAEFFOguAbIqya4jkFQ91Zmg3YYNGypTncmyIxBGBmYrCgEwgm60T6G9MmhWHQAjwEUfCEyOdN/oD4FdfGjzzjvvZFPDQkCuukT2IutXUk88mqmPusLowIEDuepageFm+xl9qdXP6n43ek/WKuPgZ+GVV16peyjXiVIGPese3MIdjI+fKcbbzsWgZztfHfumgAIKKKCAAgoooIACCiiggAIdLUBQjUw/AkRkKxLIItAXmZxMw2Yqc/koMwOHO3iCnEzXfumll/I0e9pvtoxU3yKISLCO7M2Yyt1sv2odx1Tx0pDXZdZkrXNiG0ZMS8coprazbyT6GW3Weo5gZyyHQIZudaZneR5Bz8EGyDk+gqXURbYm7UWpDmZy7Kuvvhq78zPXjYB5uxeDnu1+heyfAgoooIACCiiggAIKKKCAAgp0vEBMX46AEwEtpgkTcBrJacIEOZkC/eyzz+ZpzARho1QHwOgbwUKCWiPZN8ZOtiCBYKb7D6eQQRuZh0OtJwLBGGEV7wfbz+H0hQDryZMnE23WW3+0enyDDT7W6h/XgDEzlZ76uP7xM0p7vL7lllv6LLHAtsEGW6v7PhrvDXqOhrJtKKCAAgoooIACCiiggAIKKKBAVwpEICmmRxO8Yl3HKNzIKO60zTaCWhQCazH1/emnn87b+KP6+MqOIb4gyMk6nqwlWU5tj+roawRdWQOTaeKsZTnSfSszCsmybHY6evQ7ngkmky1a3vCH8WAedz6PY+s9xxR3jLipD9c0ymD6GX3BlJ8DCjdDWrRoUeWmSlFvrecyCM353ACp0fR2gpSUMkhZq97YVqt/ZBUzZtZN5bpz/WMtVBwZC+uncm4UTAg0l06xr52eDXq209WwLwoooIACCiiggAIKKKCAAgoo0FECBIO4+RB3F2cdRjIX77777soYbr/99vyaABH7V69ene/GTqCNB3dmJ2AXa1EyvZq7sJdBpkplA7zgHAJUBK6YKh2FYCeBt8hgjO08cxOb6BtZp/fff3/e3eq+lW2yzigPgnaMm8Aad0E/cuRI5S7h5fEDvaautWvX5vFRH+PBIbJImwkkR0C4DPANpZ+cQxA2xoY567YSUGxU8GY6fqxN+pGPfCS/50ZHrDNaqzBOApbNBj2po7p/2D/00EOVnzeuPz8H4cjPRzhGH1jvtXSK7e32PO5a2urVduuU/VFAAQUUUEABBRRQQAEFhiLAh7TqjzhkEPEhkrJz585+H97KdsjI+a3f+q30hS98IW+O1wN9WC3r8PX/CZClxAdlPsTzIbuVhWAOU2+pn2u2bNmydOLEidxE9TUur/+tt96annrqqT7Bh0b7aYdASKv730qLWj/zrazfuvoLdKI5P+dkopZrXI7k39H+am4ZKQGuLYHLoQbKB9svfm7WrVuXA6UEase6NPr7aKbnWF8d21dAAQUUUEABBRRQQIERFeCDPoEwgqHV2Soj2rCVj4gAH/ApZcBz27ZtlXXo+PAfxxAQ5UYsTCfm+nMc00X50E4ZaP8999yTgwlxfD7JPxToQAF+D0YmYwd23y43EJgzZ05697vfPaQM2QbV1t3FdHiyPNsh4Fm3kz/YYdBzICH3K6CAAgoooIACCiigQEcKxJpuTCtkrTjWp/uXf/mX/BxBMQbWzLTHgQAIni1fvjxn2pB1wqNcw4/z4668sb+cesrrxx57LJ/D/tmzZ+eAXHlOuTZdjC3qKtsiQMdYyzFG/+ln9dpyHE/f2ddsP+lf9DHai76U46I+gi2xj36VAUT6GPt4LvczXjKX2MY+jmXczzzzTFq6dGnuK1M+uRs2H/opfAhnWiltUsr1CXnPcdOurUMXayoOtJ/6+HD/yCOPcLpFgTEVqP57X/7didfVf+/5e83fVUorM5bL303Rdvlc/r4aU7QeaJwlDT772c+mBx98sM/v15EYOj9PZNXHkg0j0UYr6zTo2UpN61JAAQUUUEABBRRQQIG2EeCDIHfAJdOPTE+yU2666aYR698LL7yQXn/99UrGITd6iJuTECBgjTTukkvG4aFDh/Iab2WAgsAa6wKyf8mSJXltOqZwx/FkMBIwJPDBcQTj2MeDNdcefvjhPDYCdYy1VoCDG1VwF95yfTgCgHETi2b6yZief/75dPz48XzjC6Y5EmikH4yPcZYBjxg3+wg4RgCRsbO2YWRhxpp0sZ/BPPHEE3m9Q+pmPMeOHUuvvfZa5S7CZHtW3+WYteYoONE2hlH4mcCKoOhA++Mc7mjMHZXLYG3s81mB0RSI32nx977Wc/Xfe5bm4O9qOa09+tzod0UcU++Z+mq1H9vMqq8nNzLbuc5f+cpXRjz7knb+5E/+pLL+58iMpnW1GvRsnaU1KaCAAgoooIACCiigQA8LTJ48uZKBSDCB4EME4AgQlME5bmxBxmVZCHTG2qFx0xGyHCkcf+ONN+abVRD4o5SZNkzDJjAX2Zr5gBp/EDQhWMqNUgj6UQgAso19zfSTcTE+Cn0huBv9jKBMGfAgIMr2aJtAJG1TD8GYGHOY5Yp/8AdZnARqo9AWQUvqqlUYPwHlyATlGAKtZSmDoGwfaD83I+GOypEdWtblawUUUECB9hUw6Nm+18aeKaCAAgoooIACCiigQJcJkAHJFFACafv37284OoJx3Jm3uhD4e/TRRyt3W476yDRtppC5+OKLL+b138heJFjKtrI020/6Uq+fZX2NXsf0W8bBUgSNCkHk6qBlHE893NDoU5/6VCWQGvuG88w1YIyM1aKAAgoo0DkCBj0751rZUwUUUEABBRRQQAEFFOhQgQgiMkWdadw8qjM9BzO0lStXVqbKx3TSMmuyUV3lFPdyajvntLqfjfoRwU6yWONGRCxFUK/EdPRa+yPguXbt2n43q6oOVkb2bdQz0H6ySskutSiggAIKdJaAQc/Oul72VgEFFFBAAQUUUEABBTpMgGAd08mZds1amzE1fKjDiKxD1sgcSolp5vSJmwLF1Pah9HM4fWFdUab0E7StXoew1rjqBR9ZGzQCp+W0+ji+DHJG4JTlAwbaH32Ic+K9zwoooIACnSFg0LMzrpO9VEABBRRQQAEFFFBAgRYIxFTluLs307vJvhyNEhmFBNG4+c9A09vr9SnuQF7e8IfAX3nn83rnxnamsx85ciRt3rw5T92O7TwPpp/RF4K5UbgZEo9mSqzvybFkmQ40vZ2p7WUQkwxPboZEQLlW4JS1PdnHcZRYg5QgKWWg/RxDcBkTArwWBRRQQIHOETDo2TnXyp4qoIACCiiggAIKKKDAMAXI7uPO53v27Mlra5IZePfddw+z1sanR5sEGFm3ksArGY5MUY/ga+Ma+u6lvoceeigR6KQ+HgQZCRqSRUoglwAo++sVprhzkyCm2EcAcCj9jL4QOI6+EMi8//776zVd2R43YsKDcwlm7ty5M/e73p3Sp10LPJaB0t27d6cTJ06kBQsWVNqnrlWrVuWbJXGTJAKpjJHtBEi3bt1aybYdaD+dZSkCbiIVTpUB+EIBBRRQoK0Fxl2bSnC1rXto5xRQQAEFFFBAAQUUUECBJgUIbPkRp0msDjyMLFmC1twRvlZm50gMiWAypZw6PxLtDLVOf+aHKjf08zQfup1nKtBqgUZ/H830bLW29SmggAIKKKCAAgoooIACCoyIAJmlBDyHkiE7lA6Rccrap2TOWhRQQAEFOkvAoGdnXS97q4ACCiiggAIKKKCAAqMsEHcZJ5uk1mMwa2mOcte7srnI8IwMzJEcJOumEmQd7s2nRrKP1q2AAgooUFvA6e21XdyqgAIKKKCAAgoooIACHSjQaJpbBw7HLiswoIA/8wMStfyAxx9/vOV1WqECCgxdYNasWTWXPDHoOXRTz1RAAQUUUEABBRRQQIE2EzAA1GYXxO6MuIA/8yNO3K8BzfuRuEGBMRNo9PfR6e1jdllsWAEFFFBAAQUUUEABBRRQQAEFFFBAAQVGQsCg50ioWqcCCiiggAIKKKCAAgoooIACCiiggAIKjJmAQc8xo7dhBRRQQAEFFFBAAQUUUEABBRRQQAEFFBgJAYOeI6FqnQoooIACCiiggAIKKKCAAgoooIACCigwZgIGPceM3oYVUEABBRRQQAEFFFBAAQUUUEABBRRQYCQEDHqOhKp1KqCAAgoooIACCiiggAIKKKCAAgoooMCYCRj0HDN6G1ZAAQUUUEABBRRQQAEFFFBAAQUUUECBkRAw6DkSqtapgAIKKKCAAgoooIACClQJXLx4MS1evDgdPny4as/g354+fTotWrQo8dwppRP73Cm29lMBBRRQoL/Adf03uUUBBRRQQAEFFFBAAQUUUKCdBWbMmJH279/fzl20bwoooIACCoypgJmeY8pv4woooIACCiiggAIKKDCSArWyK3ft2pVWrVqV3njjjdz0pk2b0rhx4/KDTEzOiRLnx36OjUI9W7Zsydmb7B9KBid1RN3VbZMZOXv27Eq/aCv6XWZN8nr58uW5L1FXHEdf6Vd13TGGsp7Yxpipj32U0of6SwNeP/bYY7mf9JVzeES/OZ4xluXLX/5yZcxlPwdqqxXeZT98rYACCijQ3QIGPbv7+jo6BRRQQAEFFFBAAQUUaCBAIO38+fPpypUr6erVq+muu+5K69atywFRgn8rVqxI69evz/s4hmPLIN4TTzyRtm7dmvfPnz+/QUv9d1HPjh070oULFypt0x7t8rjvvvvS2rVr8z7aoK165YUXXkivv/56Ppb6zp49m55++ul8OP3at29fmjhxYr/Tp06dmm655ZZ09OjRyr5Tp06lG264IbGPoGbpc+jQobRhw4Y+AV7aef7559Px48fTpEmTcr+3bdtW6QtjjIDwK6+8kq6//vrKvrKfzbQ1HO/KAH2hgAIKKNATAk5v74nL7CAVUEABBRRQQAEFFFCgGQGCjjwoBPMIGEYwc/z48WnNmjXpwQcfzJmTHDNv3rwcHOT1YApBTYKBBFQjGHn77bengwcP5gDltGnTEg+2UZjOvmTJkhyArNXO5MmT09KlS/Mu6qPPZ86cqXVon22MaeHChbld2uL9gQMH8jZe07+yzJw5M68lWm6jrRgDwVX6PWfOnHwI29lGIQO0UT+baWuo3rkD/qGAAgoo0FMCZnr21OV2sAoooIACCiiggAIKKFAKMO2bbMMJEybkKdkxpZtjCBqS1RhTxnkm6Hfp0qWyiiG9juxOMiOjEGScMmVKfkufeM22KNOnT4+XLX2eO3duevHFF9O5c+dyhunJkycT28pCVirjp7+N1hLFrLrfZT3NvG62rWbq8hgFek2AZTtYNiKyq8dy/GRv86hV+OKH37/N9HOgY/m93eyN3QZzLH2rXoKj1ljc1r4CBj3b99rYMwUUUEABBRRQQAEFFBhhgchEZOo6WYQENcv1Lzdu3JinYjP1PR71poqPcFdHrPpyins5tZ0GIwAZ0/AJ1hJcGIkymm2NRP+tUwEF+gqQvV2dwd33iNa8ixu78TxQGcyxA9Xl/vYXMOjZ/tfIHiqggAIKKKCAAgoooMAIC5BRuX379ry+Jk0R/COzkvUs44ZHrewCGZNkThJEjEI7tEeZdm2KeHXbzUxXj7oG88zYY4r7M888U5naTn+Ybs86ns0GeodqNpS2BjNGj1VgJAVqZSISxC+zBMl4jKzx8osV+hXnx/4yO5J6mr1hGn+PWILj0UcfTQsWLMhfWlRnW3IM/aJe2uWmZfy9j5uPlX0eqG8DmVa3HV9sME7WTi5LtVe5L16z9EYYlf2szt4kQ7M87oEHHqhknJbH8rreTeCoA0Msf+3Xfi1bRT987hwBg56dc63sqQIKKKCAAgoooIACCgxSgGnrBBD5sEzhQz5Zi1GqP2gT7KRExmd5ox22Vx/PtqEUMky5aRJBAfpEYQ1R2iMgQvtl23w437Nnz1CaauocprMfOXIkbd68OXuVJ9EPCsESAhWNprfTd44/duxY5ZwIsOQNA/wxmLYGqMrdCrSNAL83yhuCjdQN0/gCgwDpypUr85cVrE9822235Snk8XuGZSwuX75cWZeY5Tq++MUv5puRkc3O8hQETvn7zjnUQbYm+2rdzK1ZZAwiYzzaKX+X0A5fPJVLelTXTSAylgYp+1kex+/K1atX5/HTDtb8XqtX6t0EjrWK+cIHy7/4i7+orFtcrx63t6eAQc/2vC72SgEFFFBAAQUUUEABBVogwAdoPsATMCTzhw/Wd999d6XmuFEQwVH282GZO6UTlOTBaz4wR9YQmY8EFRp9MK9UPsAL+sIH8sj6JCBAYKBW29zJ/dOf/vSQ1sskUFCdWVbdNaa4M72fqesEXClhF+PHiJspEQSIIHJ1PWGGI2acQ3CCsTYqQ2mrUX3uU6CdBcoAH1nUBNh4UOLvwt69eytfiAznBl7x9zm+0Dl69GiaNWtWnyAeQU3+7lK4IVqs8dtM3/JJA/xBAJXfnfy+i3buueeeQS+VUa+fZfOMj99T4clN1fidVa80urlavXPc3jkC3r29c66VPVVAAQUUUEABBRRQQIEhCLCG2/Hjx/uc+fGPf7zynuwiHrVKrXPjOAIXAwXz4lie+bBPEKEsjeqobpuA6Ouvv55Pj3Xpoq4yY4pt5Tp6fPivbjfOi2cCLbUMqvvA8R/96EfjtD7txMZa57Cvus9sK/tZ67yyrUZW1GVRoF0F+NKBLzX4EuDWW29NTz31VP77QH/jhmncNK0srVo7l987/A4gi5pn2iP7M8qNN96Yv3iJ9/ElDBmVreobGaK0T9AzChbTrmXhN1sa9ZM+R6HP5U3f+N3GFy+W3hQw07M3r7ujVkABBRRQQAEFFFBAgTYWqM7OjGn5ZbCijbtv1xRQoBCILzzG6oZp/N4g0/Kll17K0+wj+7PoYt2XvXAzt7qDd0fHCxj07PhL6AAUUEABBRRQQAEFFFBgrAXi5iAxDb7WM4HMZgsZWTwi64pnsiLZZlFAgc4UiIzquIHZSN8wLZQIcrKO57PPPpuzHmOKOftZ0zP6w/tYM5PfOUO9MRn1lCWyOsn2jBLZn/F+oOdG/SzPpc9ke0bhd3PcIC62+dw7AgY9e+daO1IFFFBAAQUUUEABBRQYIYEIZnDjjHqPwQYsCXKWdQ32/BEaqtUqoECVQAT1Yq3byMyOw1iaorzbeKyvSTAybv7FjcyiVB8f24f6TJCTdTxZ27JWtjhT7wkOUnbv3p3vWs5yE63qG78fmdpOO3FDpUceeaThTdFqjTX6SV9ZW5m7q9PPsnBTNtZwji+ZuKkad2C39KaAQc/evO6OWgEFFFBAAQUUUEABBRRQQAEFWiBAUK9dbphGXxYuXJgDgps2baqMjmBneaOyyo5rL1jzksAtGepkRd5///15N8HSVt3MjS9tyhu3vetd7+pzI6OBAr2s6clNiegnD0r0M7/5wR8EQbdt25bHz3gIlK5du7bPOp/l8Y1eE5QmO/Xnf/7nE3eFt3SewLhr3xxe7bxu22MFFFBAAQUUUEABBRRQoL8AH3L9iNPfxS3dK+DP/Ohf2040J/ORTNTy5mFkXXKDsG5fOoPgL9PeB3PjudH/qbLFoQo0+vtopudQVT1PAQUUUEABBRRQQAEFFFBAAQUU6AABAp61prZ3QNcH1cXqjFEyNA8dOpSY9m7pPQGDnr13zR2xAgoooIACCiiggAIKKKCAAgp0mMBQbphG0G/27Nl5pK1cF5jsSTLs6j0IPo5Fuf3223OzMV1/2bJl6Qtf+EK/tT/Hom+2OfoCTm8ffXNbVEABBRRQQAEFFFBAgRESaDTNbYSatFoFxlTAn/nR59d89M1tUYF6Ao3+PprpWU/N7QoooIACCiiggAIKKKCAAgoooIACCijQkQIGPTvystlpBRRQQAEFFFBAAQUUUEABBRRQQAEFFKgnYNCznozbFVBAAQUUUEABBRRQQAEFFFBAAQUUUKAjBa7ryF7baQUUUEABBRRQQAEFFFBAgbYT4KYpv/Vbv9V2Nw7hpiuU9evXt52ZHepMAdYRtHS2wAc/+MH0T//0T509CHvfUMCgZ0MedyqggAIKKKCAAgoooIACCiiggAJvC1y9evXtN77qWIE77rgjfetb3+rY/tvxgQWc3j6wkUcooIACCiiggAIKKKBAhwpcvHgxLV68OB0+fLgygl27dqVVq1alN954I28jC5CsLR4cyzlR4vzYHxmD7KeeLVu25HPYX7YR55fP1LV8+fL0zDPPpNmzZ+f2yn5wLHVEW9X9adSXevuorxxTHFf2lXHwoMT+6ENsZ1+98ZZ+X/7ylzk0F3wZX1nHQPuoK45vZNFMX8px0+758+cr16r6epGhGteEfbxmG4XnBx54ID/YV/4M5AP8QwEFFFCgLQUMerblZbFTCiiggAIKKKCAAgooMBoCBM8Ihl25ciWRvXXXXXeldevW5YAoAcAVK1bkKdHs4xiOjaAc/XviiSfS1q1b87nz588fsMuXLl1KX/ziF9Pzzz+fz5kyZUpas2ZNbo8g3+rVq9OpU6fyvgsXLuT6HnnkkbyfftG/6r4QXKy3b+bMmenGG29MURd179+/P509ezbXzbknTpxIc+fOzQFPxhttcM6OHTsajpcAYPjh89prr6VXXnkl1z1+/Pi0ffv2bJg3FH+wb+HChengwYOV4DPeJ0+ezH1pZBHVVNs3upacc+TIkcq12rlzZw5e0iZBzWXLlqVt27ZVbOfNm5cD2hEYf+6559Ktt96a9ztFPq6AzwoooEB7Cxj0bO/rY+8UUEABBRRQQAEFFFBgFAUI+hGoIyi3b9++RCAzgplsI0C5d+/eSjYowbGpU6cOqocEzSZOnJjPWbp0aXrxxRfTuXPncjvHjx9PM2bMyPs4JtqubmCggGIEG6lj1qxZ6ejRo7kKgp1r167NgU4CerRLYQyMd9q0aen222/P2ziXvhL4JDhIKcfLNoKTBEnpT/hMnjw5HzvQHwRaY+wcS0D2hhtuyH1h3ANZVPeFfkZfqK+8lrxfsmRJxZa2CR4T2MWbtsKacRCQLQtj4hyLAgoooEDnCBj07JxrZU8VUEABBRRQQAEFFFCgxQJMgSYQOGHChD5TmmnmzJkzacOGDX2mm5M5SbbmUAtZl5MmTaqczmumTEcmJjvKqda0TyEQR0Dvzjvv7DctvtE+zp0+fXoeS2R1fvzjH88ZmWRmEgwlg5E6GC+Zp7yOQv/oc61CnwkcVo/npptuqnV4v20EWm+55ZZKQPbAgQM52Fi2X8uiX0XXNtTqS63jGm0jiMvPA9cDZ4sCCiigQGcLGPTs7Otn7xVQQAEFFFBAAQUUUGAYAmQzkuFIAJDMQYKa5VqQGzduzIE9gnvx4HjOa3WJAB99iKnWtB+FTET6QEYkU7UJ1Mb6ko32kaHItPF///d/z8FO6ie4ST3/+Z//OWYZjAQ3Y4r7Sy+9VJnazngHsgiTVjxHsJPgbUztZ/q7RQEFFFCgswW8e3tnXz97r4ACCiiggAIKKKCAAi0QIADHlPCHHnooT4smIEiGZKw5WWYfDqc5skRjSjX1lBmKZF0yBZup1o1KTMdmajlBT4J2EYSttY+Myve9733pb//2b3Owk2MZ2z/+4z+m119/vTI9v9Z46V+9zNYySzWm5HP8q6++2qj7ffYRkP3zP//z9Oyzz1amtnNAsxZRWa2+xL6BnrnWTOsn8N2q6zxQm+5XQIHREdizZ0/iUa9wB/dahd/FPCydLWCmZ2dfP3uvgAIKKKCAAgoooIACDQTIhiSgxdRpCgFC1n6Mws1vyjuoEwCjRMYnU9+ffvrpODzf1Kc8vrJjEC9oP26Qs3v37rRgwYLKWpPcFCj20beY3s626juhMyYyPBljvX0EOAnkXX/99WnlypU52ElXMfmd3/md/D4CfTHVP8aLFUFVsh8jqFoOk23si/HQR+5mHzcyKo+t9zqmuNO36qn19Sxq1VXdF44hKFxm7dY6L7ZxnQl6UjjP6e0h47MCnS1A4PLJJ5+s+WBk9fYZ8Ozs6x69N+gZEj4roIACCiiggAIKKKBA1wkQ0OPmQ2T6sFYjN7e5++67K+OMm/YQOGQ/d0/nbuwE0XjwevPmzXkf+8n8JLAXgcJKRYN4QXAv2iOwd//99+ezq/vCGptMsyYIR0COcZR9iXNjjLX2Rbduu+22vHZn3IyHoO6iRYvStGvBzyiMl0ArQUzGGtO9MatX2BfjYUxz5sxJcSOjWoHa6nroe9w0iD5GaWRBMLZWKftSfS1rHR/bCBzziGxRxs/d2llCIG70FMf6rIACCijQOQLjrq0Jc7VzumtPFVBAAQUUUEABBRRQQIH6AgS72vUjDsE6AnPcEZ0gm0WBVgi08898K8ZnHQqMlABT28n0tHSvgJme3XttHZkCCiiggAIKKKCAAgoooIACCiiggAI9KWDQsycvu4NWQAEFFFBAAQUUUECBVgrEVG6y7uo9/uEf/qGVTVqXAgoooIACCjQQcHp7Axx3KaCAAgoooIACCiigQGcJONW3s66XvR2+gD/zwze0ht4UcHp79193Mz27/xo7QgUUUEABBRRQQAEFFFBAAQUUUEABBXpKwKBnT11uB6uAAgoooIACCiiggAIKKKCAAgoooED3Cxj07P5r7AgVUEABBRRQQAEFFFBAAQUUUEABBRToKQGDnj11uR2sAgoooIACCiiggAIKKKCAAgoooIAC3S9g0LP7r7EjVEABBRRQQAEFFFBAAQUUUEABBRRQoKcEDHr21OV2sAoooIACCiiggAIKKKCAAgoooIACCnS/gEHP7r/GjlABBRRQQAEFFFBAAQUUUEABBRRQQIGeEjDo2VOX28EqoIACCiiggAIKKKCAAgoooIACCijQ/QIGPbv/GjtCBRRQQAEFFFBAAQUUaAOBN954I61atSodPny4qd6cPn06LVq0KPE83LJr167cNn1ot7Jp06bEo1a5ePFiWrx4cVNmgzl2sNeiVt/cpoACCijQ3gLXtXf37J0CCiiggAIKKKCAAgoooECvCkycODHt27evqeEP5timKvQgBRRQQIGOFjDTs6Mvn51XQAEFFFBAAQUUUECBRgK1sv+qsx7JMhw3blx+kFXIOVHi/NhfZiRSz5YtW3ImIvsbZXCSWbhmzZr06KOPpgULFiTOpUTGYdRPJmi9bMyB+hIZk1FXdX8uX76cPvOZz1TGGn2IsfI+zi0daHf58uXpscceq7mf8xv1jX6U9UV75fP58+crjrNnz65kt0a9MZZqL/oU2bDlsY36XO9alP3xtQIKKKBA5wsY9Oz8a+gIFFBAAQUUUEABBRRQYIgCBPoIuF25ciVdvXo13XXXXWndunU58EjgbMWKFWn9+vV5H8dwbBksfOKJJ9LWrVvz/vnz59ftxfjx43OAdOXKlenQoUO53gi+LVy4MJ9P+1OmTEkPP/xwv3qa6cuGDRvS9OnTc12nTp1Kq1ev7hOI/epXv5ruvffevJ8+bN68uRJcZEw7duxIFy5cyPtxYOy0S7l06VI6duxYdsJh2rRp6ZFHHsn7BuobLmRrkolZrxAMDudt27alZcuWVfpWnhM29IEHfXrllVfKQyqv6/W51rWonOQLBRRQQIGuETDo2TWX0oEooIACCiiggAIKKKDAcAUI9G3fvj0RGCNQR8AugplsI1tz7969lWDgvHnz0tSpU4fULAE7yu233145/5577kknT57sF/Brpi8EVKOuGTNmpCVLlqQDBw5U6mb/nDlz8vuZM2emm2++OQc5CVoS8CToGIFJ6iGwWU4tJxCKAQ8CtQSACdw207dKJ+q82LhxY8WZPuJ69OjRPkfTT2y4BtEP+tSo1Otzo3Pcp4ACCijQHQIGPbvjOjoKBRRQQAEFFFBAAQUUGIIA067Pnj2bJkyYkMpp1VR15syZRPZkTPnmmWAhGYStKLRLhiNtRxuTJk1KL7zwQr/qm+kLWaIEA6OQ9RmBydhW6zmyO2k7CvVQXzOlmb4NVA99jRJtU29Z6Cel7CevJ0+eXB7mawUUUEABBbKAQU9/EBRQQAEFFFBAAQUUUKBnBeLmN0yVJruQoGa5/iQZiEw7Lx9kNkZG5HDhyL6k7bL+48ePJzI1q8tI96W6vcG8b+e+DWYcHquAAgoo0D0CBj2751o6EgUUUEABBRRQQAEFFBiiANmFTGuPbELWxGw2U3KITebp42R7EvQcqDTTl+qsTjIlq7M/a7VDtiSZpjF2jmHaOvU1U5rp20D1lFmd0XaZ/cn5keFZ9pPX9db0HKhN9yuggAIKdLeAQc/uvr6OTgEFFFBAAQUUUECBnhZg6vi0a2tTxtqWsX5loHADn/KO6QQ7KZHxSVDy6aefjsPzTYzK4ys7hvCCtSvpW9wQiCrq3ek8puE36gtT5WOd0NOnT+cbJi1dunTAnpG1ytqX3P0dHwrtMHbaHag007eB6tizZ09lHdN6bdPPWbNm5RtCERjlwVqkFgUUUEABBWoJGPSspeI2BRRQQAEFFFBAAQUU6AoBMji58Q1BNbIZuVHR3XffXRlb3Pgn1tXkjufcjZ0AGw9ec5fzWHPz4MGDOehGvYMtnMMNgBYsWJADjLx/6KGHcqAz6ifwSCCWtsvSTF8++clPpj/7sz/LfSVoy3qktabJl/XGa1wIfEbWJ8HEWv2I48vngfpWL5Bb1vHpT3863XfffbnveMc1KI/h9f333583cb14EDj+wAc+UMkCrT6+3vvqa1HvOLcroIACCnSuwLhra8dc7dzu23MFFFBAAQUUUEABBRRQ4G0Bgoe9+BGHAOVwArJvC3bWKzJaH3zwwRzsrQ4Ud9ZIht7bXv2ZH7qYZyrwfwJ33HFHevLJJ+XoYgEzPbv44jo0BRRQQAEFFFBAAQUUUKBbBJh6z1R6Mkej7N69O09579WAZzj4rIACCijQX8CgZ38TtyiggAIKKKCAAgoooIACgxJgfUnW+oxp6rWey2DdoCr34CxAYHP9+vV5eYDwZQfbLAoooIACClQLOL29WsT3CiiggAIKKKCAAgoo0LECTvXt2Etnx4co4M/8EOE8recFnN7e/T8CZnp2/zV2hAoooIACCiiggAIKKKCAAgoooIACCvSUgEHPnrrcDlYBBRRQQAEFFFBAAQUUUEABBRRQQIHuFzDo2f3X2BEqoIACCiiggAIKKKCAAgoooIACCijQUwIGPXvqcjtYBRRQQAEFFFBAAQUUUEABBRRQQAEFul/AoGf3X2NHqIACCiiggAIKKKCAAgoooIACCiigQE8JGPTsqcvtYBVQQAEFFFBAAQUUUEABBRRQQAEFFOh+AYOe3X+NHaECCiiggAIKKKCAAgoooIACCiiggAI9JWDQs6cut4NVQAEFFFBAAQUUUEABBRRQQAEFFFCg+wUMenb/NXaECiiggAIKKKCAAgoooIACCiiggAIK9JTAuKvXSk+N2MEqoIACCiiggAIKKKBA1wo8/vjjXTs2B6ZAPYFZs2al+fPn19vtdgUUqCFwxx13pCeffLLGHjd1i8B13TIQx6GAAgoooIACCiiggAIK/MZv/EYyr8Ofg14SGDdunD/zvXTBHasCCjQt4PT2pqk8UAEFFFBAAQUUUEABBRRQQAEFFFBAAQU6QcCgZydcJfuogAIKKKCAAgoooIACCiiggAIKKKCAAk0LGPRsmsoDFVBAAQUUUEABBRRQQAEFFFBAAQUUUKATBAx6dsJVso8KKKCAAgoooIACCiiggAIKKKCAAgoo0LSAQc+mqTxQAQUUUEABBRRQQAEFFFBAAQUUUEABBTpBwKBnJ1wl+6iAAgoooIACCiiggAIKKKCAAgoooIACTQsY9GyaygMVUEABBRRQQAEFFFBAAQUUUEABBRRQoBMEDHp2wlWyjwoooIACCiiggAIKKKCAAgoooIACCijQtIBBz6apPFABBRRQQAEFFFBAAQUUUEABBRRQQAEFOkHAoGcnXCX7qIACCiiggAIKKKCAAgoooIACCiiggAJNCxj0bJrKAxVQQAEFFFBAAQUUUEABBRRQQAEFFFCgEwQMenbCVbKPCiiggAIKKKCAAgoooIACCiiggAIKKNC0gEHPpqk8UAEFFFBAAQUUUEABBRQYusDFixfT4sWL0+HDh2tWcvr06bRo0aLE80BloGN37dqVVq1ald54442BqkqDPXbTpk0D1ukBCiiggAIKjLXAdWPdAdtXQAEFFFBAAQUUUEABBXpBYOLEiWnfvn2jMtQVK1YkHs2UwRzbTH0eo4ACCnSCwJNPPtkJ3bSPwxAw03MYeJ6qgAIKKKCAAgoooIAC7S1QK7uyOrORzMVx48blB5mYnBMlzo/9ZZYj9WzZsiVnb7K/XgZndV3lcWXbX/7yl+PQnKFJpiZtNCqcU69vZaZn2U70OfpRevD6gQceyFmiUW/0gec777wzbdiwoeks0kZ9d58CCiiggAIjKWDQcyR1rVsBBRRQQAEFFFBAAQXaWoBA3vnz59OVK1fS1atX01133ZXWrVuXg44EPMmCXL9+fd7HMRwbQUAG9sQTT6StW7fm/fPnzx/UWAlERtvU/dprr6VXXnkl1zF+/Pi0ffv2htmaHMs5nBt9K4Oy0Rn6S4DzwoULuZ+vv/562r9/f+zu97x58+bsgMehQ4cS75lOj8XOnTvTxo0bc9/oo0UBBRToNAF+J9b6XdnqcbC8CF8+xRdMUT//tixfvryppUziHJ+HJmDQc2hunqWAAgoooIACCiiggAJdKEBgj2AjAT2mohPIjGAm29asWZP27t1byQadN29emjp16qAl+NDLB2GCrNQbdU+ePLnpujiW/sT51EWd1B2FD90HDx7MgVum11OWLl2abr311jik3/PKlSvTnDlz8vaZM2emm2++OQdM+x3oBgUUUKADBc6cOTMqveZ3M/+exL8ho9KojfQRMOjZh8M3CiiggAIKKKCAAgoo0EsCTGc/e/ZsmjBhQpo9e3afzBs+GDOVO6Z580wQ8NKlS8MmiqzLSZMmVeri9U033VR5P9ALjq0+n+xM6o5C0PPy5cv9jiOQaVFAAQXaQYAva2JpkTI7ki9w2B6/gyNjstxe/t4mg5PMSs4pM/LLMVIHv9d5fOUrX8kZl/FFEdmfkRlPPSz1QdvlUiFkvdMm26PPZf3l63Is8ZrzmE1gGR0Bg56j42wrCiiggAIKKKCAAgoo0IYCcXMhpoeTtUlQs/wgy1RuAonlgwzQyJpswyHZJQUUUKArBCLbPpba2LFjR3r11Vdz0DCWHdm2bVteW5mgIoUvsQhckrVfq5B1ye91Hp/4xCfS+973vvxFEYHPkydPprlz5+bTHn300fTxj388Lx3Chqeffjpn0T/44IPpqaeeyv8mkF3/yCOP1Gqm3zbOp/BvDee98MIL/Y5xQ+sFDHq23tQaFVBAAQUUUEABBRRQoMMEYhpiZEmeOnUqTZ8+Pa+5GR+mWzkkMjTJ+In2qJvXfKBvtnBs9fnUWWZ/Mq4bbrih33Evv/xys814nAIKKDAmAgQg9+zZk39X0gGmihMAJbC5YMGCvJ3nI0eOpHPnzuU+Tps2LWfuN9Nhfj+y1MfRo0fz70gCoLFcSSzzwTELFy5MZP7z+5ZgJV+O8buWG7tVLylSq93vfe97eZkR6qE+zv/ABz5Q61C3tVjAoGeLQa1OAQUUUEABBRRQQAEF2keAaet8CD5w4EDuFNk8ZAtFiemQEdgk2EmJjE8+XEeGDturj2fbUAqZomT70Bfa5sFd1eNGRs3UybG7d+/OhzIupmZSZ5mFGh/Y2RdTODnnxIkTzTThMQoooMCYCcyYMSMdP34831CN4CZZ+HzZc+ONNyZ+V0cGPsdw7FAKgVV+H/7d3/1dDoDyO7NRIVhJ8DPaNvO/kdbY7zPoOfbXwB4ooIACCiiggAIKKKDACAnwAZab/US2EFMe77777kprt99+e35NcJTMndWrV+e7sRM45MGd2bl7Oft4cFMggpMDfTCuNNDgBX2ZMmVKzkqifW4eFDcyIgjKOnIEWesVPny/613vyv0iu5Npm7WmdLKNfZFdyjmf/OQn+2SE1mujentkXpVLAFQf43sFFFBgMAL8biKISDCRjE0yNyn8/uPB7y+CnAQ7+V1J9np84VOuBzqYNuNYgqXvec978hdjMbWdfZE9yu9ifu+T+U8/WdOZQCel0FlDcgAAQABJREFU2S/B/t//+385W5R6qI+xOL09E474H+Ou/WBdHfFWbEABBRRQQAEFFFBAAQUUGAUBApN+xGkMTcbnvffem1ibbqjZUY1bcO9oCvgzP5ratjUSAgQC+XKKdTT5QobC7yi+CIrtbDt06FAOgPI7jC9z9u/fn7MzWWOT32UEIZv5YorjmJoe9RE4Jes+vtDiPV+A8SXUc889l5jqHvu4kdGyZctyduiiRYtym2V2Pf2MEuMiA78cC/Vxgzl/B4fUyD0b9Bw5W2tWQAEFFFBAAQUUUECBURYwANQXPD50s5ZcZIE2GxjoW5Pv2lXAn/l2vTL2q1MEWP6DTM74HUnQM+7kXi+g2Slj6/V+Or29138CHL8CCiiggAIKKKCAAgoMW4DgItPRCUDVe/BBerRLTO8fqSn6oz0e21NAAQWaESBoWet3Mb+n+X1Nid/b/G5myY6hlKijVlv0wTK2AmZ6jq2/rSuggAIKKKCAAgoooEALBfjg6fT2FoJaVdsL+DPf9pfIDiqgwBgJmOk5RvA2q4ACCiiggAIKKKCAAgoooIACCigwNgJ33HHH2DRsq6MmYNBz1KhtSAEFFFBAAQUUUEABBRRQQAEFFFBAAQVGQ+C60WjENhRQQAEFFFBAAQUUUECB0RJgum+3lA9+8IPpn/7pnzpqOJ3Y5+EAM97vf//7ibs6WxRQQAEF2kfAoGf7XAt7ooACCiiggAIKKKCAAsMU6Lb1PJl++a1vfWuYKqN7eif2eThCO3bsSJMmTUof+9jHhlON5yqggAIKtFjA6e0tBrU6BRRQQAEFFFBAAQUUUEABBRRQQAEFFBhbAYOeY+tv6woooIACCiiggAIKKKCAAgoooIACCijQYgGDni0GtToFFFBAAQUUUEABBRRQQAEFFFBAAQUUGFsBg55j62/rCiiggAIKKKCAAgoooIACCiiggAIKKNBiAYOeLQa1OgUUUEABBRRQQAEFFFBAAQUUUEABBRQYW4Fx1+5ueHVsu2DrCiiggAIKKKCAAgoooEDvCuzZsyfxGGxZsmRJ4jEWpRP7PBynK1eupM997nODrmLChAnpS1/60qDP8wQFFBh5gTvuuCM9+eSTI9+QLYyZgEHPMaO3YQUUUEABBRRQQAEFFFCgsUAnfijvxD43vgqN9+7YsSNNmjQpfexjH2t8oHsVUKCtBHrtd1Vb4Y9SZ5zePkrQNqOAAgoooIACCiiggAIKKKCAAgoooIACoyNg0HN0nG1FAQUUUEABBRRQQAEFFFBAAQUUUEABBUZJwKDnKEHbjAIKKKCAAgoooIACCiigQPcJcJuMcePGdd/AHJECCijQ4QIGPTv8Atp9BRRQQAEFFFBAAQUUUEABBRRQQAEFFOgrYNCzr4fvFFBAAQUUUEABBRRQQAEFFFBAAQUUUKDDBQx6dvgFtPsKKKCAAgoooIACCiiggAIKKKCAAgoo0FfAoGdfD98poIACCiiggAIKKKCAAgoooIACCiigQIcLGPTs8Ato9xVQQAEFFFBAAQUUUEABBRRQQAEFFFCgr4BBz74evlNAAQUUUEABBRRQQAEFFFBAAQUUUECBDhcw6NnhF9DuK6CAAgoooIACCiiggAIKKKCAAgoooEBfAYOefT18p4ACCiiggAIKKKCAAgoooIACCiiggAIdLmDQs8MvoN1XQAEFFFBAAQUUUEABBRRQQAEFFBicwJIlSwZ3gkd3nIBBz467ZHZYAQUUUEABBRRQQAEFFFCgXQSuXr2axo0b1y7dsR8KKNCkwNe+9rX01ltvNXm0h3WigEHPTrxq9lkBBRRQQAEFFFBAAQUUUKBtBAh8WhRQoLMErr/++nT58uXO6rS9HZTAdYM62oMVUKCrBfyGuqsvr4MbQwE/CI0hvk0roIACCiiggAIKKFBD4D3veU966aWX0o033lhjr5u6QcCgZzdcRcegQAsFDM60ENOqFLgm4JcJ/hgooIACCijQ3QL+W9/d19fRda/A+9///nTy5Mn0Uz/1U907yB4fmdPbe/wHwOEroIACCiiggAIKKKCAAgoooIACvSbwMz/zM+nv//7ve23YPTVeg549dbkdrAIKKKCAAgoooIACCiiggAIKKKDA9OnT0/ve9770N3/zN2J0qYBBzy69sA5LAQUUUEABBRRQQAEFFFBAAQUUUKC+wLJly9JTTz2VvvGNb9Q/yD0dK2DQs2MvnR1XQAEFFFBAAQUUUEABBRRQQAEFFBiqwHvf+9503333pa1bt5rxOVTENj7PoGcbXxy7poACCiiggAIKKKCAAgoooIACCigwcgIf+tCH0h/+4R/mmxoRACXz81vf+la6dOlSeuutt0auYWsecQHv3j7ixDaggALdKrBp06a0YcOGdOjQoTR//vy2GebFixfTunXr0kMPPZQmTpw4rH5R14oVK3Idu3btGnZ9w+qMJyuggAIKKKCAAm0o8CM/8iNt2Cu7pIACgxEg4/Pzn/98OnPmTPr617+evva1r6XvfOc76bvf/W761V/91bRnz57BVNfSYxcsWJBvuHT99denyZMnp5/4iZ9IBGpnzZrV0na6sTKDnt14VR2TAgr0rEAZpOxZBAeugAIKKKCAAgqMosCbb76Z3vnOd45iizalgAIjJcDNjXhUlyVLllRvGtX399xzT3rttdfSf/zHf6QXXngh7dixI40fPz79+q//evrABz4wqn3ppMac3t5JV8u+KqBAWwpcuXIlrVq1Ko0bNy4tXrw4EXgsCxmh7OMxe/bsdPr06cru2PfYY4/lfRzDNkrsqz6H+mkn6ozjI+C5f//+xGPSpEnp8OHDuT/l8ZzH9ii8jrp4ZixvvPFG7O7zTN/pT3Wf+hzkGwUUUEABBRRQoIcEyL66fPlyD43YoSqgwFgIvPvd704zZ85Mv/Zrv5b++I//OP3iL/5i2rx5c/rbv/3bsehOR7Rp0LMjLpOdVECBdhb45V/+5fToo4/mLhJsfOSRRyrdJSDJFPgoJ06cyP9QlUFH9q1cuTKxj8Lxn/zkJyvnsX3Lli05EFkGNvPBPzieqee1yve+97081Z1+lYV+URdBzNWrV5e78lgefvjhPtt4w/GscUN/tm3blmbMmNHvGDcooIACCiiggAK9JnDzzTen8+fP99qwHa8CCoyxwC/8wi+k9evXpyeffDJ985vfHOPetGfzBj3b87rYKwUU6CCBjRs3pqtXr6ZTp06lW2+9Nf+nl0xJAoqs/bJo0aJ04cKFfAzrf1KYjlBmU0YdO3fuzPv/67/+K58TdZ49ezaRUcp7ApgcR5tsI2BKfRSCn7QXbd52221p+/bt+djy+JdffjnXn0+69ke0zzE8+MezLBz/m7/5m5W222kN07KfvlZAAQUUUEABBUZbgPX1ypk8o92+7bVegASFWrOf6m1vfQ+sUYHmBG655Zb02c9+Nn3lK19p7oQeO8qgZ49dcIergAKtFyCwSGE6Od/0Rzl69GjOirzrrrsqNwCaM2dODlJGEDOOjTqmTZuWNxFU5CZE1XVyHuXOO+/MU9InTJiQMzOrg5j5oKo/yO6M42PX1KlT07x583JWaUxxr5U1Snbnc889l0+LPkYdPiuggAIKKKCAAr0scNNNN+U1AI8cOdLLDF01dv4vTuIAayZaFGh3gZ/7uZ9L3FDtH/7hH9q9q6PeP4Oeo05ugwoo0CsCoxkcJChJNml1IZuUb6lZg3Pp0qWVzNA4jv/I8R86ziU7lEJAtdY320zjJ5O1Oks16vJZAQUUUEABBRToVYGPfvSj6ZlnnunV4Y/4uOP/tPHlfJlxybb48r78P2y5vVwDf/ny5emBBx6ouRZ/DKSsP9a0p40DBw7EIT4r0FYCH/7whxNJN5a+AgY9+3r4TgEFFGiZAFmaESRkPUzKsWPHcmYmAVGyLgdbIpAa09tjOjrPtaacnzt3LpF1QDYnWZ1Mh49s0bJtskr37dtXCYpyDudGISDKWjHctZD1SxmHRQEFFFBAAQUUUOD/BH72Z382/diP/Vj60pe+JMkoCrz66qtp7969eQko/p9L4f+pBC0PHjyY/2/LdtZcZRvl0qVL+f/o/N+X/wM3KgRbWVt/7dq1eQmoRse6T4GxFPjJn/zJ9O1vf3ssu9CWbRv0bMvLYqcUUKAbBLjRD0HCuJM63w4vWLAgD40p70OZLsPd+ghAxvT2Wt9q00C0+Vd/9Ve5PQKVBFkJxJY3NeI/f1EHzzH9PYKk+eTiD7JFI5BbrklaHOJLBRRQQAEFFFCgJwXIMnzttdfSn/7pn6bvfOc7PWkw2oNmaYFZs2blG4WuWbMmByhJBOBL/vj/b/z/tszSjESCgfr77//+7+nFF19Mc+fOzYfGklQDned+BUZbYPLkyYkvAd58883Rbrqt2zPo2daXx84poECnC3BDIG4SFIWAITcjqpWVGcc0eubbaKbqxFR0juX1Qw89lIOo7CegGuU973lP/mY63tMXbqbEdHimP9CPuLlSHFPWF9vimUAu33Sb7RkiPiuggAIKKKCAAm8L/M7v/E768R//8fR7v/d76Qtf+ELONiTL8Hvf+97bB/mqpQL8fzuyPAlwxhT4gW7U2dJOWJkCbSBwww03pO9+97tt0JP26cK4a1Mir7ZPd+yJAgqMpQCZfv5KGMsrYNvdKODfq268qo5JAQUUGD2BO+64Iy8xM3otDr+lTuzz8Efdtwayrf7+7/8+/fM//3P6t3/7t0oGlv/X7uvU7DuWWYp1OQly8ppgcrwmAYAv/9k+ffr0RCbn6tWr01NPPZWXeCILdOHChXkdzxUrVuTzGiUhMBuKdez/6I/+KAewOZfzol2mvHPHbEt/gR/+4R9O119/fSL54v3vf3/6mZ/5mXxN+h/pllYLfO5zn0u//du/nT74wQ+2uuqOre+6ju25HVdAAQUUUEABBRRQQAEFFFCgDQXe+c53pl/6pV/Kj+je//7v/6Yf+qEfirc+D1KAqeUsFbVhw4bKTCqmtzPLiSWcKCtXrkz3339/ngHF7CSWhqKQ9UnQMtbZzxub+IPlqAiYLlu2LC8vVc7gIhBr6S/w1ltvpcuXL6eXXnopnTx5Mm3dujUHnjF873vf2/8Et7RM4F3veldimrvlbQEzPd+28JUCPS9gRlrP/wgIMAIC/r0aAVSrVEABBXpIoBOzJjuxzz30I+VQFRh1gb/5m7/JWbf33Xdf+tCHPjTq7fdKg/j+/u//fvrRH/3RXhnygON0Tc8BiTxAAQUUUEABBRRQQAEFFFBAAQW6SaD6hp58Uc1j9uzZ6fTp09001DEfy8c+9rFEQI6sTzJALQqMloBBz9GSth0FFFBAAQUUUEABBRRQQAEFFGgLAdb0ZI3V6sfx48cTN++0tFaADE+muLPOqkWB0RIw6Dla0rajgAIKKKCAAgoooIACCiiggAIK9KgAGZ/nzp1LZ86c6VEBhz3aAgY9R1vc9hRQQAEFFFBAAQUUUEABBRRQQIEeFPjwhz+cvv71r/fgyEd+yGQts0SD5W0Bg55vW/hKAQUUUEABBRRQQAEFFFBAAQUUUGCEBGbNmpW+/e1vj1DtVqtAXwGDnn09fKeAAgoooIACCiiggAIKKKCAAgooMAIC733ve9N3vvOdEajZKhXoL2DQs7+JWxRQQAEFFFBAAQUUUEABBRRQQAEFWixwww03pO9+97strtXqFKgtcF3tzW5VQIFeFHjsscfS448/3otDd8wKjJgAf68OHz6cuEOoRQEFFFBAAQUUUECBXhZ4xzvekb7//e/3MsGIjd01PfvTGvTsb+IWBXpW4Dd+4zcSvygtCijQOgEWE/fvVes8rUkBBRRQQAEFFFBAAQVqC/i5o6+L09v7evhOAQUUUEABBRRQQAEFFFBAAQUUUECBjhLwzu39L5dBz/4mblFAAQUUUEABBRRQQAEFFFBAAQUUUECBDhYw6NnBF8+uK6CAAgoooIACCiiggAIKKKCAAgoo4Jqe/X8GDHr2N3GLAgoooIACCiiggAIKKKCAAgoooIACCnSwgEHPDr54dl0BBRRQQAEFFFBAAQUUUEABBRRQQAEF+gsY9Oxv4hYFFFBAAQUUUEABBRRQQAEFFFBAAQUU6GABg54dfPHsugIKKKCAAgoooIACCiiggAIKKKCAAq7p2f9nwKBnfxO3KKCAAgoooIACCiiggAIKKKCAAgoooEAHCxj07OCLZ9cVUEABBRRQQAEFFFBAAQUUUEABBRRQoL+AQc/+Jm5RQAEFFFBAAQUUUEABBRRQQAEFFFBAgQ4WMOjZwRfPriuggAIKKKCAAgoooIACCiiggAIKKOCanv1/Bgx69jdxiwIKKKCAAgoooIACCiiggAIKKKCAAh0jMG7cuETg0/K2gEHPty18pYACTQjs2rUrrVq1Kr3xxhtNHN26QzZt2pR4NFPoYxx78eLFtHjx4nT48OFmTu2IY0ZyTLjhR4l2+MeTR7Uh72Pf7Nmz0+nTp/v4DbSfduJ8rhHtRbv8jMX7PpX6RgEFFFBAAQUUUEABBRRQQIEmBAx6NoHkIQooMPYC69evTzwGWyZOnJj27duX5s+fP9hTe+74CGquWLEiBxx5vuuuu/K3hadOnUobN26sBDYJcPKe7XybuG3btnTfffdVApUD7aetHTt2pAsXLuTzaWfdunU5mM414/0jjzzSc9fAASuggAIKKKCAAgoooIACCrRGwKBnaxytRYGuFSiz/cjmO3HiRJ+xlvvJ2osMSw5qtI/9ZaZfmSnI9i1btuQMzcgwpN6om+fHHnssZ5yyv/rcO++8M23YsCHvP3/+fL9Mz7Ld6gzD5cuX57rrZSDWyxolyLdo0aJKUDDGT32RAUm/o16eYzwcG2NiLDGegfwOHDhQqa8cB/WVWZa0Ve6v5Uvm7jPPPJOWLl3K6TmYyTPnUaZOnZpuueWWdPTo0fx+9+7dacGCBWnGjBn5/Zw5c9K0adMq5zXaT1sEPAlsEuCk0M7ly5fTuXPnKvVx7SIQmzf6hwIKKKCAAgoooIACCiigQE0B1/Tsz2LQs7+JWxRQ4AcCBN3KbL+nnnoqPffccxWf2E8GJr9gr1y5kghUEVQjsEXmXmQKlvuooDrTrzpT8Iknnkhbt27N9dbK0ly5cmWlbs5dtmxZDi7S3507d+YsxO3bt6d3vvOdlf7ygr5VZxhGZiP7L126lI4dO5bHQp8J5EXGYaOs0eqgIHWRBXnDDTfkgCFBTWyoE6tDhw7lwGwZ1Hv66afT888/n44fP57PaeRH/VFfdT+pc/Xq1ZUsTLIpKTEOXlf7MubXXnstt8t+zMmQjaAkwcgXX3wxzZ07N19b2p4+fTqH5jJ+/Pg0ZcqURCCWa99oP/09e/Zsto3zJ0yYkK0iqEp9CxcuzPXFMT4roIACCiiggAIKKKCAAgoo0KyAQc9mpTxOgR4UIGhHiWw/svrWrl1bkYhp4xGUJFC1Zs2atHfv3vTqq69WjuMF+whCEmCslelXHWSbN29eJQDXp6IfvGFqdbRLliHHR8Cs1vFsI0hLwJMgbQTzbr/99hx8YyxRCNTS3wi8EcCjz41KHHvw4MHKsQQACdyxjzYZP68pM2fOzJmhZZ2MJ/pFEJLAYNhzXvjFOfX6ST0ETiMLkzrDKs6t9qUtgpbRvzgusk3p76c+9alKnewnIFyWMgjK9kb7b7zxxjRp0qTK6bRL+2XhfAK49MGigAIKKKCAAgoooIACCiigwGAEDHoORstjFegxgcjGIwsvShnIOnPmTM5WLKdsExwjW5IMS4JyTDVnf3nzo1qZflF/s89lgC0CZvSnUYn1IwcKtjWqo9E+siDJhiQrkkDdyZMnc2ZkeU5MracP+/fvL3f1eV3Lvs8BTbxhWj1T5fFnun+jgl1pGscSMCUgTHYqx5RT8uOYkXrGiHYjU3Wk2rFeBRRQQAEFFFBAAQUUUECB7hMYctCzDHL4+v/ubKyDDmPxMzDWv5bIuCQwVT5iWjTZhWwnY/TIkSOJ4OloBs1G26ac4l5ObacfEeyMqfUE8lgDdCRKBDsJQDP1n2vAdapXYjp6vf2x/bbbbsuZl5HFS2C2LNVB50b7CYyXwcxafSDoedNNN5VN+FoBBRRQQAEFFFBAAQUUUKCGAJ/7iElY3hYYctCTKsogh6/7Bn300GM0fgbe/qs8Mq/I6iRwRWZmlDKQRWZgM1O/mWbNdGvWsWS68ptvvpmi7qh3sM9lgC0CZrUyFct6CaLxj8BAwbbynMG8JuOU6exMceemQDG1nf6xjfFHQHigesOntB/onNjPNP8lS5bk39HV09rjmPI5MmXLbQRpy+zcch9ZvExFr3UNCIxGffX2E/yO8UW9jJMbGZEtG4XrFAHW2OazAgoooIACCiiggAIKKKCAAs0IDCvo2UwDHqOAAp0rEHfkjvUuySDcvHlzZUCsN0kQlBvwRIlgGcEqgma8j8IalwThCJgx9Z2sx1ivkbqr734e59V63rNnT+Wu6NXrX9Y6nm1M1aZdsk2jXfrOGGLtzHrnNrudoB1ZrTgR2CsL7VAIgnKTokbT26vtOY9+N5spWwajuQYDTW8nYFwGKePaYkvBi7bxw5G7vBPE5bpR4hqQXUpptJ+gaPX152csbvqUK7j2B0FPgtQEqy0KKKCAAgoooIACCijQ+QLf+c538iDiufNH1B4j+J//+Z/03e9+N73wwgvt0aE26YVBzza5EHZDgXYUIDj10EMP5eAkwaf77rsvffrTn650leAXd1gnwMd+HmQ0btmyJU9L5qZG5T4Ccffff38+n+Anga/IviRYRmAubr5TaaTOC27EQ39okzuV0w/6QyHwSFCUwF11pmDcjT7aJfBKUDDOrdNc3kzgjzrLO65XH88Ud/pGADcCgDiWFmQ6konJHegJBNcq1faMs/SrdU5s4+ZMFNrhPIKZ3NG+0U2Bpl0L0JaB0ri22FIHXlwv/ChcJ64XY6x1DQbaX339uQ78rDHuKASJOa6ZaxPn+KyAAgoooIACCiiggALtK/D888/nzsVz+/a0s3r27LPP5g6TgGN5W2DctSm4V99+2/wrPuQO8dTmG/FIBRRoKNDqv4etrq9h54exM7IduSO6pTUCZJ8SmCWwSaBxrAv9+YM/+IP02c9+tulA+Fj3uV77nfL3ql7/3a6AAgooMLYCd9xxR3ryySfHthODbL0T+zzIIXq4AgoMQYCElHvvvbdy5p/92Z+5hn9FY+gv/vd//zcnAr311ls5IeV3f/d3E0ktlpTM9PSnQAEFFFAgZ1gS8KyXeTraREyXv/766zs+4DnabrangAIKKKCAAgoooEC7CpCN+Cu/8iu5ezxHdmK79rdT+oXjT//0T6frrrsufeQjH9G1uHAGPQsMXyqggAK9LBAZnuU6rGPhwTICTHe/5557xqJ521RAAQUUUEABBRRQQIEWC5DlWSvoWb0cWYub7frqyPLcu3dvJZhM0POb3/xmvm9F1w++iQEa9GwCqd0PiXUG407L3Fhk9uzZfe68zFp+MSV4OOOhDqZqNlrTcDj1e64CzQgwrd2p7c1IDf4YXGPdzsGf3ZozWMNz+/btruXZGk5rUUABBRRQQAEFFFBgzAUi4HnTTTflvvBstufwL8tf//Vf5/hPTGf/oR/6IV0LVoOeBUa3vOQGIsePH89BA24KQoBywYIFLRkeARHWco2MsJZUaiUKKKCAAgoooIACCiiggAIKKNCVAtVZnjHICHqa7Rkig3vmju0RTOZMYjUkqeFKtue//du/Da7CLjzaoOcYXFSmjvKDGI/I0KQrsS+ml3IzD/Zzx2gyOqNExiV1HDp0KDbn5zLTk/X5IuDJnZbLegiGRh94jjapJOpYvnx54hH7o93I9Kx+X511Gm088MADeRzUE32IfVF3n0H4RgEFFFBAAQUUUEABBRRQQAEFOl4gAnOR5RkDMtszJIb2jCtref7Yj/1YnwpY25PAJ1mgvV6u63WA0R4/gb4777yzT7OPPvpoWrhwYdNTSglOEsCM8olPfCK/XLlyZWwa8Jl+RDA0DqZfZ86c6TNt+Ktf/Wrefeutt6a5c+fm/XH8YJ43b95cOXz//v2JOzq+8sorlW3sp36yVC0KKKCAAgoooIACCiiggAIKKNC8AMlE7Vh++Id/OM2cOTP967/+a+LGqZQPfvCDObGK18xO/Ymf+In0mc98Jn3/+99nk6UJAa43ri+//HK+czun4HrzzTenN998M73jHe/IAdHPf/7z+X0TVY76IWSmjnQx03OkhavqZ1o4FzYekaVJsLGZEjf44FjOpZ6oo9b5P//zP1/Zv3HjxrRv3740YcKEfJOQso4LFy6kRYsWpT179uQsz6iLYOepU6fydPnhBCSpmzaoizqfe+65tG3btnTlypVEsPbEiRN5f7TrswIKKKCAAgoooIACCiiggAIKNC8QcYZ2ev7v//7vPNWaz/7Rr29961uV12xnKjbHxX6f344Z1bN466230smTJxNLA8QxuDJbmPfc4Ogb3/hG5X0c0y7Pzf9UD+9Ig57D8xvy2TF9vDrbcqAKCRwSySdQOGfOnHw40X2Cis2Wc+fOpSNHjvSpgxuH8K1LdfBx3rx5aerUqc1WXfc4gr20MWnSpPzNA/2l33yrM2XKlLrnuUMBBRRQQAEFFFBAAQUUUEABBRRQQIHBChj0HKzYMI+PdSx3796dsycbZWnSFN96nD17dpit9j09Ao99t7bmXQRlW1ObtSiggAIKKKCAAgoooIACCiiggAIKKDB4AYOegzcb1hncWIhy22235ed6Ac2Y7s50cNbAjBIBS9YBPXbsWN7MlPXymDi23jPT26dNm5bKOmLaPFPPaWOwJcZx9OjRnC062PM9XgEFFFBAAQUUUEABBRRQQAEFFFBAgVYJGPRsleQg62FaOwvPVt/UiGAkhRsVsb96+ntMQ+eYenWwr1ahztmzZyemt8cCwlEHgU4Cp0uWLBnUzYSmT5+em2IctcZTqx9uU0ABBRRQQAEFFFBAAQUUUEABBRRQYCQFDHqOpG6Nuu+5557K+ptkVbKwLOtzMu2dbEvWvuSGQ1HIxqy+K/uKFSv6HPOnf/qnlTrjvPKZtT+r66Cd6qn1O3fu7HPn9rKOeq9vv/32PnX/5V/+ZcO+1KvH7Z0pwM/s8uXLKze/qn4/nFFt2rQp8WiHsmvXrrbpS7Me9HnVqlV54epmz2nmONYj5ppzrSlcI77wiAdfrHBMFPoR+xYvXlw5j/0ssk0fY3/19aYNzon91BWF1+X72O6zAgoooIACCiiggAIKKKCAAgiMu3bnpiHdI54PoUM8VXkFFGiRQKv/Hg62PoJS9957b3rwwQdzhnD1++EMMwJg69evH041LTmX4BpLTrRDX5odEH0+ePBg2rJlS75hWLPnNTqOIOUf/MEfpM9+9rOV671u3br00EMP5RuVVZ/LlzlcR/pClnp1n8prTN1r1qxJCxcuTHyxU/2eny22cw340qa6L9Vtt9P7wf69aqe+2xcFFFBAgbEXuOOOO9KTTz459h0ZRA86sc+DGJ6HKtCWAv6fsy0vy5A6xWefRp+zhlRpm500Wj+vZnq22YW3Owq0mwBZe2Tv8UuJR2TyRRDqq1/9apo5c2Z69tlnc1Aq3hPwohDYinN5jkBXjLPcX50JeP78+T6ZflFn1PvYY49VMgWjX2V9BNmi0N8ya7DsB8c98MADlbroZ5zLM8s3sDxEZE5Wm8SxtMXrOC7ajmfaLNuN42Nbdb0xJo5jH33kUTrSXviWx3PO5cuX02c+85nK/rKfBA3LLMtyzFixj4Ap22M8rCN8/fXXV5bA4MZl7373uxPrBFcX6t+xY0deSoOAJwV/+sQSG4yHbPOlS5fmfePHj8/HEqjlXNpirWDOocTSHrEuMsd//OMfz33keIsCCiiggAIKKKCAAgoo0OkC8Tk77pvS6eMZ6/4b9BzrK2D7CrSxAIGpZcuWpW3btuXM7itXrqR58+blQBOBLoJon/zkJxM33PqVX/mVPu/JxiOYR+CS88gMJ8hF8DCCl5xf7metWb7RiiDWkSNH0tatW/O5LL9AffwjEOWRRx7J2YHUzXq0BF9ZZzbaIujG8fEPB1mC7KM/tFsGATdv3pyDbnEu7xk/2YW0zbIT27dvz+fed999FRMCf7QTY+J4jiMoV124gRnHxRgYJ0E+tjeyDo/nnnsusSwGfWQs1EXb9IFtXCf6FvUTgCYTt3pM1EdW5ZQpU/I+9jPGGDP95h/Z119/Pe9nPBTaipuw8Z52CWDys0BwtAy6Ykwd036wTjHHc9wNN9yQuOEZ53JOeeM0Xr/44ou5zji3DKhSV+nH9Y4gKvVbFFBAAQUUUEABBRRQYGwE+KzG/+/jcxGfSUhgiAQKesU+jolHuY/9fCbiM0XsLz+v8ZrtJIFwTHz2GKhO6q1Xos5oh89J9Il+x2eqgepv1OfYx/JgPOh/tFWrT7TJ50nut8KDz0d8FuO8SJThvOhTbAt7koLCrxwD50Rfatmyv1uLQc9uvbKOS4EWCMyYMSMdP348TyemOgJ5TD9uthCYKwOABKkWLVqUT+cXOkE0Ap0RIKwOGJY31po7d24OwBEsi1LuJxhH3ZEZSFs33nhjDq7t27cvj4FALIX2CPrt3bu38o8Z696y/i2Fc2+++eZ8bt7Q4A8yEKP+BoflXdRLIUhMIWBI0I7tzVhPnjw54UDhH+Twi0xKxkdf4n29MTF+rgvXJwr1Un9ZygAnQUz6WgYpCUz+13/9V3aKoCtBcv5BpeBfHk+7BFqjTLsWxCyDmhx70003xe58bPxssJH91BmlDKLGNp8VUEABBRToNgH+v2NRQAEFOl2AzwirV6/uMwzuYfLwww/nbezns8SJEycqxzDjjgBfWUjU4BiScd58882GdZbnDeV1q/pMMgoPElji81yz/Zk6dWr+nItDBGJj9lv5eY36+PwXfgRNI6GoWdtm+9RJxxn07KSrZV8VGCMBfrkSTORbIf7hGWyJb9AIWvHLlxLZiWVQbLD1Vh9fHUSL/azHSYZpfKvFM4HGS5cuxSFNP8c06wULFvT7xm2gSjiXwGT8I0XG46xZsypBSs5v1rpWJuVA7dfaH98K4vHKK6/UOiRvi2Bzeb0IUpdBVsbGB7Pdu3fXraeVOyKIyvW1KKCAAgoo0I0Cb731Vvra177WjUNzTAoo0KMCzKAjYSIekYjBZyMCdswOZB+fP0hqIdEjZr5BRmCPz0Ikcbzzne/MivXqbBVxvfqb7TPBThJfSCgi2aVe4fMin50ZNw8MmFHJ56yXX345v+fzIgFQ9kdSTdQX/Qw7Zk6SaNNsP6Oebno26NlNV9OxKNBigQjAEegiI5N/fJgG3WyJYCf/UPGLN375Nnt+K4+LfwDiH1eey4DdYNoi2Mf5MV2fIGqjaQpl3Xwbxz9SL730UmVqO/uHa1220czrCHbG8gL8I1yd6VnWw7VrJkjM8gJROJ7zovCfFdqLQqYo/2GJwrGvvvpqvM3Hlv/BqdWHsr3Kib5QQAEFFFCgSwSYZcF62hYFFFCg0wXIWCQ7s0xGKT9DRSJDJJdEwkz1ZwZmHsZssIHqHK7ZQPU322fGTV1DLXyGJCBM8JLPRARACYTGDD/qJbAa90uIRB3O4fhm+znU/rXzeQY92/nq2DcFxliAQBjZkwSmCPQNphCsYr1KAoO1gov8I0awkF/CI10IjBFsKwNorWiTf2giEBw34Bmo3vg2jhs/xdR2zhmsNVO7uTb8J2CwhQDryZMnc5vl8gON6uF6lVPLsWS9m/I/KpzPP6h41+ofP0eMmSkd1Iddef15fcstt+T/EMTYyqAoY63+xz3+AW/Ud/cpoIACCijQqQJ8Sfqe97ynU7tvvxVQoIcF+L89wbkoBCr57MF2shQpzCKsXtczjo/nyHCM9+XzUOss6yhf89mj/Hw11Pob9blsr9nXfIbEjM+cf/d3f5cDoNVT2yPA2WydHNfqfg6m7dE61qDnaEnbjgIdKsAv/Qg8kaE42Ont8Y8GQTLWFInp7fHtUzldgfqrF1xuBRt10o+nn366Uh3BuoH+ga0cXLyIjEz6SongbvmNY3F4v5eMm8Ad0zK4qU+5puVgrPkHmOxb/OgThbVa+MeQ54FKmYXJ+dwAqdH0doKUlAhS0j5jLtvHJK5hrf4R/GbMfMvJtA6+xY2p8DhSVziyviqBT86h0Ef2l/+4cw7BbLM9M5F/KKCAAgp0oQBfUr7//e/vwpE5JAUU6FaB+PwXU6qrx8nnIf6Pz2dMPhPFFOz4P31MbydBgsdAU8Kpv16d1W3Xex+JFCSixOfV8th69Q+nz2X9A72Oz5CsgYpZrant1BHLqMVnJ7I/+Rw3Wv0caBxjsd+g51io26YCHSJAcI4HvyjJyiToxB3E4x8mfvmyJiXfPBFELN8TYORmQSw0zbkE91jvkV/S8cuY7FFubMM+jmFha+7WTj2tLNRHvdEX2uJbsi1btlSmRjRqj8zEPXv2VG6SxLozMe2CvjOGyIRtJpgagbsI8NH2QNa1+sc5BD7j+nAdmC7SaJ0Y6sGjHMNHPvKR/J6bN/Gfk//P3tkHW1nd+32Zmol6gxSkRatygWZUaDIgMr341umQqXjbVKPMgIDGTrxVBBuGBuy0XLkWJW3EuV690SiOf1gVhRlM9Nr4ckcyLWrojS8YU9DkXjWIg7QqQXxp5uZK+azkt/Och7332fucfc7ZL58185znba3f+q3Ps/fZz/N9fmutaol2IliG6Eke2lysv3z9yv7x+Vm7dm2F+YoVK7JoGZ+PIkdEU/JShvO0kbqwGYkbpYgcjWOuJSCB7iXA/9eYpbQVreSBgJdi8RKrFTZHwkYtLrWOD6ePsK32grHW8eH0rVPqeu6559IZZ5zRKe7qpwQk0MMEQlgjSIb793KwDP/7OR4LzxeIeNH1m2cuRLp4zop89X77+7PZ3+WYeCjIghRd7qm7mPqzPxCfi/brbSO+8gzE7zkpniHZ5pmo2jNztINylB8MW+rpinRIOR9QOtT4AZWzkAQk0DoCrf4ettpe61qqpXYgcOit68FDovXBQ2JjO7hzEH8OjdXaFr7Uc8LvVT06npNA4wT4vrfyO3/oJc7BQ5ES+X9J4150Ts5DY3C3lFcrW95uvyetbFsrbR0aCufgoVmNW2ly2GwtWLBg2OqyIglI4DcERvqek2cEnhXwg+X73/9+/p0tPj/w/z/Os+Z3mN/jSIciLQ8eEj4reYpl+V2jDOti6s9mMW+1be4twqdDImxuQ9Gv/uzX8znOFdtRzYfysWhrsb1x38IxfCqmaAP+B79iG8gbvkRbm/WpWF8rtvFjONIRVHKosqbT3Xff3XQZC0hAAq0nQKRlMfptMDXwNm2A/xIGU61lO4QA3cn/5E/+JF1xxRX9RpMOdZPayZf+2ur3qj9CnpdA/wSItIjoi0M3+rmHAdHmRDEQFbJx48b8f4n/DfQyIHKEdOiGPkf1sx3HIz9RENjgN5TIiDhOtDxRoGX7DM2BDaLSif6POrFdTFGWiHpsE6FBtzn22Y7Il/CNyPbi8UMPLjkvbf7Od76TTfNbT/lqqWg/ONGW8847L0+AQzmiZIgQYegQ2kBPA9pHfiLq6flAD41GfaON11xzTTr55JPTT37yk+x/tYiTon1mj50/f34eh4w2MjxJoz0uqrW724+99NJLuZfKjTfemE466aSOa+7ChQvThg0bOs5vHZZAJxPwnrOTr17/vsf9BTn57S/+7vI7z70M90it0gb692hwOYbr83rkQN288sorFUcGCs9yEmgRgeH6R9EidzXT4QR4MEfwvP766/ODePGHdribxsM5D/X9deUfbr+sTwISGBoC3MAjlJFCuEPMY0wwhDXEMxYeCP74j/84T5QQwhxiWwzdwbAYL774Ys5bFBF54ccDA+MMM/QGY1CX7X/rW9+qNI7xxZpN+PPYY4/lSeRCQMUXEkOu4BsJUZI2kXbu3FlTXM0ZCn+wTxt44AlGMet3tBVRuFp6//33m/KN4VQYG/orX/lKuummm6qZ7HOMerk+K1euzGIrfppqE3j88cfzdWe87U4UPGu3zDMSkIAEJDBQAociNfPLXu6HRvI5bKD+j1Q5x/QcKfLWKwEJSKADCSAyPvjggyP+Q0uEEotJAhLoPQKIg0ySEGN+sY6xphGIeBBgHEkiORENSURaxjjKCKjMHnvUUUflczFGVoxFVsv+W2+9lfNHvrzTxB/8inGwETYRAfGFthCZythmMb5ZjH3NWMu0o5HEwxAJQZKXVLS30TR27NimfcN2jIXWXz2we+ONNxJjn5GCeX/leuH8p59+mgXkV155pSJ0MnkREZ6nn356LyCwjRKQgASGhAAvEAkSqrWMxAs4JpydPn16TZ+qjYPNi0OOc79zqMt6WrJkyZDw6lajA4707FYgtksCEpCABCQgAQk0QgAh7YUXXkg/+9nP0p49e9KBAwfSBRdckLs+N1LePI0TKHeTHTNmTI6YLEd784DDQwHRjkyGRhfsgaRq9mtFSTZjn4hLIkkRPRE4D43ZlYtHl/airYj2LB4byu1mfCOqtFWJbtC9nD772c/mYQhOOOGEPEs70Z0DFdZ7maNtl4AEJFAmwIvFdhu6jfuWZnuL8CKTl7UstRK/4dGro1aeXj2u6NmrV952S0ACEpCABCQwIAK7d+/OEVl0mz7rrLOy0EmE4ejRo9NnPvOZNHfu3AHZtVBjBBALYU1XdG7wEQeJ1mB8KxJjZdK9m67jEemJiEQX8osvvjgfJ/+f//mfV62wlv177rmnav7yQcoTAUkEJ35QL+OAIhTSbR4xlgcXjpHIu27dujRv3rwU3d6J0uR4M4kITxIRn8V6izZ4cKJeBHtSRJTSvR0mjfrGrPfNJMb+nDRpUh5mgAe+qBcbZUG7GbudnvfXv/51OvJIH8c6/TrqvwQkIAEJtC8Bu7e377XRMwlIQAISkIAE2owAk4swZiTdlG+99dY8McuXvvSlRGQggqdp6AggXDJIP2Im4lx0W1u6dGm+FnQfR/hDbER4fOSRR9KsWbPSodlO83AYiH0cJxIUsZQu3dUSwmA1+7Xyl21E13ImBTrzzDPTsccem7Pg32WXXZa7q9PVjol8EGGJRGGsS3zHP/wcyPAd2KddtK9YL5UjaEbkKF3L4YgPkWjbUPoGE6JbEXeL9Ub9vbpW8OzVK2+7JSABCUhguAgMePZ2bljaLVR4uKBZjwTahUCrv4etttcunPRDAiNJwO/VSNJvbd1EeCJ40v3UsfZay1ZrEpBAdxFw9vbuup62pjMIeM/ZGddJL39DYLg+r4Yk+ImTgAQkIAEJSEACDRDYuHFjjuxU8GwAVpdniUkFuGEvL0RVtjpFVGu5LiZDYFKEkUzt7NtIcrFuCUhAAhKQgARGnoCRniN/DfRAAgMm0Oq3I622N+CGWVACXUTA71V3XEzGQKQ7O4tJAhKQgATqEzDSsz4fz0pgKAh4zzkUVLU5VASG6/NqpOdQXUHtSkACEpCABCTQNQSYpZ1Ji0wSkIAEJCABCUhAAhKQQGcQcLrAzrhOeikBCUhAAhKQwAgS+NnPfpZnaR9BF6xaAhKQgAQkIAEJ1CSwfv36dPfdd9c87wkJtBMBPq8MkcOEjkOZFD2Hkq62JSCBniMQY7kxg245vffee3lGXs7198+92bzXXHNNuv7669Opp55artZ9CUigBQT27NmTTjrppBZY0oQEJCABCUhAAhJoPYErr7zSyaZbj1WLQ0RguLq3K3oO0QXUrAQkIIEygeOOOy498cQT5cNV95vJW9WAByUggZYSOHDgQBo9enRLbWpMAhKQgAQkIAEJSEACEhg6Ao7pOXRstSyBjidAtOGCBQvSI488kpghlrcxixcvTrt3707nn39+3i/PHFuexZV82GFhOyIhgUPecvla0JidNnzAjwceeKBPVuxynCXqjAzkrXYOn2jPLbfcks+zzYy84WuUKftcth/1xPrtt9+uyifs0m5SefZfQvznzJmTZ+It5mWb68D58Cl84NyiRYvSQw89lE477bTMNPxwLQEJtIbAr3/96/S3f/u36TOf8bapNUS1IgEJSEACEpCABCQggaEn0LZ378UHfjAgOoTwgGAQ4sRAECGehLAwkPKWaS0BBKnBXM9a3nCdEYr4LJGKwle5vrL4FJ81ymHn2muvzQIV+72W9u3blx5//PH0ox/9KL377rvpzTffTF/5ylfyDMYHDx5Mc+fOTZs2bcpY+G4uXbo0vfrqq7lrBflJd9xxRyJykVmPn3nmmYqoB+fbb7+93y7ZXMNly5blvNSJ3fvuu68i8HFtERo//vjjXO9ll12WVq1ala8Z58hLGcpyDpEwPhe058MPP8zn7rzzzmyD83RBJz82sY0dEt3SidakPbXSXXfdVSlP++bPn5/bXM5/880350PUwfLiiy+mvXv3lrPlfa4D5yPvxIkTK1zx7ZJLLsnc++s2X9W4ByUggboEjjzSjjF1AXlSAhKQgAQkIAEJSEACbUigbUXPMisEiGpj5JXzNbLPmHdPPvlkv0JLI7bM054EEDHvueeePMYh4lRZ+DrxxBNTCE60gG2OVRO5+LxMmzYtPfzww+3Z2GHwCqHw6KOPzkIfohpCZ4wdOXv27CwKwpxz27dvr5yDfVGEo8w555yTIyu//e1v53PF8402BbsIj5RFvETUDB+xgWgZAibn+N8RIuXFF1+cEAyL3cxpQ6SwG37R7uXLl6fHHnusIpRG3lrrNWvWVNo9Y8aMNGvWrPT888/3yY7fO3bsyLapg4U21EvRRvKee+65Fe71ynhOAhKQgAQkIAEJSEACEpCABCTQiwRaKnqWu58Wu61Wi64sRm8CH2Equm4SpVVMkZdIMkQTIqkuuuiiighRLBvdPqM8ZekWij8siBoR6YnwQP7obkoZbEUkYEQL0r03fMNesa3l+qLeamvK0pWWMmGvWHfRLufLDKOrcZTtzxdsR17WxbqK7Sz7il2WYiJ/HOvPTyIjWagzyhSvUbFd1LF///709a9/veIreSOVozCxGee5flyrcvdkIuJGjRqVxTfKb926NQtKIXwhcsGC8rSF6MN58+blKkN8ogxlSVwvRC/ymlKaPHlyXQzFz8fq1av75F2yZEmOFv3JT36S2G4kcd0Q/PjuFz9TlI0IznHjxh1mqto5ri8Cd630+uuvJ3ymnljoNk6kZaOpyCfqw24x4Rup6Dfb48ePL2ZzWwISkIAEJCABCUhAAhKQgAQkIIEBEGiZ6InIQRdOunJGtBzRTYhRIRzV8w8Rq9gFFVGCaMxyIvoKgeqqq65K3/ve93L0Vrks4kix+yo2iNJ7+umncxTapEmTymbr7u/cuTMh0NAuuu1u3rw5d7XFHl1NJ5aixuoaO3Ty3nvvrXQNvv/++7MoGOJbfwyb8QVRD8ExhB98JwIthLuIhkOUKaeiKMi5EA453si1fuqpp3J0JMyIssOX4vXlc0J3ZdpNYjxCZp8mP9d33bp1uR7qJcouojA5D7M4T9ly92SOUVdE79E+ov5ob6QtW7bkSDzENPggbpXFpzfeeCPt2rUrFyHf1KlTD4vWC3uuf0MgxE5EwvhfwGeuWnrnnXcy+2rnqh3j+sXnI0TJEL+r5R/MMXymruLCy5IQzQdj27ISkIAEJCABCUhAAhKQgAQkIAEJDD2BlomedFulW2uxSyjdLxtJIaghVoaoQAQY0Zj9JUSzRrqv4lfY7s9m+TyRVxEFOGHChNxVNXxFUKOd5Siuso3ifrFr8MyZM7OwgvDWCMNGfYFpmQv2v/a1r1XGXyz6VN5GtCIhlJIQ/4jG5HijftI2UvgSzDjG9SiKSIjYdAMmUcfxxx+fBbEQLItDG2C3HA0XAiflEaLxtShicpyESIbAiQhbjDJEuD7mmGN+k+nQX8qOHTu2ss8G0XvF6M8+J93JBOjCzecbsTD+F5TRML4n58jX6EuRog3KYh/xm+vx+c9/Pl/TiJws5uU6cr2L5/g8MkZnrcR15jz5BpqK/w+ivmL0J3bj81n0je1aY3oO1BfLSUACEpCABCQgAQlIQAISkIAEepFAy0TPgIcIGV23L7300jhcd41IRbQewlMkBKjifhwvrxEJEEBCQOA8Qlm97qtlGwPZb8S3gdilTLMMq/kSTKM7cHTTbfSaIBAjLhERSULMItKxKBw36mf4Us3PbLzBP0St0g5E0XrCUIhIxc9EVBHRgkyos3DhwkrUa5yvt8Z/Pqe0x1SbQFEwRGQudm9HbA7BObq5NzJWanzWKEtCSETw5IUD33UEdUT+ECrJx/8hEuf47GCDRH1cxzifDxb+cJzzRb9oRwx5Uchac5No8IiorlUf3yW+UyH84jttMElAAhKQgAQkIAEJSEACEpCABCQweAItEz1DlEBoQmSISKzBu9g7FoaCIV3FuRbFpRg1WY9udHHfvXt3FpgimnIo/KznR4idiGkIjkSfliM9i+URPfsbf5GIXYY5iMllELmKYiY23n///aLZLKyPGTOmzzF3+hJgkiASLy0QqIl4JCITEfJ//a//lWd2j4hfRD8+i8WhCvpa+91e5A0RH/uInTFkAWv2o15mkEfYphznqJP/TfiEsIiIyblqieOUxa94WYDAijjJC5UQVENErWbj8ssvz8M3UB474Us574oVK/Ih/GYh2nnKlCl9XuKUy1Tbx2cEVF4I0DaTBCQgAQlIQAISkIAEJCABCUig1wkc2SoACFETD0XCIRwhDDSTeNinLMJTdInFDvv9pRAyEKnodk2q1Z20P1sjfX4wDMu+V2NaztPfPgIK6Qc/+EGlazv7zfo5GF8Qlpjhmjrj+uJDvcRnoihOYgPhC4EtPl/F8uRHFOYzFEIY24iiiKORONafmBp5u2UND4YhKKayaA7TIlfGT2UpphAnGQKjmChXPlY8X9wmL9epVsKvsm+Rl/rDhzjGulr7OB5DOLBdTvhRZlLMEz4wFm05leuL4RuCF9GhP/zhD3Oxct5yneU21Wt/2Q/3JSABCUhAAhKQgAQkIAEJSEAC3U6gZZGegEKkjGg5oqGKXalDnIzIOh7u6QJK4sGfSCwisCJ6inH/qk1klAsU/iAMULaZ7quF4jm6CsE1unFT/0h2Ma3HsOh3f9vBtBhFhxhMF91GI8Fgi8DDeJujR4/OrKLeZvwMX4rXl+vPmK3RBTjsVlsjNCI4krg+TIBUr3s7nzVSlInPCPVH9+dil2MELiIIN23alMtFN2O6TuN7JNrMZwUR1ySBwRLgs0xXev5XRuIzWB5GIs65loAEJCABCUhAAhKQgAQkIAEJSKBxAi0TPRHHWELcRGBiBu9t27blSXAQnohEQgilyyddRYsTyVC22AWVyUlqTWREBCIC1JlnnplFMyKeimWpu1731SIeRC0ishBg8QtbV199dTHLsG33x7BZR7C3cuXK3OWVtiHWIeRFxBuM+hunMLq0FwXAgfhZvr5cQ8Z67C96Mz430a35y1/+cv4cMdFRCOhlLrQTkTZET87T5mL35/JnhG7GdJ8PTsWu02GfrtpFDnHc9eAJxBAG8K+2NCrUD96T4bNQ/mzTblJEig6fJ9YkAQlIQAISkIAEJCABCUhAAhLoPgJHHOouWru/aJ328oA+wKJ1rHpKAq0hQPQcwmaMwzhYq0TlrVq1Kq1du7bSBX6wNltRvtXfw1bba0UbtSGBTifg96rTr+Bv/Gfyuw0bNnRHY2yFBCQggSEm4P/MIQaseQlUIdDO95w8TxOIRIAHAVHlRA/Qb3zjG+m2227rNzCqmbyt1gXKfrs/cALD9XltWaTnwJtqSQm0ngATwhx77LE5yrgV1hlPkShPovNMEmx0eEkAAEAASURBVJCABCQgAQlIQAISkIAEJCABCTRGgOdonqmrCZ6NWfhdLnqLMhRif71Gf1fCrV4moOjZoqsf42WiVtdaimP3tahazdQgwLAFV1xxRbr++usr48TWyNrvYd4kvfzyyylmJu+3gBkkIAEJSEACEpCABCQgAQlIQAIjSKDaHALlIe6Kw4wx3wBlIkX50DfIGwk79KqkDOf70zrCVjFfse577rknTOd5OOrNRcLzecwPwvaCBQuyL+FnDOFHXQyTd9ddd6WLLrqo0jaOR96y72VdZ/369ZW6cLB8PuriHL5ce+21ecFukRfnTSNDQNGzRdwR2ZiBmS7/tZZWvNVokbs9YYY3Pw8++OCgozOxc9NNN/WZ1KgnANpICUhAAhKQgAQkIAEJSEACEuhKAgiXzGvBZNRoGMyTwpBuCHuIlNEdnXPkIW9xroV777033Xrrrblss1oHgmDUje0PPvigMllxaCsxF0l/8Hfu3Jk+/PDD7AfzejD/CxMX49MzzzyTJ2b+3ve+l3UBBE/qJh/tevXVV9OaNWsqEyzffPPNuTp8YnnxxRcrfsGF+WDoARqaD3OBRBkKMq/NtGnT8nnnaujvyg3PeUXP4eFsLRKQgAQkIAEJSEACEpCABCQgAQlIoC0JIDISyIXoGF3RQ8zkGILfY489VomYnDVrVpowYULTbUFQRXxEZMVu2B4/fnzTtihAuXnz5uWydKPHZyYhLidES+b9QIyMYesIcPra176WNm3alNu1Y8eO3M7wCx8jIYCSij1AmZybMkR5kvBl5syZeds/7UFA0bM9roNeSEACEpCABCQgAQlIQAISkIAEJCCBYSFA13SiIo855pg0ffr0inBH5YiGq1ev7tMN/LTTTkv79u0btG8RZTlu3LiKLbbHjh1b2R+KDSI3aS9d3ovd2y+99NJcHX6Ryn6FGEtZusrDK8qTl0hTU/sSUPRs32ujZxKQgAQkIAEJSEACEpCABCQgAQlIoOUEYnIhxECiNhE1i+N60u07unHHmgjQiJJsuUPDZJAu79GeWDfaFf2qq66qDAcQZbdv3+6kSsN07QZSjaLnQKhZRgISkIAEJCABCUhAAhKQgAQkIAEJdDgBunLTrT0iHRnncvLkyXnMTbqEtzoRHUmkZNSHfbbff//9VlfVxx4RmhMnTszRnn1O/HYnIjzLfu3duzfniLKIxKbOIaDo2TnXSk8lIAEJSEACEpCABCQgAQlIQAISkEC/BELk27JlS87LWJqMaRmpPJM7YicpIj7pzs2EQJHK+eN4s2siRRkrE18QVVmYCT7ExWbtNZofcZd6161bV+nKT90xUzx+TZ06NfsSfhV5zZgxI4umd9xxR6VKxiYtRsdWTrjRNgQUPdvmUuiIBDqDQKt+7AbSWgaInjNnTuVHqp4NftQXLFjQUN56duIc7WamPxK2+XHjR244E/Xxo8yPsEkCEpCABCQgAQlIQAISkEAtAjFB0ObNm3NkJRMVXX311ZXsMSFPjFG5dOnSPBs74h8LM7MjEMb4lVu3bs2CIHYHm/CFmc+pmwVBMcbOLAqRg60HARfx9swzz8zPhUxytHLlyizs0i7qZjb2mCl+xYoVucqiX1OmTMnjfNLutWvX5mfAYMLzIc+J8DK1J4EjDo1DcHAgrnGRB1h0INVZRgISqEKg1d/DRuzxT72VP3hVmlXzEKLnN77xjXTbbbf1O24KwuQ111yTrr/++n7z1qywcIJ2M6B3o+O9FIq2bBPRk7eNvAltxc1GyxzTUF0CjXyv6hrwZFsQWLhwYdqwYUNb+KITEpCABNqdgP8z2/0K6V83EvCes/VXledPnie/853vKGy2GO9wfV6N9GzxhdOcBLqNQEQ18k+JWf1efvnlShOrRV7ytisiIsmIUEfZWJqNjsRWlL3nnnsqdbNB/fgU52PWQXzmbd1DDz2U3+JFnfV84VytrgkInszqxwyGRFq+/fbbfSI98XH9+vX5HL6EH0XfsRGpyJT8RV61zuEfMw0yY+BFF12Uo02xV6yjbKsZv6iXyNhHHnmkwtSo0rhiriUgAQlIQAISkIAEJCCBbiYQz2Hx7EhbN23alLu8G8nZuVde0bNzr52eS2DICfCPH/GQsU+I7N64cWN66qmnGq6XHwyENwaDpjzjxDALIGJlI4myCIwMFs3ywQcfVMZ6wcb8+fPT7bffnm3HrINEQdIdAZHxkksuyXXSjaE/X8hTazZCGNx///3Zdwb5Puqoow5zn7Fdli9fnn2ZO3duFlsZAJx2M0MgEZrwDKZEjHIOv2kj/tKVY9WqVRXexXP4hx1mDPze976X3zQW+UQ9CLPFH+pG/aJB+/btS9/97nfT008/nX2jywltsjv9YZfbAxKQgAQkIAEJSEACEpDAIQLRHT0CUaqti88n7QoNYZNnNAJNog34OpI9/dqVVSf5deRAnSWq6e677x5occtJQAItIMD3kB8QBLGhSDGYNRGQpFNPPTWPgUL39v4SP34IffxIxJsxyn/ta1/Lb8z6+/FAHKRt5Iuu3AhwdG8nYWv79u0VN8jDeCzVfBusL5VK6mwgdOITafbs2dn34MZYMmPGjMni7/PPP5+vV1wz/KZddJv45//8n+fy8YdziKy1Upkh9TDmaTE16lfMVli8XvPmzcu8d+3aVWlb0bbbEpCABCQgAQlIQAISkEBvE4hnlnrPLZ1CiGc0gklM3UNgwKLnlVde6Yehez4HtqRDCfAGaij/KTPo88SJE3PkZCBiv5qwGOdjTZQi5XlTVk5Ee/aXIjo0xDjysz127Ng+RSNy8sknn8zHiYQsp8H6UrbXyH6ZW5RhXFCiMVmKCbGSCFKiamFGd3ra0sj4ndH9PuyVxdA4zrqWX5xDmC3z5jPGtQhBl3wmCUhAAhKQgAQkIAEJSEACEpBAuxOwe3u7XyH9k0CHE6BLNsJscaknyjXaXMROIikR6aL7PV3Q66Wh8qVendXOIfoWebAdXevj7SJRttu2bcuCM93YqyXETkRJImoRJlnKkZ7VynlMAhKQgAQkIAEJSEACEpCABCTQ7QQUPbv9Cts+CQyCAFGBRGsSKRmJ/UYS42pG+Ubyl/MgZkaUYZxD1Hv//ffzLqIg9vGNMTfrpcH6Us92s+cY55MxPPsbJzO67yPU0s0fkbeYKE/ELedDMC2eH8g2Y3rCOBLbCLLF6M8451oCEpCABCQgAQlIQAISkIAEJNDOBBQ92/nq6JsERpjAjBkzsrCIqEZi8qB169ZVvAphknEq4/zmzZvzNmO7EIFJ/pi4CKGOGcGJUOwvMQ4o5YlipBwLXb337t1bKVoUZBEG6RJeLQ3Wl2o2B3qM6FT8fvjhhysm4AEXBN0yny1btuQxQGNc1Eqh326ECA0fJkGKbv7lfI3uB2/yM1shXe3t2t4oPfNJQAISkIAEJCABCUhAAhKQQLsQUPRslyuhHxJoQwKIhWvXrs3CI1GXy5YtS5dffnnF05jhDrGR84iSS5YsqZynq/bKlSvzTOacJ+KSyYb6i8wMA+RjBnHKsSDCjh8/Pp/GNksIr4h1zCxPl3Am3sG3qVOn5roRFfvzBdEUQbIcURm+zJw5MyHokieiTeNcM2v8uvXWW7MYDBMWIjZhx3ilTGqEUBzniApdsWJFroKJihA5zzzzzNzGYl74MGkR44AilA40BW/qL9Y9UHuWk4AEJCABCUhAAhKQgAQkIAEJjASBIw51XRzQ1FQ8EA+w6Ei00zol0JUEWv09bLW9roTepY2KCaEYbxWB2NQ6An6vWsdyJC0tXLgwbdiwYSRdsG4JSEACHUOAF8W8jDVJQALDR8B7zuFjbU2DJzBcn1cjPQd/rbQgAQlIQAISkIAEJCABCUhAAr8l8Oijj6ZPP/1UHhKQgAQkIIERJaDoOaL4rVwCvUkgxvbk7U6the7mJglIQAISkIAEJCCBziMwatSotH///s5zXI8lIAEJSKCrCCh6dtXltDES6AwCjBV655135iEyGCaj2mIX6+G9low1yoRVch9e7tYmAQlIQAIS6EYCJ5xwQtq9e3c3Ns02SUACAyAQQS/tENhyww03JJZqiSG/mMOhET+bzbtgwYLKBL/V6vbY0BA4cmjMalUCEpCABCQgAQlIQAISkIAEepHAKaecknbs2JG+9KUv9WLzbbMEJNDGBJjDoBUpgkZaYUsbQ0fASM+hY6tlCUhAAhKQgAQkIAEJSEACPUfgjDPOSM8991zPtdsGS6CdCFSLRHzggQfS4sWLE5GXJCIeY7gxIhwpEynKx/lidCR2brnllhwVyfl6kZHUtXz58nTXXXelc845J1G2HG0ZkaCco16iIh955JE0ffr07F/RZ/yr51v4X2tdrps6o42rVq3qU4xz5bojQ/hA28Pn9evXV2wFT84tWrQoPfTQQ+m0006rsIryUXeRL3WwH+eCdZFz0W84vfbaa9k17OIzZShfy/9oR7evFT27/QrbPglIQAISkIAEJCABCUhAAsNIYPLkyWnChAnp8ccfH8ZarUoCEmiGAKLZ22+/nT7++OM83Nhll12WEP0QIEOoIyqSocjIQ17KRLr33nvTrbfems/XGyKLoc0Q4K666qr0zDPPZAFw9uzZWfyjHtKuXbvyOMAIhaR9+/al7373u+npp5/O9k888cQsnDbqWzbSwB/ac99996V33323Us+TTz5ZKYlYybBstKG/hM8vvvhiZgWviRMnpjvuuCMREUo9l1xySXr11VfzcGL98SU/Amf49eGHH6aiX5zfunVr5drdfvvtadmyZfm64eebb76ZKMO1a9T//trXqecVPTv1yum3BCQgAQlIQAISkIAEJCCBNiUwf/78tHHjxvTSSy+1qYe6JQEJFAkUBb4Y6z/ETEQ/ojUfe+yxirA2a9as/HKjaKPRbSIeSYiApOeffz5NnTo1C4T5wKE/CK4IhqR58+alN954I4ujjfiWC/XzBwEV4RCxN+pZsmRJmjNnTj8la5/GFqxYzj333CwUU0851WsD4jJ+lds/bdq0bAbBlOvA9QgxluvEgt1ICMumlNpW9ORCFgeQLYYgo3gPJkSXsF8+yBH+O5wfhGI7yvU241d/eVH+G2XUTN7Bsi+32X0JSEACEpCABCQgAQlIoPsInHTSSTnyiEgwIz677/raos4ngN5CROAxxxyTu5EX9ZHXX389rV69utK9mm7SCJVEM7YiITIi0lE/ifqKIt2YMWPSuHHj8jn+sI0PRD62yjeiMamfiMxIsCjux/FWr+u1Ab/2799/WPuPP/747AYMdu7cma9HdH9nzfUyHU6gbUXPsquo3CytSKeeemoODWY93KmV7ajne/EtTb18nGsmb3+2PC8BCUhAAhKQgAQkIAEJSAACp59+errxxhvzpEZ0vSTy85VXXsnCyaefftq1kGoFitQ63rUgbFhbE0B4JDIQkY2oTUTNGIcSx9esWZO7R9NFOhbyR1TkYBuHyElE4+7du3NEZER/NmJ3qH1rxIfB5qnVhrFjx/Zrevz48TlKNq5LrNF2TH0JtHT2dt4M0I3h5ZdfzrUQfssPG+Ii577xjW+k2267Le+TIQZqDTGTiMNLL700l2W8h2KKvHwxGPyWhCpPGb50xbJEccZx8lGWDwXjKZD+63/9r3lMCXzhjQEfDHyI0G3K8uVj3AnGlrj++uvz+Atf/epXc3k+nIRXR1vL9eVMNf5EO6LN7Iciv3LlykopQqAJVyYkut4H95577knr1q2r+BV2i20g5Jkf2OAG22OPPTaNGjUqt7uY9+GHH87X74MPPsgDDWP4/vvvzz4UbRTZV5x2QwISkIAEJCABCUhAAhKQQIEAEZ/f/OY3c3TWCy+8kB599NG0Z8+edODAgXTBBRekzZs3F3IPzeaGDRuGxnANq9HVtMbpfHjhwoX1TlfO/eN//I9zt97f+73fS//wH/7DNGnSpMRzNpNFmSTQCgLoBYz7uHbt2vzcT5dzxuVFE0GXiC7UrairaAORk4jGH/zgB4kxO4tiKhGlRDRGoFqMbYl+0yrfIqoTbSO0oIj+LPo5FNv12oBfo0ePPqz977zzTnalGPUafIbCx26x2TLRMwRPBlDlAxOiHcIhS38J4S0GkOXDjhjI7F4h4kV5bDP4LXmxyxewXJZ9hELW8cVBzGMQXPaLYdtht96a0OGf/OQn+e1GtBMBEHt8IBEneeNRT5ysZp82xsDBnMfO3r17c9b4x1OtXBwjL+IkX0wS5bFZZobPS5cuzdzgF+Il4m21hIgKY/7xkZeyM2fOzNe1zL5aeY9JQAISkIAEJCABCUhAAhIoEuAhn6Wc5s6dWz7U8v14No2AEp5x4nmS58Ri4E3xGTOO89zEMxZDsF1zzTXp5JNPzs+HxefNotNF+wTRRLBM8fmrWSH2o48+ymLxz372s/Tf//t/z8FFsPuDP/iDYtVuS6BCIES9LVu25Gd5Pr987qP7Np/fCPZCf4jxNREjWcjL9yN0jmL+SiWD2ECbYRzPmOCobIr6Z8yYkTWfTZs25SAuRD5Ev3q+NSrSko8xONFQiHDFHwLlmDCorKmUfRvsPvXVawP/q/Ar/sfQ/gguxM/wO85zbblO+N1MxOxg29EJ5VvWvZ0P3/bt2ysKOR8gLlQjiR8hvmwDGUA2vrhcXC4+6eKLL85f5OIgroh9cb4Rn4p5iBIlspPELISEfoev0U7GZGgm4Tc/htjBBguiJXU1mshLmSiPLWxiu5gYFJgfRBiQ+MdRjqQt5ucceUh8YRg7gjcrpt4jwHeTsWH5XA028blcsGBBwy8d+CfPUi1hix+KRvzqLy8vBRod47eZvPjW6Li61droMQlIQAISkIAEJCCBoSXw/vvv5wlBEHsikITZl7mP4/mUYywEqsR9JxFoRFo20s2Xe2lEVHr00f10MIlIzy984QvpX/7Lf5l7ChIpSq9KRCmTBKoRCI2BaGrGfEQUu/rqqytZ0U1IiKOcJ9iJMXjRTVjYJiAqxo0sCqQVIw1u4Av6EL1Pi8949OTlWayaUEf0Z/jGd3DFihW5tlb6hkaCjhLRk5///Of7TGSEqNiKZzp8RuClnSFU1uPLtcK3ol/M/s4+qXye42hiofnkTP7JBFoW6Rk8ERi4AKjjpHriWpThh4SQYj5skeKtROzXWhfDnCMPXyi+IEOZ4u3IQOuo5jcf1EbGb4g6yRsfeo6xzY9pWaBEkC2+VR0OPuGjawkMlMBQv10Lv3hhE/+v4litdTN5a9nwuAQkIAEJSEACEpBAexDgeSqECJ5bi1Ge9DpkicTzZQgzjT4LvvXWW7lrOoEqJAQeortakaZPn567ujN0G11hv/zlL7fCrDa6jEAEpxWbdeGFF1Z26d3JUi1VKxv50HxYmkm1yiDUIQqWE9+XWs+E9Xwr2ynvl22W/YrvK+XK54q28LkYaFfcrlaWeot199eGYn50tr/6q78qVp9tFe3FybJfcbxX1y2L9IxoKoQ3xEvEN8aCNElAAp1JILoBcbPHGzneSJEi+jPe+JXffPHmLs7FQNjxMuShhx7KN4vxprwemXKkJ/WH3VWrVvUp2sgbOLp1RPmiz+XoTfa5iSQv/nPzG/mLedkmcpXzZbu0D2awu+iiiw6Lvu7jvDsSkIAEJCABCUhAAiNGANEgojwJvIl7Xrqix+QgrKuJCyPm9G8rRuz8t//23ya6yn/44Ycj7Y71S6BpAjyjIW6afkcgnrfjfxFnEFT5vtPz2NQcgZaJnnQJ4I0XPxjNKv4R1Um0Z6SI/oz9WmtEVgSHYnQjHxLCn9s5VfObNtDFotFE3mK72YYFtouJKM9i9/tO4FP03+2RIUBEMIIeb70Zy5XvNZ8d3nzRNSFuAnnrffPNN2cn+ccc49RynhcgCJRxA0lIPv8rmg27xy5vxfmMY5c6i9GZ+MYbSnyulRAii+VpB+0pJsRZZhaNLkh0Obj33nuLWfpsM94vN5j4hG3+h9HFiPbBDHbf+973qr657GPIHQlIQAISkIAEJCCBISMQPd3imQihhcTzFC+3efbkXjLG3OS5li7BvOTmfpE8RQGiUUcZ+5OJhxhujBT1Nlq+kXw865111ll5volG8ptHAq0mEN+RCASpti4HvUSgCb40+2xYz/9iAE41PwbyPa5X31Cc4/8Vz6qtGlpgKHzsJJstEz1pNA/88ZaMD3UM/My5EPniHz4f8pipj4uKOIKogehAigFk806dP4TuUpYPd5RFdMAXorT6SyG4xg8QNlrV5aBe3eE3dfFPggWBKSYyqlc2zpGXAW1J+A0DWGC7mJiECNbxj4ZxaopdNYp53ZZAPQJ8dkgx/gvbS5YsSTt27Kg6VmcjYiQ26iW+GwMd87dol7fz8d1gjN433ngjMbB8McXLm2gfXQ7qDa5fHO8X2/xgx8100a7bEpCABCQgAQlIQAIjS4BostWrV+cgkfCE7u08P8WzKi/vuQ/kno6X4HRn53mRF+7NBvZQR1m8iHpbvUb0jOfsVtvWngT6I8DnnJcGERRTbV0WNqNrd7UIap6riGwsl+nPD85jr1r9cWwg3+NG6m11nuATfvcX4NPq+rvJXstETz6QLPGDgZj31FNPpW3btmVhgQ8uH0CEUBR3BD7EkkiULf7glAeQjXys+fFB1DzzzDOz0MIHt1iWulHwQ+Aoli1vxw9RrcF9y/lbuY/f/IDyQ8rC5EExkVG8Lan3JmLKlCkJTvCEOwyrfYn5wtx+++25uy154cOPeHGcz0bbVWbfaDnzdQcBvncI5nxe480Znz0iHkm8aCAP5+kizsuNwaaI+uaNeyTsF/fjeK31mDFj8nckzsf/KaIziwnf+U7yfyHSQL4nUda1BCQgAQlIQAISkEB7EOBZKQQEnktDRCgej2N4zHNVMT/HGhVjsBm2iuJFsV7stSrxXPiLX/yiEoDUKrvakYAEJNDpBFo6kRH/xFmKiRndI8UPSuyX1/ywFEW74gCyRbvxY1MsXy5bPFcsy3F+eIpdY+OHqFgmBvct5423GMW8RZ+Lx6ttl31hv3jsyiuvrBTjh7JWwq8HH3wwny5yivxlHmX2RIVGKuYtbnO+zLq8HzZc9w6B4iDv1VrNWzlEez6XiOTMxldPvK9mw2MSkIAEJCABCUhAAhJoZwL0omMM93JiZndmVed5bTjTCSeckP7P//k/TQUGDKd/1iUBCUhgJAi0LNJzJJy3zsYIIDjFRCyUIPqO8Qbp9m6SQDMEiK4kGjKGsahVNl4ORCQl3cYHmiKqk3ojRfRn7Pe33rdv32Hj3/LmnojPYqJ9dGtCtI1kd/Ug4VoCEpCABCQgAQlIIAhEUElEg8aaoJ/hFjzx6dhjj00HDhwI91xLQAISkMAhAoqeLfoYRHf06PJbbR1jaraoyobNxPiE0SV5/vz56bbbbhuRH+OGnTZjWxJgCAaEQcbcjcTnOmZpLwvsIXYS8TnQhIDK8BUMyxDj9jY65m+xTsrzPWVheA3ezJdvSGP4BsYFJhXHHi7aclsCEpCABCQgAQlIQALtRID75FYMLdVObdIXCUhAAoMloOg5WIK/LR+RbfGGr9qat4Ejkcq+jdTbx5Fou3UOjgCfHWZqRyBkSAT2165dmyfFCmGf44idDH1QFtiXLl2amAGdcyxTp07NXd6b7e7Od6c4bm95zN+y2FpuNWN6Itgi/LOQVqxYUc6WfcTfmCmPmdwvv/zyw8b5PKxglQMhoMbYw1WyeEgCEpCABCQgAQlIQAItIXD88cenL3zhCy2xpREJSEAC3ULgiEPi3MGBNAbBY4BFB1KdZSQggSoEWv09bLW9Ki533CEEVbq4F8fe7bhG6PCIEvB7NaL4W1b5woUL04YNG1pmT0MSkIAEJCCBVhK46aab0nnnnZcnE22lXW11DgHvOTvnWulpyhMjD4emaKSnnzYJSEACvyVQ7KrPIboJ0S1+9uzZMpKABCQgAQlIQAISkIAEJCABCUiggwgoenbQxdJVCXQLAbrE8yay1tJs9/dWcaEbPQsTHOEbayI8R2poila1SzsSkIAEJCABCUhAAhKQgAQkIIFeIzCo7u29Bqvb2vvFL34x/fSnP+22ZvVce1oZEm6XiJ77+NjgYSDg92oYIA9DFXZvHwbIViEBCUhAAgMmYPf2AaPrmoLec3bNpeyJhgzX5/XIgdJspdAyUB8sNzgCPMC98sorgzNiaQlIQAISkIAEJCABCUhAAhKQgAQkIAEJtBkBu7e32QXRHQlIQAISkIAEJCABCUhAAhKQgAQkIAEJSGBwBBQ9B8fP0hKQgAQkIAEJSEACEpCABCQgAQlIQAISkECbEVD0bLMLojsSkIAEJCABCUhAAhKQgAQkIAEJSEACEpDA4Agoeg6On6UlIAEJSEACEpCABCQgAQlIQAISkIAEJCCBNiOg6NlmF0R3JCABCUhAAhKQgAQkIAEJSEACEpCABCQggcERGPDs7YOr1tLDRWDz5s2JpVZiBvdqae7cuYnFJAEJSEACEpCABCQgAQlIQAISkIAEJCCBTiOg6NlpV6xJf+uJlwieGzZsaNKi2SUgAQlIQAISkIAEJCABCUhAAhKQgAQk0N4EFD3b+/ronQQkIAEJSEACEpBAFxE44ogjuqg1NkUCvUPg4MGDvdNYW9qxBPyN6dhLp+NDREDRc4jAalYCnUhg/fr16e677+5E1/VZAm1LgO/Vs88+m84+++y29VHHJCCB4SWgeDK8vK1NAoMloJA0WIKWHw4C/rYMB2Xr6DQCip6ddsX0VwJDSODKK69M/lgOIWBN9yQBHpT8XvXkpbfREpCABCQgAQlIQAISkMAIEnD29hGEb9USkIAEJCABCUhAAhKQgAQkIAEJSEACEpBA6wkoeraeqRYlIAEJSEACEpCABCQgAQlIQAISkIAEJCCBESSg6DmC8K1aAhKQgAQkIAEJSEACEpCABCQgAQlIQAISaD0BRc/WM9WiBCQgAQlIQAISkIAEJCABCUhAAhKQgAQkMIIEFD1HEL5VS0ACEpCABCQgAQlIQAKtIfDss8+mG264YcDGPvnkk7R48eJ0/vnnp/fee2/AdiwogZEi4CzzI0XeeiUggXYloOjZrldGvyQgAQlIQAISkIAEJCCBhgggeJ5zzjkN5TWTBCQgAQlIQAK9QUDRszeus62UgAQkIAEJSEACEpBAxxKIKEwi2WJB6CQVBc/Vq1fnSM2f//zneV2M2iQfZR944IEKB7bD3n333Vc5zkacq5a/eKxPodLOa6+9lqZPn57rIAo1bIbvHKP+WIe/5fbG8TAf+cMOkankIVKVslEv+9dee22ljY36HfW4loAEJCABCXQyAUXPTr56+i4BCUhAAhKQgAQkIIEeIHDzzTenu+66q09Lly5dmsW9Pgeb2EEwvPTSSyslrrrqqj51zJw5M02bNi1t3bo1C4mIiWxzjHP9JYTIZcuWpZdffjlnRZD9i7/4i6rFOEc6++yz0zHHHJOWL1/ex5cnn3wyffnLX266vTBbt25dpU7aG0Jp5aAbEpCABCQggS4loOjZpRfWZklAAhKQgAQkIAEJSKCbCCA2vvrqq+ngwYN52b59ezr11FOzUPjMM8/kpq5ZsyY98cQTaezYsXWbjoAZkZ33339/todt6og0YcKENGvWrPTmm2+mjz/+OO3atStt27YtH+Ncfwk/ECsRUyn/7rvvpl/+8pdVi+E37bruuuvSiy++mAXPKMdxfEQ83bRpU9XytQ4WmWGDtGXLllrZPS4BCUhAAhLoKgKKnl11OW2MBCQgAQlIQAISkIAEuo/A7Nmzs+h32mmn5a7a5e7ezbYYERIxc86cOblbOOVD5AxbRx99dDr33HOzcIkgimiJ8MgxzvWXXn/99Zzlsssuy/mPO+64xHa1RPsihSgZ5ThOe/H17bffzlGnkbe/9dy5c7MwPBgb/dXheQlIQAISkEC7ElD0bNcro18SkIAEJCABCUhAAhKQQCZAt++IeOQAEZTjxo1rqqs2ImezKbq4I0SyNNq1vdl6ivknT55c3G1oG0H2nXfeOSxvsyLpYQY8IAEJSEACEuhgAoqeHXzxdF0CEpCABCQgAQlIQAK9RGDRokVZ/Izu7BEVWYsBQiCCYIzHGfkYN3PixIlZPKUbOim6lUce1hH9yZibLHR3b6RrO2VDvKQbPfUzxmd0qed8rYRfpCjHdnSVP/HEE/tEmYaQ+/zzz1fGDiV/JLrj0y2fVMtG5HXd2QR4KWCSgAQkIIG+BBQ9+/JwTwISKBCImUDbYcB7HhaYgbQVvjCjKV3EWDebmPU0ZkYtl22WFzOvslRLzdhqpj3YXbBgwYDaXs1Pj0lAAhKQgASGmkDcA8Qs66zPOeecXG2xWzgHECaZLX337t1Z1KQ7Ol3iETmLEyHRPT26mjO5T9FmsT3RxT2ONdq1nfzRJZ16qZ/I1L//9/9+mKq5njFjRh4HNMrhGz4SZTpv3rxcLgTV8J11tRTtDxvkKTOrVs5jEpCABCQggW4goOjZDVfRNkhAAsNGgAiTO++8s0+UxVBUzrhfRGTQna+/xCQOdPNjbZKABCQgAQl0GwGEx1tuuSULgcW2MTFP/E6GUBjnjzrqqDwDekxMxMvO73//+3E6rykbk/twYOXKlYfVwfHo4t5s13Z+y2+99dbK5EjU9a//9b/GZN1Urb34//TTT1d+6y+++OI+vtI28pQTkyHRrkhFZnHMtQQkIAEJSKBbCSh6duuVtV0SaCEBuo4RIcBSnjggIhLjPJGQkdiOaMY4T6Qmx2O/HOlYPEekBlGMRHgsX748R2gQ2RF1cI48YSvyR/3YjnNlvyMPa3wiX9gtnitvk6cY6Vn0d9WqVX2yY7devWRmrC3yUH/R/+Aaka3FtpKfh7/woxjpGZGc69evP6ztnEO0feihh3LUS9ju47Q7EpCABCQggTYkgBDIS0e68MbCb1qk4vmY1Z2XgWyTnxeJF154Yd4ulmM77N100025DvIiWJZTM13bKcvvLFGmxx9/fO5iT10xuVHYZrZ26g/xNo4X2xP+F30qn6dt+F3txex//s//udLGYtujLtcSkIAEJCCBbiWg6NmtV9Z2SaCFBBDmmOWUZeKhcabuuOOObD1ENLqHcUPOmFmMP1UUD+lmRjcqzhNdgGjJDT/7zITKmFyIdiTKbd26NdfD+dtvvz0tW7Ys70eEB/m5YafM/Pnzcx7y4hsPI+RDJMVW+M15fESU5Fwx8UCydOnS7EuzDwLUQXtpN3UwzhYRl5F4gKn14BR56LoWDzy0lzYFj8gDZzgQqUE9RI3ce++9cfqw9b59+/K4ZOVrxsMSPl9yySW5veUHrMMMeUACEpCABCQggRTjZTbTtR1sdGcnOjQmXeIFJ/dFRGQihpokIAEJSEACEhhaAoqeQ8tX6xLoCgIIhkQUsHDDHzOBIughgtLFioSohoCHEIhQR6JbFV3OSHQPO++88yrjUTERwKRJk7JoSP7HHnssR3RSDwlRLoTDfKDwJ6I3QrgL3wpZ+mwiaJajHxBdETwRG5vtGo54ikALm4i8WLJkSdWuZX0cKe2sWbOmEt0BJ4RbHq6KCT+LnPF17ty5xSyHbde6Zodl9IAEJCABCUhAAlUJcG9C7wrGy+R+Ju53yMwLymJvk+hZEmt6Y3Cfwz1GMSGC8vIy7h2K59yWgAQkIAEJSKC1BI5srTmtSUACvUSAiM3yLKJENYwZM6YmhrFjx+bIh3IGoiV37txZNfKhON5WuRwPJAiaEWHJQwmJhxTEVyYO4AFj48aNfYTNvXv3pq9+9asDjrZA9GTGVMTFSDETbOw3so6JCMiLcAvPctc36ilzphzis0kCEpCABCQggaEhgDDJC95qKV6+VjtXPMbLWXppDHdq1L/h9sv6JCABCUhAAsNJwEjP4aRtXRKQQF0C48ePz92ueTgoLtW6nUf0BSIrwiP5i+JoPKhEt3e6kSGEUi4SXeV5GInu+nHctQQkIAEJSEACEpCABCQgAQlIQAKdTUDRs7Ovn95LYEQJRLRhcZxMIjYZU7LZhHhJlzDKN5KiyzeiZjVRNGwQPUm39rBLORICK3XOmzcvbd68OU82EGUaWWOXLudEYUbCl+J+HK+3LkZ1wpHozWL0J2WpJ4YUCFvFcnHMtQQkIAEJSEACEpCABCQgAQlIQAK/IaDo6SdBAhIYMAEiJxH5Hn744WyDKEpmTC+Oc9mocSIzKUf5iMaMaM5as4xTN0IjiTyMuRWJCXtidnOOhdhZnjiA7l9MEFSsN2zUWyN64m9x/FIiRqObfb2yxXMIrjFxERxpE1yLCZ85HpzJTzmTBCQgAQlIQAISkIAEJCABCUhAAtUJKHpW5+JRCUigAQIIlTGDOVGa0dW8XuRlPbOUo7t5RH2yZmIkjiEyMokSs78jUHKsmBfx8amnnkrbtm1Lu3btqkw2wDib+MaERbUmDmBiAqIpm+3mTv0In+Hv5z//+T4TGSHElrvUl9t/+eWX55nZ8XHdunVVfYQzvnOefMzkTrnyOJ9l29X2sTV16tQ8dirXziQBCUhAAhKQgAQkIAEJSEACEuhGAkccGgdv+EfW7kaSHdimhQsXpg0bNnSg57o8VAQQ1PyXMFR0W2sXwZIu7ojCpvYm4Peqva9Po975m9koKfP1R8D/Cf0R8rwE2o9AJ3xvv/3tb+eX7UzgaZKABCQggd8QMNLTT4IEJCCBNidQjhil2z+RrbNnz25zz3VPAhKQgAQkIAEJSEACEpCABCQwMgSOHJlqrVUCEpBA+xFAXKT7fK101VVXpVtuuSV3ta+VZyiOF7vyh/2YeT72XUtAAhKQQGcQWL9+fbr77rs7w1m9lIAEMgG+t9wnck9mkoAEJCCBziGg6Nk510pPJSCBISbAjWy7du+nG7td2Yf4A6B5CUhAAsNA4Morr2zb35phaL5VSKAjCXRC9/aOBKvTEpCABIaYgN3bhxiw5iUgAQlIQAISkIAEJCABCUhAAhKQgAQkIIHhJaDoOby8rU0CEpCABCQgAQlIQAISkIAEJCABCUhAAhIYYgKKnkMMWPMSkIAEJCABCUhAAhKQgAQkIAEJSEACEpDA8BJQ9Bxe3tYmAQlIQAISkIAEJCABCUhAAhKQgAQkIAEJDDEBJzIaYsCal0CnEWCgdlP7E/jiF7+YfvrTn7a/o3ooAQlIQAISkIAEJCABCUhAAhIYAQKKniMA3Sol0K4E2nXm8nblNZJ+LVy4ML3yyisj6YJ1S0ACEpCABCQgAQlIQAISkIAE2paA3dvb9tLomAQkIAEJSEACEpCABCQgAQlIQAISkIAEJDAQAoqeA6FmGQlIQAISkIAEJCABCUhAAhKQgAQkIAEJSKBtCSh6tu2l0TEJSEACEpCABCQgAQlIQAISkIAEJCABCUhgIAQUPQdCzTISkIAEJCABCUhAAhKQgAQkIAEJSEACEpBA2xJQ9GzbS6NjEpCABCQgAQlIQAISkIAEJCABCUhAAhKQwEAIOHv7QKhZRgISkMAwENi8eXNiqZWYwb1amjt3bmIxSUACEpCABCQgAQlIQAISkIAEepWAomevXnnbLQEJtD2BeuIlgueGDRvavg06KAEJSEACAyfwySefpOXLl6fLLrssnX322QMydMMNN+Ry11133YDKW6g7CLz33ntp0aJFic/BQD9LtUjwGZs8eXK2H5/Zu+66K2e///778/EoG348+eSTh51/4IEH8jH8NElAAhKQgARaQcDu7a2gqA0JSEACEpCABCQgAQlIQAI9RuDZZ5/NLUaoDMHzxBNPTAcPHkzvvvtuuu+++1Lk4fyqVauyiF/t/MUXX5xefvnl9Nprr/UYRZsrAQlIQAJDRUDRc6jIalcCEpCABCQgAQlIQAINECDC7YgjjsjL9OnTs+gTAhIRc+ecc04iD1Fy559/fkVEwjTHFy9enAUn9hGMsIE98r799tsczsfnzJnTR1BCjCIPdvtL+EM94ef69etT2KM852655ZZ8PvwJf6NMRPJRV9nvyBsCGdGD1BF1Bpf+/OQ8DBYsWFDxh/rDpyhPPeEX6yIHfKN+lshDfo7HPucildkU6yq3K8qwjnJFLhzHdhzrz0+Y4zt+kTfqq+Yntrds2VJpQ7HNnCt+dihfZM65a6+9Ni+cw0f8f+SRR9K8efMonnbt2pXeeOONyv5xxx2Xo0qpk/Tiiy+mN998M/vLPueJYo7zRx99dLrwwgvzdcO2SQISkIAEJDBYAoqegyVoeQlIQAISkIAEJCABCQyQAEIV0XBExRH9dvvtt6dly5aljz/+OIs/V111VXrmmWf6dBGuVRXC1Pz587MNbNGVOboZT5gwIU2aNCk9//zzleKITYhOiE/9pZtvvjlnwS8WBKy9e/dWiiFmffjhh7kNd955Z85D9B/2i1F9IeZVCtbZoO1RHi60jTY2knbu3FnxB7b49/DDD+eiMF+6dGl69dVXK75x4o477qiYXr16dZo9e3Y+TxdthOfXX38971OOa4IviHMMQXDuuefmc7SVSMfgBdsnnniiapdyRD7Kbd26tSJaI1ru2LEjzZw5M4uY/fl57733pltvvTXXPWPGjD6RlFwnRO8ic/bjGk6cOLHS5vJnhzyzZs3qI0A+9dRTadq0abkuPlt8Bj744IPEZ4t06qmnJrqtsybRFljDkcQ1oM5jjjkm7/OH/RBr2T/ttNPS/v37s4DKvkkCEpCABCQwGAKKnoOhZ1kJSEACEpCABCQgAQm0kADjLSKSNSJElqtF0ESoQvwiYWvNmjV5uyywFcW1nKHOn8iLuIcdFsTIcgpxi+O0AUGLLssk2oNQhsCLvUYSvsf4k7SJthVF23o2xo8ff1jEIaIlCZvbt2+viHP4FvWETQTX4IgAed5551XshYCMmIrwR4p2sr1kyZIsXDYi0GKb6EiiJEkIqqNHj85CYiN+wiREx3IkJdcJAbo4RibXLa4hgisiKMItQiVMggN5OF9MMMXfSIiYCLzkLSbsEe06bty4bC9skqecnzxjxoypFEcQpf2NXudKQTckIAEJSEACVQgoelaB4iEJSEACEpCABCQgAQkMBwGENcRBxJ/oojzQehH1yqISE8xEQrAiio4oPgS7k08+uSKYRZ5qa/KS8DES24hgtVI1X8oCV62ycbzoO8IabQvhMvIMZo0oGUMBENlZL40dO7ZP+yMvwh/RtIh10aWcdhJp2kgKATVEPqJvERuLQmKjflaLpGzEh2IeBOnoLn/ppZcWTx22zbUoXqPIgO+IrUS9cr7Y3T/y1FoPxXWuVZfHJSABCUig+wkoenb/NbaFEpCABCQgAQlIQAJtSqAoEBHZSDfq4liKrXQbgY0oOqIJEdnoqlwU11pZVzvbChGRrtR0m0eci4jYgfhNVChCMnZiKUaS1rMJ/+jivnv37krXdsq02s96foTYiWAbQwrQrb9WIpozxoutlYfj5UjWiCyNMgjq+/bti928riak9sngjgQkIAEJSKBBAoqeDYIymwQkIAEJSEACEpCABIaSAN2/YyzFiPxrpj7EorKoVIyMDIGNyWeYJbvYVblePQhhpIj4jO3imJ45Q+FPNV+qCVyFIodtFn0Pka0Vghhs586dmwXKYtfrwxxo4ABRukRYct0GmkIY/MEPflDp2o6tZv0cjC8I4ZSnHcXu8LXaxGeJyNtiYmzO8uRIxfPV/IMd16A4nEPxuhfLuy0BCUhAAhJoloCiZ7PEzC8BCUhAAhKQgAQkIIEWESgLRTEDdjVBki7UCEcx2zXReYyRGQnBCREpxpnEdrnbNnaZkKY4AU2Ur7VGkJo6dWplUhsEyGK91cqFLzF5EL4y4zdRhNijHdu2bauMZckYoEyCU0ybN2+uTFxUHq+ymG8g20VxmIl+ypwatRnDExQnQSpf0/5sRRd3IkbLwxM042f4AstIMGdpJBXFW9rQX/d2BOiiQFmun88Js8sTvcyYoeXz8fktjgXbSnG7kTabRwISkIAEupuAomd3X19bJwEJSEACEpCABCTQxgSIcmMhmpIxIelyjQCHSBSRmYhGCFfsM5kQYiB5ici7+uqrK61DTGQmb2b85jzC5MqVKyvn2UBgY/Kb8riRfTJV2VmxYkU+ivDKgoA1ZcqUquNckhFfEBPxAV+i23REEdJmoi1pL+c/+uijhOhXTPjJTPacp020DbuDTTHpUIzDiXBHV26EPoS4ZhLXZO3atbksfrJwrWg7vmIPARjbtVJcZ84XBcBm/Qxfgjm+IJrGtatVP8fLn0NsII4Xhely+YmHhOuiKFuuH76IuEQwk8rn4zNB3ZGINGXc2Wqif+RxLQEJSEACEmiUwBGHxp052Ghm83UXgYULF6YNGzZ0V6NsjQR6hIDf3x650DazbQj4nWubS9HxjiBEjeTtN5F0f/Inf5KuuOKKyuzlA4HKeJPXX399+s53vtMSIbLsQ0QnhmBWPu/+yBPgs4QIT/RuUbgcjGeIw0Qyt9t1H+nvbSNMv/3tb6c5c+bkMYEbyW8eCUhAAr1AwEjPXrjKtlECEpCABCQgAQlIQAKHCNB9nkTEZ6OpWrTipk2bcpf3VkReNuqH+dqLAJGbCJ4x3MJgvUNEZbzZefPmDdaU5SUgAQlIQAKZgKKnHwQJSEACEpCABCQgAQn0AAGiJ+fPn5+jPBGsInGcSLZaC2NEEnlHN/vIQ9mRiMaLGc3Dj/K63kQ60V7XrSMQEZ505x9sYvzXadOmDSoCebA+WF4CEpCABLqLgN3bu+t6NtUau+o1hcvMEmgrAn5/2+py6EwPEPA71wMXeZiaiEg3kt3bh6mZViOBriLQCd9bu7d31UfOxkhAAi0iYKRni0BqRgISkIAEJCABCUhAAhKQgAQkIAEJSEACEmgPAoqe7XEd9EICEpBAUwSY8dYkAQlIQAISkIAEJCABCUhAAhKQQHUCip7VuXhUAhKQQFsTePTRR+0e2dZXSOckIAEJSEACEpCABCQgAQlIYCQJKHqOJH3rloAEJDBAAqNGjUq//OUvB1jaYhKQgAQkIAEJSEACEpCABCQgge4moOjZ3dfX1klAAl1K4IQTTki7d+/u0tbZLAlIQAISkIAEJCCBZggw2ZJJAhKQgAT6ElD07MvDPQlIQAIdQeCUU05JO3bs6AhfdVICEpCABCQgAQlIQAISkIAEJDDcBBQ9h5u49UlAAhJoAYEzzjgjPffccy2wpAkJSEACEpCABCQgAQlIQAISkED3EVD07L5raoskIIEeIDB58uQ0YcKE9Pjjj/dAa22iBCQgAQlIQAISkIAEJCABCUigOQKKns3xMrcEJCCBtiEwf/78tHHjxvTSSy+1jU+DceS9995L559/fnr22WcHY6bhsq+99lpasGBBot5m0ieffJIWL16cHnjggYaK0R7yU66Yah0v5nFbAhKQgAQkIAEJSEACEpCABAZG4MiBFbOUBCQgAQmMNIGTTjopLVu2LN16660JAfQP//APR9qljqr/3XffTfv27Rtyn88+++zEYpKABCQAgfXr16e7775bGBKQQAcR4HvLy0p/zzvooumqBCQggUMEFD39GEhAAhLoYAKnn356uvHGG3PE5xNPPJHOOuusNHXq1IQgOnr06PSZz3ReQP+WLVvSOeeck6ZNm5bbdeqpp+YoyeXLl6e77rqrcpzu/RybMWNGuuOOO9LLL7+cnnrqqbR58+acb82aNem6667LV/eGG25Iq1evztv3339/jijl2JNPPpnLkq+YZ86cOZVIzkWLFuV8FH7mmWdyfdnQoT9EiXKeh6CoK87Fmoek++67L91yyy1p165dWaDGV/wzSUACvUfgyiuvTAcPHuy9httiCXQwAWZG93vbwRdQ1yUggZ4loOjZs5fehktAAt1CAIHzm9/8Znr99dfTCy+8kB599NG0Z8+edODAgXTBBRdkEbAT2vrnf/7nFTd5sECE3LRpUxYTb7755nTiiSfmBw5ERCJc77nnnpz/xRdfTD/60Y/Sww8/nFauXJmF0ssuuyyXR5REDCZhk/1rrrkmzZw5syJSLlmyJB8nWhbhkm7oiKmvvvpqevPNN7OgiY0QL6dMmZLtffTRR2nVqlW5TCORH9hF+MRHhFLaF2nhwoWx2fT6s5/9bBo1alQ64YQT0imnnJKY5IoxX00SkIAEJCABCUhAAhKQgAR6mYCiZy9ffdsuAQl0FQGErmpi19y5czuinTG25uzZs7O/tAUhF7Hw7bffTgiZpNNOOy2NGTMm0T2ddO6556ajjz46TZw4Mc2aNStP8MRx8pCwQZRnRHpy7Ctf+UrOzzbpuOOOy0sx2pP6EEfXrVuXyxLleeedd1bG5rzqqqtytGYjgid1vPXWW+mNN97Igir7tJMIUNKGDRvyeiB/EHN/+ctfpt27d6cdO3bk4Q6IgkXERRA3SUACEpCABCQgAQlIQAIS6EUCndfvsRevkm2WgAQkIIFBEaBLO+JgLERaFhOTGk2fPj2Lxh9//HFC0CTRtX779u25Wztd7plo6f3338/n6GqPGEsE6Egmutwh8H7pS1/KQidjvDLEwR//8R93zSRXI8nXuiUgAQlIQAISkIAEJCCBziSg6NmZ102vJSABCfQMAaI46drOWJ8kup0zAdG4ceMaYkDEKBGVRJKy1Johnm7rnGPczW3btmXbzNDOQjQn9Ub0KCd/7/d+L0dtfuc738l2+3Pm5JNPTpMmTUrPP/98zhrt6a/cQM4zqVVMckUEqEkCEpCABCQgAQlIQAISkECvEVD07LUrbnslIAEJdCCBFStW5KhKohqXLl2au3CPHTu2oZbEREOIpCx0W0fEZPudd97JExnRHZyJnzjGuJvnnXdeHs/z4osvTlu3bk3US7d6xgMt1kskKFGVTKTUX0K8ZaxQustjb6gTk1zRxX3jxo1DXZX2JSABCUhAAhKQgAQkIAEJtB2BIw519XP6yLa7LMPjEBNnDGYcueHx0lokIAEJSGAwBIj4ZKk23utg7PZaWX8ze+2KD117eenh7ffQ8dWyBIaCQCd8b2+66ab80pbhekwSkIAEJPAbAkZ6+kmQgAQkIAEJDJJAjAnKQ1F5GekxP88666z0wgsvDLKFFpeABCQgAQlIQAISkIAEJNBZBJy9vbOul95KQAISkEAbEogJj9rQtdz9/tFHH21H1/RJAhKQgAQkIAEJSEACEpDAkBEw0nPI0GpYAhKQgAQkMPIETjrppLRnz56Rd0QPJCABCUhAAhKQgAQkIAEJDCMBRc9hhG1VEpCABCQggeEmwARNBw4cGO5qrU8CEpCABCQgAQlIQAISkMCIElD0HFH8I1v53LlzR9YBa5eABCQggSEn8JnPfCb97d/+7ZDXYwUSkIAEJCABCUhAAhKQgATaiYCiZztdjWH2hTHePv3002Gu1eokIAEJSEACEpCABCQgAQlIQAISkIAEJDC0BBQ9h5ZvW1sfNWpU2r9/f1v7qHMSkIAEJCABCUigVwl88sknafHixenZZ58dMIIbbrghsfRSeu2119KcOXMS62rpgQceyFzh21/qL28zfBvN24rr3l+7PC8BCUhAAhLoBQLO3t4LV7lGG0844YS0e/fuNGbMmBo5PCwBCUhAAhKQgAQkIIHOInDqqaemJ598clicvu666xqup5m8DRs1owQkIAEJSEACNQkY6VkTTfefOOWUU9KOHTu6v6G2UAISkIAEJCABCbQxAaIJjzjiiLxMnz49RygS7bd8+fJ01113pXPOOSeR57333kvnn39+n8jPciQi0Y3YwB5533777dzyatGPRJCSB7v9pYg+DD/Xr19fiaakPBGpt9xyS66XbfKHv1EGXyOV/Y68EdVKVCR1YIvywSXK11uX2xq2w87LL79cKR7not7KicIGPaOi/IWjAABAAElEQVS+/vWvZz+wUcxbjt5kP9oLj+L1KuZlO85HfuxWu+4FV9yUgAQkIAEJSKAJAoqeTcDqtqxnnHFGeu6557qtWbZHAhKQgAQkIAEJdAwBhK777rsvvfvuu+ngwYPp9ttvT8uWLUsff/xxFsWuuuqq9Mwzz6RFixb12ybEvvnz52cb2CKyENGUNGHChDRp0qT0/PPPV+xs2bIlXXbZZem4446rHKu1cfPNN+dT+MXy4osvpr1791ayv/nmm+nDDz/MbbjzzjtzHnzGPr7QPtpZFD4rhWts0PYoDxfaRhubSYiaRT82btyYnnrqqYoJ2v7EE0+ks88+u3KsvPHQQw+lr3zlK7kdr776alq6dGkf4TPy0zauZ1xLeNSLOL333nvTrbfemu3ef//9eRiCgVz3qN+1BCQgAQlIQAJ9CSh69uXRU3uTJ0/ON8CPP/54T7XbxkpAAhKQgAQkIIF2JYD4hgjXiBBZbgOC5qxZs9KMGTPyKWytWbMmbx999NHp3HPPTVu3bq1EYdLjZ+bMmWUzh+0jHJKXyFPssCBGltPs2bMrh2jDxIkT08UXX5yP0R5EWIRP7DWS8D3ESNpE24qibSM2EClJRFyS6Pq+cuXKvN3oH8TXaAfl586dmxCMi4kITdjSxrh28+bNS9OmTStm67ONHeyRuA4hDvfJ5I4EJCABCUhAAgMmoOg5YHTdUZA35rzxfumll7qjQbZCAhKQgAQkIAEJdBABxDzEwXHjxuVu0cWu08024/XXX08nnnhiFiWjLC+5IyGs0VWbaEKiEU8++eT8AjzO11qTl4SPkdgeP3587B62ruYLZZoZS77oO0IrbcNuM4kIVPgec8wxlWLsN5OqMWXYAITOSDCFbZnR8ccfH1lcS0ACEpCABCQwzAQUPYcZeLtVd9JJJ+UuVHSt6aSITyIEFixYkLs40ZWIcZFIrJvpNsWDRYw7NRTXppb9WseHwgdtSkACEpCABCTQvgQQ8+gOTpQfkY2M39nM+JXNtIwu7qNHj05EPxIxSRQi9ZskIAEJSEACEpBANxJQ9OzGq9pkm04//fR044035m5LjCFF5Ocrr7yS9u3blz799NMmrQ1/dsZpoisRb9tjsP5GvaDLFA8aQ3XDP9T2G22n+SQgAQlIQAISaH8C3M8QMTiQbty0jsjIcgRiMTKS+x26uD/yyCOJyXwa6dqO3YhejIhPjrFdHNOTY8VUzRfKcH/ZaCr6Hvd5xejPRuwQ1Um0J1wjsd9Mqsa0HP1JJCmCcpnRO++800xV5pWABCQgAQlIoIUEjmyhLU11MAEiPr/5zW/mLkMvvPBCevTRR9OePXvSgQMH0gUXXJA2b97c0tZt2LAhR2nSvT5m0GQAd8ZLYrwobsgRM4mIZOwnZrckxSymjK0UichOboq5CWaw/m3btuWbeG7QscEA8nPmzMkRoNyQYoMbVdr0H/7Df0j/43/8j/Stb30r/af/9J+q1vvwww9nHz/44INsnygM6rr00ksrdmPspvAp1kX/d+3alQfgp70xvhb5Fi5cGNldS0ACbUqAmXWPOuqoNHbs2PT7v//76Z/8k3+SzjzzzHysTV3WLQlIoEMIcK8QPVW4n+B+4Y033sj3K+UmcB+DiMd4krxYpecL90kcIzFuJftMMsR5bK9evbrPfQdC57p167KwSuRnIwm/pk6dmu/H4p6Meuql8IX7KO7H8JV2xsRJ+IwftJdxLRkDlHs2hN9I3KsxLibnaRNi5dq1a+N0Q+sYPgD7+MFESNH+hgwcysT9JX4HU/wiSKCYQlAuXstNmzZV7nOLed2WgAQkIAEJSGB4CCh6Dg/njqkFMa/aG3QGWm914o39j370oxxlGeLgH/7hH9ashptmEm/qufFl5sxiQjBFDEUw5SYecZMbVG5yEUZXrVqVxc0os3379qozb8b54ppZPrm5xSZCLQPg8yafm2e6iHETXC/RVh4SKEcZbogjIQCbJCCB9ifwq1/9Kn/v/+Zv/ibx/+O//bf/lr761a+mCy+8sP2d10MJSKBtCXAPwRLRlDjKbO0xwQ33NXR554UpgmDciyBm8lL36quvrgxRhDjJkEXxUpn7ovKkPdwjEUmK3WZ6uqxYsSLXHWNjIgSWx7AsQsYX7r+47+FFMYkX3OyTaDP3l6eddlrex17xpTYH8ZNeSIihdMXnXgy7zSTaiFAafsDs8ssvr8wCjxjLOdjWup+DISIv14FUvD5FX7DDi/i4ln/6p3+aLrnkksp+MW+97RBQi9e9Xn7PSUACEpCABCRQnYCiZ3UuHh0GAjFeVfHGvFa1iIbMiBk36NwgT5kypVb2LIxyIx7dtlg/9thjlQHnqwm7NY0dOsFNNw8JCK7Ui72ItqhXLs699dZbfaI2mN20vwiJKOtaAhJoDwKf+9zncpQ4keL/7J/9sxwN/+CDDyYeav/9v//37eGkXkhAAh1JAMGtGOFYbARCGkskxFBevBRT8eVLtfPFvGwfe+yxlXuk8rla+whxDAnEQiJi8oc//GHeRojkJXM51Toe+eq1mzz8v436okwjaxgglEaq5wftquZ7lC3yr+ZL+boV24Sg+ld/9Vdhqs81Lpcr+1yst2LADQlIQAISkIAEmiLgmJ5N4TJzKwkQ7cjb+6effjq/MW+lbW1JQAISGGoCJ5xwQhY7EQ+qPQgPdf3al4AEJDAQAnQnJzXatZ28iHd0V6dnTiS6btPlvdnIyyjfbWte0DM5ZnFCTcRUxvlshnW3cbE9EpCABCQggZEkoOg5kvStuzKuE2NTkXjbzlv9GLi+eJwoT6I9uamkS/nOnTtrEiQKk5tMZiYlsWYf+9VSrXqr5R3IsZNPPjlNmjSp4k+0ayC2LCMBCbQXgT/6oz9Kv/jFL9KPf/zj9nJMbyQgAQmUCPDCmR42V1xxRZ97Io4zdnGtBfGOyES6W0ceTJejFUvVDckuEab0Fgo/ymvEWUTa4U7cSzL0AOOFhk/ctzK8Ua37z+H20fokIAEJSEACvUZA0bPXrngbtZcu3ozxxI3h+PHj87hQdB/nOONUcbyYGLOThKBJ1/By9/YQLmNQfMZvIh92WLNf76azVr1FHwa6Xb4RHqgdy0lAAu1JgK6lf/mXf9mezumVBCQggd8SQKSkazxdqYuJ4wcPHqy50NWa8S6LeYZa8MR+tTqi+37Rl+I2Au1IRZ+WfaMXQL17z+I1cFsCEpCABCQggdYTOOLQTcLB1pvVogQkIAEJSKC3CBDxedNNN+UZ3tut5QsXLkxOmja4qyLDwfGz9O8I8DLW2+/f8XBLAp1AoBO+t9yDnHfeeTkSuhOY6qMEJCCB4SBgpOdwULaOribA+FbcCJWXmKipqxtv4yQggQoBInz++q//urLvhgQkIAEJSEACEpCABCQgAQmMHAFnbx859tbcJQSiu1eXNMdmSEACAyTAeMR79+4dYGmLSUACEpCABCQgAQlIQAISkEArCSh6tpKmtiQgAQlIoGcJMFnaL3/5y55tvw2XgAQaJ0DvEJMEgsAXv/jF9NOf/jR2XUtAAhKQgAQk0CICip4tAqkZCUhAAhLobQI///nPR2TG4N6mbusl0HkEHM+zddfsscceSx988EFizN1OTvj/yiuvdHIT9F0CEpCABCTQlgQUPdvysuiUBCQgAQl0GoEpU6bYvb3TLpr+SkACEpCABCQgAQlIQAJdS8CJjLr20towCUhAAhIYbgJGcA03ceuTgAQkIAEJSEACEpCABCRQnYCiZ3UuHpWABCQgAQlIQAISkIAE2piAY6O28cXRNQlIQAISkEAbELB7extcBF2QgAQkIAEJSEACEpCABKoT+L//9/+mYiR9bB84cCB99NFHeWiROBZrLI0dOzZ97nOfq27UoxKQgAQkIAEJdD0BRc+uv8Q2UAISkIAEJCABCUhAAp1LYO3atVn0LEZ2sv3xxx+nTz/9NO3YsSM3Ls7H+r/8l//SuY3WcwlIQAISkIAEBk1A0XPQCDUgAQlIQAISkIAEJCABCQwVgT/7sz+raprZ2/fv358WLVpU9Xw7Hdy8eXNiqZVqzUA/d+7cxGKSgAQkIAEJSKB5AoqezTOzhAQkIAEJSEACEpCABCTQBgQiqrMNXKnrQj3xEsFzw4YNdct7UgISkIAEJCCB5gk4kVHzzCwhAQlIQAISkIAEJCABCYwwAQTP4hieI+yO1UtAAhKQgAQk0GYEFD3b7ILojgQkIAEJSEACEpCABCTQOwSmTJnSO421pRKQgAQkIIFhJKDoOYywrUoCEpCABCQgAQlIQAISkECRwM6dO4u7bktAAhKQgAQk0CICip4tAqkZCUhAAhKQgAQkIAEJSEACEpCABCQgAQlIoD0IKHq2x3XQCwlIQAIS6HACnTKZRodj1n0JSEACEpCABCQgAQlIQAINEVD0bAiTmSQgAQlIQAL9E3BCjf4ZdWoOZl42SUAC7UXAiYza63rojQQkIAEJSKDdCCh6ttsV0R8JSEACEpCABNqKwKeffpoeffTRtvJJZyQgAQlIQAISkIAEJCCB+gQUPevz8awEJCABCUhAAj1OYP/+/WnUqFE9TsHmS0ACEpCABCQgAQlIoLMIKHp21vXSWwlIQAISkIAEhpnA7t270wknnDDMtVqdBCQgAQlIQAISkIAEJDAYAoqeg6FnWQlIQAISkIAEup7Ajh070imnnNL17bSBEpCABCQgAQlIQAIS6CYCip7ddDVtiwQkIAEJSEACLSfw3HPPpTPOOKPldjUoAQkMjgATGZkkIAEJSEACEpBALQKKnrXIeFwCEpCABCQggZ4n8Pjjj6cJEyakyZMn9zwLAUigHQkcPHiwHd3SJwlIQAISkIAE2oCAomcbXARdkIAEJCABCUig/Qi89NJLaePGjWn+/Pnt55weSUACScHTD4EEJCABCUhAAvUIHFnvpOckIAEJSEACEpBALxIgwhPBc9myZemkk07qRQS2WQIdQcAu7h1xmXRSAhKQgAQkMCIEFD1HBLuVSkACEpCABCTQLgQ+/fTTtH///sQs7UxaxBiedGm/8cYbFTzb5SLphwQkIAEJSEACEpCABJokoOjZJDCzS0ACEpCABCQwdAT+3//7f1l0RHz8xS9+kd5///3EsaHsxvrZz342jRo1Kp1wwgl5lnaiOx3Dc+iusZYl0EoCRx99dCvNaUsCHU3AyOeOvnw6LwEJDAEBRc8hgKpJCUhAAhLoTQJDKcz1AtHvf//76ZFHHkmnn356Xi666KI0bty49LnPfW7Imv/rX/86HXmkt0NDBljDEhhCAkRp/+pXvxrCGjQtAQlIQAISkEAnE/Auv5Ovnr5LQAISkIAEuoTAn/7pn+aWfOtb38oRl8PVLAXP4SJtPRJoPQGGpRg9enTrDWtRAhKQgAQkIIGuIKDo2RWX0UZIQAISkEA7ELBb2cCuwne/+90sXFxxxRUDM2ApCUigJwm8/fbbeUiKnmy8jZaABCQgAQlIoF8Cn+k3hxkkIAEJSEACEpDAEBH48Y9/nN56662k4DlEgDUrgS4m8Nprr6UvfOELXdxCmyYBCUhAAhKQwGAIKHoOhp5lJSABCUhAAhIYFIG//Mu/TBdccMGgbFhYAhLoPQLPPfdcFjzHjBnTe423xRKQgAQkIAEJNERA0bMhTGaSgAQkIAEJSKDVBN577730xhtvpFmzZrXatPYkIIEuJ/Doo4+mf/Ev/kWXt9LmSaBxAk6m2Dgrc0pAAr1DQNGzd661LZWABCQgAQm0FYG//uu/Tqeddlpb+aQzEhgMgQceeCDdcMMNDZt49tln0+LFi9Mnn3zScJl2yojf+E87iqnW8WKewWzffffdadKkSWnmzJmDMWNZCUhAAhKQgAS6nIATGXX5BbZ5EpCABCQggXYl8M4776R/9I/+Ubu6p18SaJrA66+/3nSZTi5w9NFHpzvvvHPYmrBnz560YcOG9JnPfCYtX7582Oq1IglIQAISkIAEOpOAkZ6ded30WgISkIAEJNDxBD744IM8a3vHN8QG9BwBhmY4//zz0xFHHJEXIh1ZVq9enZctW7bkCEgiP0nFiE4m35k+fXouRz5SOTKymD9nqPKHPNSPrWuvvTZHmIYdok05Tl2Rj7wRhRr+c44UEaocX7BgQVq/fn3FNjZqpagv7GCfer7+9a+n/fv31yrW8PFf/epXiRna/+f//J/ptttuS6tWrcrjeCp4NozQjBKQgAQkIIGeJmCkZ09ffhsvAQlIQAISGDkCiCnjx48fOQearPl//+//nV566aX0N3/zN2nv3r3pwIED6cwzz0zPPPNMk5bM3ukE/tW/+lfp7LPPTk888UQWFe+77750yy23pDVr1uSm8bnYtGnTYc1EJCTfypUr06JFiyoiJBGT5557bnrzzTezXcRQ9jleLSFOIjDy2ZsxY0aOehw1alSfrNu3b8+iJz69+uqracKECTkfAieCba20b9++/PlmfEDy4i9LLV/CDsIny7vvvpuX+fPn51MLFy6MLE2tEU+POuqoNHbs2PT7v//76Utf+lK68sor87GmDJlZAhKQgAQkIIGeJaDo2bOX3oZLQAISkEArCfCAbmqOwBe+8IWO6N6+c+fOLGAhWP3BH/xBQsyhW/6xxx6bG7xkyZLmGm7ujieAYL9u3boc1Ynw2GgX77feeitP3hWRirNnz04IpiTGp7znnnuyIImgXm+8SkRMEmPihmBa7Fo/efLkfB4BkrEvETyr5cuZSn+YDX3evHn5KD489thj6eOPP+5X9ESoRQg+7rjj0jHHHFOZoIzu6ANJf/d3f5f+3t/7ewMpahkJSEACEpCABCSQCSh6+kGQgAQkIAEJtIiAM6e2CGQbmfnhD3+Y7r///vRv/s2/yZF3beSarowggVNPPTURSUlk4znnnJPmzJmToyIH4xLCJCkih2N/MDY7uayCZydfPX2XgAQkIAEJtAcBx/Rsj+ugFxKQgAQkIAEJtBkBRK0HH3wwXXfddQqebXZtRtodun2zENlI1CXRkcVEVOWJJ56YIvoyxu48+eSTc+Tl888/n7PHcXYoc+GFF+bP3LRp0+pGVhLhSaJuIpC3bt2a98t/xo0blyNLd+3aVclHFCiRmBMnTszd6cvl6d4e/rEePXp0zl+2Xd4nahURmK731Ldt27ZyFvclIAEJSEACEpDAsBJQ9BxW3FYmAQlIQAISkECnEHjooYfSH/3RH2VxqFN81s/hIXDxxRdnoZFhLRAgr7nmmtytG0GRyYwQ/xAB2S4OfYGwSdd2usYXj4fX2OJ4va7t5KULOWI8UaaMHxpDLYSdWBORig/YRehEiGUs0ejqfumll1Yt/xd/8RfZD/zEX/L3lxCAWRBar7/++jRlypT+inheAhKQgAQkIAEJDCkBu7cPKV6NS0ACEpCABCTQiQSIUkNI+qf/9J92ovv6PMQEEAEZx7M8lieCIkukakNeRNf4yFNcE7lJZGUjXdsRGLFPpCbCZESHln2KfMV62C77yjGiNEn/7t/9u4To318KDpEPIZbFJAEJSEACEpCABNqBgJGe7XAV9EECEpCABCQggbYi8OMf/zidddZZbeWTznQ3AbrLE7l52WWX5chKxMzFixfniEuiP4vLf/yP/zFPeMQxIjhJRJ8OVWKm+GL9sY1/+GmSgAQkIAEJSEAC7UjASM92vCr6JAEJSEACEugBAtWi4Nql2T//+c/TJZdc0i7u6EcPEChHXkYUZTlycyhR0G3+iSeeOKwKIzgPQ+IBCUhAAhKQgAQ6gICRnh1wkXRRAhKQgAQk0K0EiBhrt/TRRx+lDz74IP2Df/AP2s01/ZGABCQgAQlIQAISkIAEGiSg6NkgKLNJQAISkIAEJNAbBD788MOaE8P0BgFbKQEJSEACEpCABCQggc4noOjZ+dfQFkhAAhKQgAQk0EICe/bsSb/61a9aaFFTEpCABCQgAQlIQAISkMBwE1D0HG7i1icBCUhAAhKQQFsTGD9+fPr85z/f1j7qnAQkIAEJSEACEpCABCRQn4CiZ30+npWABCQgAQlIoMcItPMESz12KWyuBCQgAQlIQAISkIAEBkxA0XPA6CwoAQlIQAIS+B0BJuRRLPsdj07easfJlTqZp75LQAISkIAEJCABCUhgJAgoeo4EdeuUgAQGRODZZ59NixcvTp988kl64IEH0g033NCUnWL5WgXDbiN5a9modbyWzaizVjmPS0ACw09A4XP4mVujBCQgAQlIQAISkIAEWkngyFYa05YEJCCB4SKwaNGipqs6++yzE0sjqZm8jdgjz1DYbLRu80lAAhKQgAQkIAEJSEACEpCABHqJgJGevXS1basEOpDAa6+9lqZPn56IutqyZUulBREd+d5776Xzzz8/nycP0ZSkYrmIDo1Iy/fffz9HjK5fv75iO8pFBeW8RJViv1gHeYvH8aleCptEqrKNLdr28ssv1yvmOQlIYJgJOEzBMAO3OglIQAISkIAEJCABCQwBASM9hwCqJiXQbgRef/319MILL6Sf/exnac+ePenAgQPpggsuSJs3b243V/v483d/93dpzJgxaeXKlYnIzmrd2Z944okcQckaIfG++/4/e+cfs2WV5vfbrU0L8UdFutIwUmS2Bd1poZRusEKaMIm4u9PMjCQwKmjitKMDdghTMGmIrGFi+wdmCdvRESeT1IiOkOCuqd0BW520YMZsKAu7XcVmFwkzdjVFqQ5ik21L389Zr3vOe3M/v973ed/n1+ckz3vfz33Ouc51Puf58d7f5zrnPFvcfPPNxe7du8fVe/HFF4v58+ePs3/8+PHiJz/5ScER261ES4QQytDG0qVLC2ySuI74+tBDDxXLli0rFi5cOK6d6hNEV9o7evRosrNly5bi6quvLu6+++5q0ZF6vmLFijQesGD37M9//vPFP/gH/6D41V/91ZHiYGclIAEJSEACEpCABCQgAQlIYPIEFD0nz1ALEuhbAj/72c+K/fv3F2fPni3+8T/+x0no/NznPldce+21xS/90i8Va9as6VvfcYxozW9961sFoiBp1apVSXBMTz77g8i4a9euYseOHUlEfOqpp5IA+dFHHyUBkmKPPPJIKo0omqcNGzYUM2bMKBYtWpTE1XPnzuXZ484XLFiQniOcHjlyJJ0jJtMuj0hf+tKXWoqe9ItEu7S/cuXKAlvPP/98mBnZ48aNG4uPP/64+B//438Up06dSuMNo7Vr1yYxe2TBDGnH+zmikkhskwQkIAEJSEACEpCABCQwuAQUPQd37PRcAk0J/OEf/mGxZ8+eYt26dcW//Jf/smnZQc4kqvLEiRMpypNIwdWrVxf/9t/+22nr0r59+1IU6rQ1OAINXXPNNQUPROGvfOUrSWR+/PHHE2eEb9NwEVBcHK7xtDcSkEDnBPzRs3Nm1pCABCQgAQm0Q8A1PduhZBkJDBgBIjwRPDdv3lz8+q//+oB5/wt3582bV9x0003FsWPH0sV8Tc8oxXRzHmwSRGQg0+FnzpyZolmjHlPJ66bGhz3qnT9/vpg9e3aYbetI9CdT3ZnaHmuLVqNJ6wzF9HfaZX3PiBytK+u1IkXCEq1L1DICt0kCU02gnyNQp7rv2peABCQgAQlIQAISkMCwEFD0HJaRtB8SyAggDhHhyXqIg5yY1szUdqavN4oGu/POO5NoSD6RgayrOXfu3OKxxx5LgiTXESKZNl1Nf/Inf5LsEiGKqHb99ddXizR9zjqjiK2IpTyYLs/zVmnWrFmpPdq99dZbU1Rjqzqjns+yAv/sn/2z4oc//OGoo7D/EpCABCQwBQT4AbXuB9JGTfG/RWyU2KhMP1/nR1f8r/5Y2+h6P/dF3yQgAQlIQAKNCDi9vREZr0tgQAmwNiRreA7LlPaYvl4dDgTHSKzjySNPCJhsbpQnBEke/ENP+qf/9J8WL7zwQl5k3FT1EDBz22EjKiGWxpqhca3RMa/LudFkjUjVX/9H/+gfFf/pP/2ntNkRYnG/Jcez30ZEfyQgAQm0T4D/n0Yp8cNy/v/NKPXdvkpAAhKQwOgQMNJzdMbano4IAXZpZ9MiU28IEDFBdGn1sWTJkrQxU2+8Gp5WeW3HsgXD0yt70m8EFLD7bUT0RwLdIxDL0cT3NN/bPGJjQpa+IQKSyE8SeRHRyUaEfJ9TN5bIqUZG5uUbeU0ZbGDr4YcfThGmYYdo0/ifIcpRNqJQw3/ySBGhyvW77rqrePrpp0vbsXFinR/RXtjBPu3cf//9BZtBmiQgAQlIQALDQEDRcxhG0T5IICPw3//7fy9uueWW7IqnVQIR3ZBHi1bLTPR5RHAimuQP1qKMtTwnatt6RfGFL3yhb8VjbhZNw0HAsRyOcbQXEqgjwCyQ+K4+evRoWgpn6dKlxc6dO9Oj0UwCRMLdu3cX27ZtGzdTg/8pVq5cWZw5cyY1hxjKc67XJcRJBEba/slPflJ8/PHHlxWL9avxifW/L168WLz77rulEHtZhc8usD75+++/n/zDT/zF71YJ4ZPHuXPnikcffbR46623WlUxXwISkIAEJDAQBBQ9B2KYdFIC7RP48z//8+Jzn/tc+xUsKYEBIsCyBZ988klx4cKFAfJaVweRgMLnII6aPkugNYFly5YVBw8eTFGNlGaKdyOBMrf205/+tHjnnXcK6pNWrVpVZnPt5MmTaVPDn//852WZskB2gohJYh3yEEyz7IJNEkkIkGzmyKaOUa7VFHw2c1y7dm2qj09EbCKYtkoItQjBfMfS3vLly1tVMV8CEpCABCQwEAQUPQdimHRSAu0T4J/ta6+9tv0KlpTAgBHg9c3r3CQBCUhAAhLolECsFU6kJRsK3nHHHUms7NROXh6hkIRNUjxPT/wjAQlIQAISkEDPCCh69gy9DUug+wT+z//5P8Vf/MVfFL/0S761u09Xi/1C4H//7/9d/L//9//6xR39mCSBflw/sx99miRmq0tAAp8RYA1MHkQ2EnVJdGSeiKqcO3duEVGVsXbnjTfemCIvY13puE5d6nz5y18ufvjDHxaLFy9uGjlKhCeJtpl6fuTIkfS8+mf27NkpspTNKaMcUaAzZ84s5s+fn6bTx/Woy/T28I8jPxJSvlUiapXp7Uy9p7033nijVRXzJSABCUhAAgNBQGVkIIZJJyXQHoErr7yyvYKWksAAE7j66qsH2Htdl4AEJCCBXhK48847k9DIEhYIkA899FCa1o2gyGZGiH+IgJzny1wgbG7ZsqXYtWvXuOvRF2xRPqa/x/XqkSnkjzzySIoyZf3Qa665plokPSciFR+wi3CJEMta5DHVff369UVd/X//7/998gM/8ZfyrRICMA+EVtb0vPnmm1tVMV8CEpCABCQwEARUSAZimHRSAhKQgAQkMJwEclGhn3rYr371EyN9kcAgEkAEZB1PHnlCUMw3OKyL+I6p8Xm9OCdyk8jKdqa2IzBin0hNhMmIDq36FOWijThWfeU6UZqkf/Ev/kXxwgsvpPNmf4JDlEGI5WGSgAQkIAEJDBMBIz2HaTTtiwQkIAEJSEACEpCABCQwrQSYLs/6oBs2bEiRlYiZDz74YIq45AeU/PGv/tW/SuuIci2mnhN9OlWJneLz9uMc//DTJAEJSEACEhhmAkZ6DvPo2jcJSEACEpCABDomUBfh1bERK0hAAiNDoBp5GVGU1cjNqQTCtPlDhw5d1oQRnJch8YIEJCABCYwQASM9R2iw7aoEJCCBYSGgKDUsI2k/JCABCUjg7rvvFoIEJCABCUhAAlNAQNFzCqBqUgISkIAEpo4AU/NMEpCABCQgAQlIQAISkIAEJCCBZgQUPZvRMU8CEpCABCQggZEjoLA+ckNuhyUgAQlIQAISkIAEhpCAoucQDqpdkoAEJDDMBBCknN4+zCPc+775+ur9GOiBBCQgAQlIQAISkIAEJktA0XOyBK0vAQlIQAISGCOgGOvLQAISkIAEJCABCUhAAhKQQP8QUPTsn7HQEwlIQAISkIAE+oSAU9z7ZCB0QwISkIAEJCABCUhAAhMkoOg5QXBWk4AEJCABCUhgOAk4vX04x9VeSUACEpCABCQgAQmMFgFFz9Eab3srAQlIQAIS6BsCiItGVPbNcOiIBCQgAQlIQAISkIAEhoqAoudQDaedkYAEJCABCUhAAhKQgAQkIAEJSEACEpCABBQ9fQ1IQAISkMBAEXDDoIEaroF11gjUgR06HZeABCQgAQlIQAISkEAioOjpC0ECEpCABCQgAQlkBFzTM4PhqQQkIAEJSEACEpCABAaUgKLngA6cbktAAhKQgAQkIAEJSEACEpCABCQgAQlIQAL1BBQ967l4VQISkIAE+pSA09v7dGCGzC2jPYdsQO2OBCQgAQlIQAISkMDIEVD0HLkht8MSkIAEJCABCTQjgLDump7NCJknAQlIQAISkIAEJCCB/ieg6Nn/Y6SHEpCABCSQETACL4Ph6ZQQ8DU2JVg1KgEJSEACEpCABCQggWkloOg5rbhtTAISkIAEJkugX6PwnHY/2ZG1vgQkIAEJSEACEpCABCQgge4RUPTsHkstSUACEpDANBEwEm+aQNuMBCQgAQlIQAISkIAEJCCBASWg6DmgA6fbEpCABEaVwHvvvVccP36877r/+uuv96VffQcqc+i//tf/WvzkJz/JrvTHKX69//77/eGMXkhAAhKQgAQkIAEJSEACEyKg6DkhbFaSgAQkIIFeEPjP//k/F0R5/uEf/mEvmm/Y5v/9v/+3eOedd4oLFy4UZ86caVjOjF8QgNcnn3xS/Nmf/VkBv35KJ06cSD7xejNJQAISkIAEJCABCUhAAoNJQNFzMMdNryUgAQmMJIHf//3fL6677rri5z//efFHf/RHfcMAvz73uc8Vf/tv/+3iP/yH/9A3fvWzIzCbN29e4sZ5vyReV7y+Zs2aVfSTX/3CRz8kIAEJSEACEpCABCQwKAQUPQdlpPRTAhKQwIgTIOrub/yNv1HMmDGjWLlyZd+Ii0QpIo594QtfSCLef/tv/81ozxavVaI84YTo+ff+3t9L/Pol2pOxXLFiRTFz5swksBvt2WIwzZaABCQgAQlIQAISkECfElD07NOB0S0JSEACEhhPADHqN37jNwp2SV+6dGnxv/7X/ypOnjw5vlAPnhHZiXA3e/bs5Nuv//qv9zxC8ODBg8Xdd99dPsCSPye/lykfS7ghGHOt14koz/Pnz6fXF77weusHv3rNxfYlIAEJSEACEpCABCQwiAQUPQdx1PRZAhKQwIgR+C//5b+kKM/FixennrOuJ4JUr6eSE534ox/9KPkSQ/Kbv/mbxR//8R+nNT7j2nQf16xZUzz//PPlg/bz5+T3KkWUJ+MXKcTFXkd78noKv3iN/f2///dTtCevP5MEJCABCUhAAhKQgAQkMFgEFD0Ha7z0VgISkMBIEiDajghKEmIU6Z/8k39SfPzxxwWbzvQq4RdRivPnzy/9+it/5a8k4Qwx1HQ5AZghLMKJxHjedNNNPY/2JGqY6GFeV3nidddrcT33x3MJSEACEpCABCQgAQlIoD0Cip7tcbKUBCQgAQn0iMCRI0eKa665pliyZEnygOntPEgRIZieTPOfWMuTyM5qwi+mShPVaPoFAXgQBRvRlL/I+cVY9iraEzE2xjJ/jRFdzFqyru2Zj5bnEpCABCQgAQlIQAIS6H8CV/a/i3ooAQlIQAKDTiBEyon04+/8nb9TfPLJJ8X27dtTdSIrn3rqqeLDDz9Mz5ctW1b8m3/zb4oLFy5MxPyE6/zNv/k3i1/5lV9JUYoY+fznP582Wfrn//yfJ5s333xzWg/ypz/96YTb6FZFmE1mDLrlx4033lhcddVVxZVX/uW/H/j16aefFn/2Z3+Wmrj11luLv/W3/lbxP//n/+xWk5Oy86//9b+eVP28ckQo59c8l4AEJCABCUhAAhKQgASmjoCi59Sx1bIEJCABCWQEFH0yGJ6OFIF+EJxHCridlYAEJCABCUhAAhKQwBgBp7f7MpCABCQgAQlIQAISkIAEJCABCUhAAhKQgASGioCi51ANp52RgAQkIAEJSEACEpCABCQgAQlIQAISkIAEFD19DUhAAhKQgAQkIAEJSEACEpCABCQgAQlIQAJDRUDRc6iG085IQAISkIAEJCABCUhAAhKQgAQkIAEJSEACip6+BiQgAQlIQAISkIAEJCABCUhAAhKQgAQkIIGhIqDoOVTDaWckIAEJSGDQCbz99tvFkiVLigcffLD49NNPB707+i8BCUhAAhKQgAQkIAEJSKAnBBQ9e4LdRiUgAQlIQAISkIAEJCABCUhAAhKQgAQkIIGpIqDoOVVktSsBCUhAAhLoEoGI/rziiisKHs8991xpmWhQokIjj+Prr79e5n/wwQfFHXfcUeYTRYq9PH3nO99pmB9t08bDDz9clst9yG15LgEJSEACEpCABCQgAQlIoB8IKHr2wyjogwQkIAEJSKABAUTHdevWFSdPnixLrF+/vhQ2H3/88WLv3r1lHiebNm1KwiaC6Pbt24vDhw+X+djZvHlzgRhKQvDcsWPHuPxFixaV9iODNnbt2hVP03lVPC0zPZGABCQgAQlIQAISkIAEJNBjAoqePR4Am5eABCQgAQk0I3Ds2LEkeB49erS4dOlSce7cuWL16tXFs88+W675uXjx4uLUqVMpnzInTpwoFi5cWJqlPPXI43Ho0KHi+uuvT8LowYMHk73Ipx1Sbp/n0cbFixeLBx54IPlEHZMEJCABCUhAAhKQgAQkIIF+JKDo2Y+jok8SkIAEJCCBzwicPn06na1YsSJNLZ89e3aK3Dxz5kyBALlq1aokQBKdydR2prJHFOeMGTOKlStXpvLUIz/fICkE1Q0bNiQRlIaWLl2aRM2w/5kbxfLly4t58+YVYTOue5SABCQgAQlIQAISkIAEJNCPBBQ9+3FU9EkCEpCABCTQgsB7772Xojdvu+22FL25b9++VIOp7Aicsa7nPffck/J37tyZ8pmmfuutt6Yoz/nz57doxWwJSEACEpCABCQgAQlIQAKDSUDRczDHTa8lIAEJSGBECCxYsCD1NKa3xxT16hT2EDdjevprr702jtAjjzxSiqOs60mUJ+Io09aZyh7RocePH09rhCKIzpw5c5wNn0hAAhKQgAQkIAEJSEACEhgUAoqegzJS+ikBCUhAAiNJYNmyZUmYjOntsUs7GxDV7dxOORLT3qs7t1OXTZAQOrHLup9r1qwZN/096jPlnansJglIQAISkIAE+p/An/zJn4zbuLD/PdZDCUhAAlNPQNFz6hnbggQkIAEJSGDCBBAm9+/fn4TKMMJGQlu3bk2i5O7du9ManJHHkanuTHtns6LnnnsubVSU5z/xxBPlRkdEgMbUd8rEhkXUN0lAAhKQwNQS+PM///PUQByntjWtDysBZnf8tb/214o//dM/HdYu2i8JSEACEyJwxdg0uUsTqmklCUigLwncfffdxfPPP9+XvunU6BIgwtCvm9Ed/1Hvua//UX8F2H8JNCbAj1S///u/X/zGb/xGisRvXNIcCTQmwA+hf/2v//UkfP7Df/gP0+upcWlzJCABCYwOASM9R2es7akEJCABCUhAAhKQgAQk0CcEPvzwwyR44g7CJ89NEuiUAFGev/zLv1xcffXVxa/92q+l15I/NHdK0fISkMCwElD0HNaRtV8SkIAEJCABCUhAAhKQQN8SiAhPHCTSk+cmCXRKgNfNb/7mb6Zqc+bMKf7u3/27xY9+9KNOzVheAhKQwFASUPQcymG1UxKQgAQkIAEJSEACEpBAvxKIKE/ETlKInkZ79uuI9adfEeX5q7/6q6WDX/rSl4z2LGl4IgEJjDoBRc9RfwXYfwlIQAISkIAEJCABCUhgWglElOesWbNSuxxD+JxWR2xsoAnkUZ7RkQULFhjtGTA8SkACI09A0XPkXwICkIAEJCABCUhAAhKQgASmi0A1yjPaDdHTaM8g4rEZgboozyhvtGeQ8CgBCYw6AUXPUX8F2H8JSEACEpCABCQgAQlIYNoIVKM8o2GjPYOEx3YIfP7zny/X8qT86tWry2pEeyJ8XnHFFeU1TyQgAQmMIoErR7HT9lkCEpCABCQgAQlIQAISGDwCgy7i/NW/+leLRYsWFX/6p39abNiwIQ3AF77whVKcmjFjRvErv/Irxf3331/8xV/8xeANkB4PHAF3eh+4IdNhCUigAwKKnh3AsqgEJCABCUhAAhKQgAQk0FsCijS95W/rw0Ng0H9EGJ6RsCcSkMBUEXB6+1SR1a4EJCABCUhAAhKQgAQkIAEJSEACEpCABCTQEwJXjP1SeqknLduoBCQwJQTuvvvu4vnnn58S2xqVwEQJfP/7359oVetJYCgI3HLLLcVtt902FH2xExLoJQEi07x96eUI2PYwEfD9NEyjaV8kIIE6Ak5vr6PiNQlIQAIS6CqBb3zjG96kdpWoxgaJgDeVgzRa+ioBCUhAAhKQgAQkMCwEnN4+LCNpPyQgAQlIQAISkIAEJCABCUhAAhKQgAQkIIFEQNHTF4IEJCABCUhAAhKQgAQkIAEJSEACEpCABCQwVAQUPYdqOO2MBCQgAQlIQAISkIAEJCCB7hD49NNPi4cffrh4++23J2zwgw8+KO64447iwQcfLLBnkoAEJCABCUwXAUXP6SJtOxKQgAQkIAEJSEACEpCABAaEAALlli1bildeeWVAPNZNCUhAAhKQwHgCip7jefhMAhKQgAQkIAEJSEACEpBAVwlEtCMRj5yTXn/99YKNzp577rn0HJGRaEiuxYMyefrOd75T5uW2cvthg7KtUtSL9pYsWZKiOkPw3Lt3b3Hy5Mli0aJFyU8iPimTR23iP/VzX3M/jx49Wrrx4YcfpqjPRr4Hm7JCg5Nok3b/43/8j8mfsBl94nmVRfgf/c0Z5fXCj+oYRbu7d+9O/cBOMGvgqpclIAEJSKCHBBQ9ewjfpiUgAQlIQAISkIAEJCABCUDg8ccfLxAZ87Rp06ZyajkC3Y4dO8rsw4cPF9u3bx83ZZxrYWPVqlVl2boThE3qUycSAufmzZsLxMmJJoTB3M+vfOUrZRuzZs0qbrvttvT81KlTqQmO+MD166+/vmWzCJHr168vy23btq145513yudxUmWB4Llu3bok4kYZ/MwF3Lje6vjtb3+77FMwC6G0VV3zJSABCUhg+ggoek4fa1uSgAQkIAEJSEACEpCABCTQkMDixYsLRMBLly6lx4kTJ4qFCxem6FDEvgceeKC4ePFiytu3b18SOI8fPz7OHpGV1EdEbCetXr26OHfuXNnmoUOHirlz5xZEM9Je+HTPPfe0NIfw9+yzz6Zy4Uce6UlGiLFnzpxJ5V577bV0jOvpSYM/CLVhn/7TzyeeeKLhFPzwARYHDhxIgmfUgyP9QySuMmzQfHk5xiFsILCGiFsW8kQCEpCABHpOQNGz50OgAxKQgAQkIAEJSEACEpDAqBNA9Iup5EybjunacEGUfO+995JAN3PmzDSdPKIdQzykHAImU9HbSTNmzChWrlyZIhZnz56dbE4k6jFvK/xEFFy6dGnKwh/8ihTPjxw5ksTcd999t22/ERnpL/bgQ6Id2qumnAViLKJxXo/+b9iwIVXLGVbt1D2nHvUnY6POrtckIAEJSKC7BBQ9u8tTaxKQgAQkIAEJSEACEpCABFoSqAptRCMSuUgkIonoQcRIxLpm6fTp082ym+YRvUmbO3fuTOWIerz11lvLKfVNK3+W2Wn7TGGnr2+88UZBJCZHnrcztb0df+rKIBTPnz+/LqvpteoYReFG1yPfowQkIAEJ9AcBRc/+GAe9kIAEJCABCUhAAhKQgASGnADRmkRDMk2bSMe6FEJkTAtn+jfi55w5c8ZNb0es5PHII4/UmenoGjZCcCXa9NixY03rI/oRdRkRlFE4/MynjDNdHgE3TxHVynqftNfO1Hbqh3iJPeySmJoe65imCzV/iMhkyn5eL58qnwui7YwRY0f9RjZqXPCSBCQgAQn0gICiZw+g26QEJCABCUhAAhKQgAQkMDoEQqyL6es8z4U6xLPYaTx2Fl+xYkUChCAY0ZHUoW6UmczO4QiWTBEPWxyZMs8ansuWLSsHJ3xmI6UQNSMKlee5oImfMWUc/8Nmaeyzk5jiztN8Gnq1XPV5Pp0cX7HPZk+33357tehlz9euXZv6FvViDGIqfqsxyg3GOISNTvqQ2/FcAhKQgASmloCi59Ty1boEJCABCUhAAhKQgAQkMOIEEOu2bNmSRDdQIJL93u/9XkmF/Ng4qLw4dsJUd6Z+k4jGjGno6cLYHzbxYaOjiSQESnZax5c8hc1cYIx86uSRpQiGuXhLOSJVcz9/+7d/+7I2QsSlfKdT2ykfSwAg0P67f/fviptuuglTTROc9u/fX44BhfHzqaeeKtfnbDZGufG8T/iwZ8+eKZ2en7ftuQQkIAEJtE/girFpDJfaL25JCUig3wncfffdxfPPP9/vburfiBEgEqPV1w03XkwX46bv7Nmzxbe+9a3id37ndyZ8M0cECzde3JzFDWMj7G+//XbZHlEr7dZrZK/d60TNkPIbyKjbif+dlCWaiJs6InFacQlfPE6OQDuv/8m1YG0JjA4B30/DM9Z8B+7YsSOt69nJ91HUQ7Dk+zO+AyHD/xIIqlOVsE+kKKIr/ysMevL9NOgjqP8SkEArAle2KmC+BCQgAQlIYLoJEI2RT5ebSPvc9MR6X53Un2i9TtqIsnViZ+R1cpxOnzvxy7ISkIAEJCCBOgIIlbGberu7zYedBQsWpFMEUx6REEGnUvCMdjxKQAISkMDgEHB6++CMlZ5KQAISGCoC3PDEWmKsScaaYZGIvGS6HUcSkRVEI/Corl+W2yE/oifjOjdVnN91113FSy+9lOpTjrXTiHqsprp6Tz/9dNk+PlMmUpQP/6L9yG92pGxePu/n9u3bx1Ulrx2fqYRNImaDL77BIaI8mYrIWmvYJLXqA/aif2E3302Y88iPtpLhsT/UhR/jVh27KONRAhKQgAS6TyD/7M4/o+M8/xzvfuuNLfLdE2uB8uNfLlRWv0/C1zjSp+r0eVpimv3WrVsbN2qOBCQgAQmMJAFFz5EcdjstAQlIoLcEENm4aWGKNdPeWWPrlVdeqXWKG6Bnn3027XZLWdYa27x5cxLqEPEQB8MOO8m+++67pZiXGzx//nzxve99r3j11VdTm+ziyjTvOuGzWo+dYbHNY/78+cWTTz6ZikQ/uGnDt2bt5zbrzrkJzPsZu8xGWXjFumNxrdnxmWeeSWuM4RfT8LhRxL9YM45dgbHZqg/4xRiw2zC2Lly4MC4KlzxsR/6pU6fSGmkhWOPjiy++mLifOHFiwssVNOureRKQgAQkcDmB+G7is7vu0cmU8sutT/wK3z3hT9UHnkde3TFmSFT71sn348Q9/8v1SvGLPpgkIAEJSKD/CSh69v8Y6aEEJCCBoSOAMEYiEpHEdPZt27al81Z/uCFi2jqRIYiRZ86cKe2w6QI3Po1uRrhJiogSdnF955130vqhrdpEVMU2j5UrVyZhFbEUP/AnbtrIR0h9+eWXx0WDtrKPLdYzpZ3wb+PGjZdt/NDKTp6/Zs2aUmBkF15u0hAmq6lZHxCQ8avKjU0bSPiNUJvnM5b33ntvceDAgbIp+ES/youeSEACEpCABCQgAQlIQAISmEICip5TCFfTEpCABCRQTwChkojJmTNnlgV4XpeWLl2ayjIVjultRBZGqrMTedXjddddl6bTxfWwVycERplWx9OnT6f1xGLaHUfWJiOqtJNEBGb0JerBZn4DJlGmG8dmfcCvjz766DJuc+bMSU2H30yVzxmwyYNJAhKQgAQkIAEJSEACEpBALwkoevaSvm1LQAISkEBLAhG9SaQimxQgsPXT2pD4VJ2CF5GoLTvXJwUa9WHWrFltechU+SoDoj9NEpCABCQgAQlIQAISkIAEekVA0bNX5G1XAhKQwAgTIIKRyEYiBSPxvFVCSKPO8uXLi2PHjqVIyKqdRjaIvsyjOmMNSiI+J5rYQZYp4K3WBW1lP6I6cwYRRdmq7mTzm/UBv6699trLuL333nup2Tq/J+uP9SUgAQlIQAISkIAEJCABCXSDgKJnNyhqQwISkIAEOiIQU9aJiCSx6c2uXbtqbTCdPd8x/ezZs2ktTtaprNrBAJvq8KhLrD8ZAiVrThI1yhqUE034hVDJRj2R2Pin0S7rUaZ6JJqV9Tzxj42FSGyWdPjw4WrRrj9v1gcaYw1TeIZfcDt58mTyI/xm7GLjIvjSfziYJCABCUhAAhKQgAQkIAEJ9IqAomevyNuuBCQggREmgFj22GOPJZGPtSDZjf2+++6rJRIbBcUanKyZuWPHjiRWVu1gi8jLrVu31tpiR3SiE1uVq61cc5HNefbs2ZME21jTko1/2CEd3zpJ9BPhM/p51VVXjdvIaCJial37+IWQieCLmNmqD2wKhW+5X1/72tfKdT7JYxMqxgUG8MV+o82k6nzymgQkIAEJSEACEpCABCQggW4TuGJsDa5L3TaqPQlIoHcE7r777uL555/vnQO2LIEaAohhvfy6IUoREY7p8Yh0pokTgOVDDz1UPProo5OKkp24B4NXs9ev/8EjpscSaEzg+9//fuNMcyQggY4J3HLLLf5v1DE1K0hAAoNC4MpBcVQ/JSABCUhAAhKYXgJMVd+yZcu4yE2WJGCdz3nz5k2vM7YmAQlIYIzAN77xjZ7+iOYgSGCYCPij3DCNpn2RgATqCDi9vY6K1yQgAQlIQAKTJMDUcW4mGj0GYc1LpsIjerJmZ/RjotP3J4nT6hKQgAQkIAEJSEACEpCABDoi4PT2jnBZWAL9T8Dp7f0/RqPooZEEozjq9jkI+PoPEh4lMHkCvp8mz1ALEggCvp+ChEcJSGBYCRjpOawja78kIAEJSEACEpCABCQgAQlIQAISkIAEJDCiBBQ9R3Tg7bYEJCABCUhAAhKQgAQkIAEJSEACEpCABIaVgKLnsI6s/ZKABCQgAQlIQAISkIAEJCABCUhAAhKQwIgSUPQc0YG32xKQgAQkIAEJSEACEpCABCQgAQlIQAISGFYCip7DOrL2SwISkIAEJCABCUhAAhKQgAQkIAEJSEACI0pA0XNEB95uS0ACEpCABCQgAQlIQAISkIAEJCABCUhgWAkoeg7ryNovCUhAAhKQgAQkIAEJSEACEpCABCQgAQmMKAFFzxEdeLstAQlIQAISkIAEJCABCUhAAhKQgAQkIIFhJaDoOawja78kIAEJ9DGBTz/9tHjwwQeL119/fcq9fO6551JbtDlqqVnfP/jgg+KOO+5oewy+853vFDxapekc21a+mC8BCUhAAhKQgAQkIAEJjC6BK0e36/ZcAhKQgAQkMNwE7rnnnoJHN9IjjzzSDTPakIAEJCABCUhAAhKQgAQkMC0EjPScFsw2IoHuEjh48GBx99131z5oqVEe9UwS6DUBIgG3bNlS7N27t1ixYkVBNCIpIgSvuOKKggeRoHl0JlGhkceRKEWiFSNhJ/KXLFlSvP3225FVfPTRR8X9999f5kebUaBRXezjx+7du2t9ivr5EVu579WISvzCv/B1On3J+7l9+/bc7RTxWWWaF8gjPTmHCeWjH4xPN8YWdg8//PC4qNLq2OcRwvjy9NNPJ6bVcc/991wCEhg9AvG9kn9mdEoh/+zrtO6glud7avXq1eO+R/O+VL/n8rzqeSdlGaf8+7Nqy+cSkIAEJCCBTgkoenZKzPIS6AMCa9asKZ5//vnaB+41yqOeSQK9JjBjxowkmD3wwAPF0aNHUyRiiGUrV64sLl26lB5z584tHn/88eQuN0KbNm0qTp06lfLOnTuXrj/55JNl/rPPPltwnfpPh6IePgAAQABJREFUPPFEsXnz5lIUfeGFF4qHHnoo5dHmrl27yps5bsiOHDlSXLx4sbbumTNnigsXLqS8p556qsD/iSYEUPzCP/zEX/yOG/Kp9AXbOSP4Hj58uOzKbbfdVhw6dKi4/vrry2vNTp555pliz549qR/79u1LIiUMEUM7GVturhlbxgUmGzZsSOMTbcMG0SHGltfAzp07y/Gj3Isvvli8+uqrxYkTJ4qFCxdGVY8SkIAEJDABAnyO8v3Qjc9TZhtM9rtzAl2wigQkIAEJSCARUPT0hSABCUhAAj0ncPz48eTDnXfeWfqycePG4s0330ziFoJcLmghzHGNhGCKmIdYFoJdVcBDhFu6dGkqv2jRomLOnDlJREOEfPnll1PkaYiZ1I36qcLYn1WrVsVpV4/4i9BIe1PpC4wQdnNG8CWSZ6KJH1HihnjZsmWliFu112psjx07VmALBiTGifEixdgytT7Gljbvvffe4sCBA6kMf6gb+eVFTyQggZEhwI86EXUeEd/xY1o+q6AaeQ8g6ubRhXk0PtHs7777buJYF/3IjzLNIuTzAcAf2gk/iVCPaEr8Iq86qyD8jTr4Gqnqd5SNH9EiCj7aDC5Rv9mx2tewjR/YOXnyZFk98qLdMuOzk9xP7N51111lP7EX7KnP7A/G66tf/Wr5oyX1o//VPlTHCn5hj+arzPM86jKrgAf24WWSgAQkIIHhI6DoOXxjao8kIAEJDBwBoim50Zk5c2Z5czN79uzirbfeGteX/AZnx44dKY/oQurPnz9/XNl2nhA9SBsIoXFTxTFst2OjkzIIcwiP3NhVb7Km0hdu/KqMYD0RZp30l7K022xsT58+XSxYsKA0i/hMFCopxjZ4xRitX7++LO+JBCQw2gQQy/Io9oj0r4s8b0WK75h169aV0fj84MLnF2nevHnFTTfdVPBDTaTXXntt3I9Jcb3uGDMX8IsHPwi9//77ZVE+K/NZBZQhSpLvjHxmQC58lpUbnPADUtSHC32jj50kRM3cj/379xevvPJKaSL/8a682OSE79zoJ9979JtofX68IuIfn3/3d383/ZBFXxvNxMAvZk5s27Yt8WHmATMQIoXo3WgGCeXox+LFi1N9160Och4lIAEJDBcBRc/hGk97IwEJSGBgCXCjw00eN3fxiOjOEDsRJ2NqOFOcu5FuuOGGctp8tMuxWxsAVX3ELva5uUNcRciLm9jp9qXq21Q9bza27bQZU9/z8fEGtR1ylpHA6BFAPOtkqY6cEILm8uXLy5kB2IrvGn6QQUBDhENQQ3RjNgKR7q1SlGU9a+zwQIyspnxWAX3gh6mYAYG4yOceAi/22kn4Th9IRNHTt1y0bccGS4qQiGglEW2P0DjRxPfc2rVrU3X6hH/8+FVN9LHZTAz8yvngV76MU6tZBrSHL+2MX9U3n0tAAhKQwOAQUPQcnLHSUwlIQAJDS4AbF6I9ED3rUkyBRvSKG7goFxGL1O80EU2K6Ei0yXQn+kF/WA+Tm+irrrpqynzhBjsYRz9hPRFmUb/dY7TbaGyJ8sxveBETYjrpZMa2Xf8sJwEJDDYBxDw+Z+LzvNE063Z6yWcRkeZ8ZkbKI9ERyNgYj88zvjduvPHGFAEaZRsd4zsGHyNxjujWKNX5Qp3rrruuUZXLrue+0yf6ln/eXlah5gLfE/Dl8zgSz6c6wazZTAz8ajZW5DebZTDV/mtfAhKQgAT6g4CiZ3+Mg15IQAISGGkCcdMaGxMBgxvXfK00hDAEMRKRkTEFPSJm8ugXIkNjrbRUocGfmG7OWl4ROcORdid648zN4BtvvFGcPXs2tUq0TmwYVLVNfxA8iR7i5o3In276Et2uYwTr8CvKTcWx1dgiIhw8eLDkTXROTCcNv/ONp2DGumwRHTsVPmtTAhIYHAJ8TrBRDj8iEdnIchjVtR+71RumuF977bVpdgA/xjE1mvZNU0NgsrMfJjvLYGp6pVUJSEACEphOAoqe00l7ANuK9dM8XpEisAaBwx//8R8PjK+DwHO6fBzAj4dJucxNIkIfN6eIfDx/7LHHkvAVzLmOsIUwGdP7iDQhn0gVIiQRJhESiZpEMIxIH6bBI4rGRjvNnGW6OfWjLkemEFYjSpvZyPOoxxS7WCf0k08+KTfmiemJsUYl/UHsjKn03fal6lfOiMjSfCOjqsic1+3kvNOxZYxYsiCYIF4zdTIilODJ8+AJM147wawT3ywrAQkMNwE+u4nCnMg0bsjwuZP/wMa1PDIyPt9eeumltJlPu1Oj+V4hRcRnnOdreqYC2Z86X6h//vz5rFTz09z3iKKPz9bmNX+Ryw95RE3m0fo8n+oU38k5s7xN/Go2VnV+5/U9l4AEJCCBESEw9quoSQINCYy9DRrmmSEBCXSHwCi8z0ahj915NWgFAmPRWpfGRO2hgeHrf2iG0o70AYHq+2lszd9LYz/gXBoTx5J3Y2s9Xrr99tsvcRwT6i6NRftdogwpnvMZQ6IOdSlDXjyP8hxpL8pTB7tjEZ5lHa61k7AR7YQf2MFetV3sxbX4LKw+x7eoT3nK4Wv4Tnt5PtdzTtRplOoYhh+d9p960e/cbrSNn8EXH6Ms+dTNfQ4GlIvzRn4F47CNvZxBnS+UGbVUfT+NWv/trwQkMPwEjPQc+6Q3SUACEpCABCTQGwJE8zJdPZYuYGmCsRtTN5fozXDYqgQGjgDR4DwiMjCP9I/IzHxWAZsJsaQGswaIGP/mN79Z9plofHYB37RpU8qPyPOywNgJU9yJJCXiHPvtpq1bt6aiRKvzYOmPm2++OfldZwNf+HzEB3ylf0TrR5R7s1kFYQ8/2eGc+vSJvmG3k0QfmYkRfmDvvvvuK01Ul20pMyZwwtgRRXrrrbemXeabzX6IsWL5E/oXfsU6n+E3sxjI55HPIJmAe1aRgAQkIIEBJHAFuu4A+q3L00SAfxB8iUwTbJsZWQKj8D4blj5y88TNc6M0FqFS7N69u6Mb4Ua2Wl3vJ19a+dosH7ETESLW8RyLTCr279/f1tIEzez2U96wvP77iam+jC6BXr+f+Mz6rd/6reLrX//6pD6n+IHn0UcfLb773e92LES2M/oIfCSm/I9KQiRmSv8o9XmyY9vr99Nk/be+BCQggVYEjPRsRch8CUhAAhKQwGcEiKzhh6BGDzbT6CTyZzJg+8mXyfQDXrEJCVxPnDgxKSFhMr5YVwISkEArArFJHRGf7aa6aMgDBw4Ut9xyy5QInu36NcjlqutQw5ho1FWrVg1yt/RdAhKQgAS6TEDRs8tANScBCUhAAhKQgAQkIAEJDB8BoifXrVuXojzzH7i4TsRco8ehQ4dS9GFs2EY5Ui8iEokwZXf7Rr7ecccdaYPAfh89fvjjEcsacIQn10wSkIAEJCCBIOD09iDhsZYA/xA5vb0WjRcl0DUCo/A+G4U+du0FoaGhI+Drf+iG1A71kIDvpx7Ct+mhI+D7aeiG1A5JQAIVAkZ6VoD4VAJTRYB1hvjHguk4pIgKiOeTaTd+tc83A2llL28/pl0Nyq/7rfpmvgQkIAEJSEACEpCABCQgAQlIQAKjTeDK0e6+vZdA7wgwBadb05oWLlyY1sGbaG/YAZOpVyYJSEACEpCABCQgAQlIQAISkIAEJDAMBIz0HIZRtA99SSCiL4nuJALzk08+GednHmlJRkRbUp4H6y1hIxK7hWIn8vOozmgrrkVUKbtIE71ZZy/scoy2I9Izf46NaBOf8xTttLKf1/FcAhKQgAQkIAEJSEACEpCABCQgAQlMNQFFz6kmrP2RJIBouHnz5uLkyZOp/3v37i0eeOCBhiwQNLdv314cPny4LENdbGCL/C1bthTYicQ518hrlL797W+XNnN7jcpXr+MPNiLt2LGjnJ6P4Ll+/frISn0Nf8uLnkhAAhKQgAQkIAEJSEACEpCABCQggR4QUPTsAXSbHH4CTBVHMETovHjxYno0Ez2DyOrVq4tz586lzaPYQAo7TD0/fvx4Ejyr9t54443i7NmzUf2yY7U8Pp06deqycs0uHD16NPmzc+fOVOzMmTNJaD1y5EiR+0s57DtNvhlN8yQgAQlIQAISkIAEJCABCUhAAhKYDgKKntNB2TZGjsDp06dTnzds2FDMmDEjPVauXNmQA2XIRzScPXt2mk4eU9WphNBIokzYe+qpp9I6nqzn2Sjl7XNOCluN6uTXETUXLVqULq1atarMQsjFTu7vihUrUn70vSzsiQQkIAEJSEACEpCABCQgAQlIQAISmGYCip7TDNzmJNCIwD333DMuopLp67feeuu4dT0b1W10vROBs5GNTq+/++67Tafcd2rP8qNHINavff311yfcedafra5BO2FjA1KRtX35oSJfCzh3nSUp8h9T8rzqeSdlGad27Vbb8bkEJCABCUhAAhKQgAQkIIGpIqDoOVVktTvSBBYsWJD6/+yzzyYBkHU5OW8nsaM7U9v37duX1sk8duxYMX/+/NIetkjVjZDSxcofpqAjIPGI9sNWpWhHT2fOnJl8yqe34zMPIlCJRjVJQALTS4Cob6Kvm0V/t+sRP8L4Xm6XluUkIAEJSEACEpCABCQggX4koOjZj6OiTwNPgF3QEQSJ1kQgZMo6YkSjhJAZu6zHTulsErR48eJi2bJlxdKlS9P6oPl0cjYVYs1O8hqlaB8fOM+nqzeq0871uun44fdkovPaadsyw0OAaMJ43SxZsiRFKCLQx6ZdLJlAmXh/5K+taiQi0Y3YwB7vJSKOSXXRj9ihTPyA0IxoRJ2Gn08//XQZTUl9Ihx37949bkmK8Dfq4Gukqt9RNvrGjxm0gV3qB5eo3+xY7WvYDjuxsRo2Ii/ardrN/cTuXXfdVfYTexHZSX3Gic+Xr371qyVT6kf/q32ojhX8wh5+VJnnedR9+OGH0wP7oxbNWx0nn0tAAv1FoNVna/Vzupn3nZTlszj/rGxm1zwJSEACEpDAKBFQ9Byl0bav00aAzYf27NmTREsaRWz87d/+7YbtUx6RgHJ5euKJJ1LUFiIjwkC+GRJlH3vssaZRlbQZNhFQ8Ym2upGIBCMaNU88v+222/JLnkuglgA3aEQfx8ZdvNY3b96cNv2K1zqbY/E6a5W4MVy3bl2BDaKNiZZGhCPNmzevuOmmmwoipiO99tprBWvctvNeePzxx1O12JCMTcXef//9MJXWtr1w4UIZ5Uw5fMY+vtA/+sn7u93E+zzq0yf6Rh87Sdx4537s37+/eOWVV0oT9J1Nx9p9v7711ltF9JM+sXTGiy++mOozTvj8u7/7u4kpfSXKHBYwiLHFJx6M87Zt21Ien0nPPPNM6VeI3qxfTF0ec+fOLWIcKEg/+Dwjj7E2SUACEugXAp1+tjbzu5vR+83aMU8CEpCABCQwzAQUPYd5dO1bTwnwz+qJEyfSjTniAtFr3KSHyBDT2ON5/KMcN/p5WTqC8Ml008iPnd3Ji7aq01F/+Zd/OQkb1MGXfNpr3n60HTarz2kDP7GTi1Cchz/VPOqYJNAuAV5f8fprt06UQ9Bcvnx5GfWMrZ07d6bsiEqOpR4Q3d58880UQR31Gx2jLO9d7PCIDcHyOvkmX/Rh/thyFHfeeWcqwnuJ9xrCJ/baSfgenwtEctO3XLRtx8apU6dSMSJaSbz3ERonmm644YZi7dq1qTp9wr+6Tcvo48svv5w+7+BFoiwP2OBXzge/1qxZk8rxB1GZFPw437hxYxqzEH7xhQh4kwQkIAEI8LnDZ10euc6PL3nkYywJRIR4NdI/6kd0eh5Bjh1+iKMO+XkbdfTDVl4ub/sHP/hBWS2i2hv9KJZHenLeacQ9PkSfqr5H25Gfz2LAwWp+zhJfjLgvh9ETCUhAAhLocwKKnn0+QLonAQlIYBgJIOYhfrH0Q/VmrNP+Ir4RDRgiG/VjXV3OEcg++uijFHlIlOKNN96YIkDJa5YoS8LHSJwjujVKdb5Q57rrrmtU5bLrue/0ib7VCYyXVcwuEIkJX5a2iMTzqU4wIyp00aJF4262WY6DhF/Nxor8WJYjbsbhh02TBCQggYkQQFRkyZOIPufHq+3btydhD5GSH3Djh2DKUDYXIolGJyqdH3fjB6l2/UDwjLax/fHHH5ezBfh858fq/MfkZnY7ibhH8KRtPpPxmx+c+EEtfjyK6Hl84pHPYjDivtkomCcBCUhAAoNGQNFz0EZMfyUgAQkMAYG42eNmjBsx1oWsrv3YrW4yxf3aa69NN31ETDI1OhdIu9WOdv6SAKIwN9iMbf5o98aeqfLchOd1q5HqspaABCQwUQJ8FsXMGCLQIxode3w3EN1PxDqCKIloe75HOk3UR3xEZMVu2G72w1mzNqjXTsQ9oiWzCxByicwnEVV/7733FgcOHEj9YsZDo1kMRtw3GwXzJCABCUhg0Agoeg7aiOmvBNogwD/0CAbtigxtmLSIBKaMADdmiFwTmcaNU0RGEknDjV6kPDKSG03WiHzppZcKNvNpd2p0RHhGxCe2Oc/X9Iz24ljnC3XOnz8fRVoec9/pE33Loz9bGhgrQFQnUZNwjcTzqU4wI0IzZ5a3iV/NxqrO77y+5xKQgAQ6JcDUdD7/iHyv/rjG5y2R6BFZzpFI9U4+sxv5w+cg/4vFdwnlOJ81a1ajKl25zuc+/eXHxLxfbJBJis/nql8hxlLXiPuuDIVGJCABCUigDwgoevbBIOiCBCQggVEjQPRLvq7a2bNni3feeadWkORGFTGMDYhIRM8QxRIpbmgjOgXbMZ06yiB0sgEOUwvbjdghQuaWW25J67khPkb0TNisO4YvbPJDwlemGBLpgz368cYbbxT0l0SU0eHDh9N5/Dl48GA5BZE+cQOK3U5SLB+AfRJTGnft2tWJiQmVpY/0lT5HlBRH/GdcEBPoT/DBL/obKfx+8skn41KqR/2wV2Z4IgEJSKANAnwu8VkYP67xOZR/pjDbII8s55zy1BvkxCZz1X7xI2M7yYj7dihZRgISkIAEBoGAoucgjJI+SkACEhgyAjGdMCIDuQlFqGQKXkRmEqWCeBZTAhHHiFohgvmb3/xmSYQbU9Zb27RpU8pHEK1u2oPQSSQpEZ/Yazdt3bo1FUV45YEod/PNN4+L3Mlt4QtrweEDvtI/RMCIuqbfbNxDf8n/5JNP0s7nuQ38ZIdz8ukTfev05ps+PvbYY6Uf2LvvvvvKZnIhsrw4wZMQMm+99dYkrtJX+hljy5Ebba7FWCHA0r/wK9b5DL8RSMnnwWsApp0ymGB3rCYBCQwpAT5fmNYekY4sw1EXnd+t7sdnYLSHXc4//PDDbjVRayd+KOQHprqEX6SqXzGLYX7NTIE6O16TgAQkIAEJDAKBKwfBSX2UgAQkIIHhI4AQ1ijqBOEshEJ6jhjKuo55+vKXv1w+rcsvMz87ueaaa2ojSavl8udxk8yNMonIxB//+MfpHBEuIinThc/+NLoeZZr1mzIIgNFe1GnnCIM8arSZH/SrzvdoJ+dftUuZfNzq2mnWx+pYIWheuHAhmk7iZiPf6nwpK3oiAQmMJIEQ+ZgNwI8r/KjDD0+IdyQ+Y44cOZKi9vnsQ+wk8YMND8oSfR7fOXn5VHCCf/hs5Ecv7PODGYmd4ENcnKDZltXoI+3yoxmzHPjcZKYCa3jywx/9jFkM+EPCx0h5xH181vNDVPwAFeU8SkACEpCABAaBgJGegzBK+igBCUhAApMiENPJ253aTmN10ZBsAsHNIjezps4JcOOcTysNcWLVqlWdG7OGBCQggTECiHwIeo1mA9x5552JE+JoNYKez3Ki6SP6nPxcIJ0sYARGfsiibR4IirF2JkLkgw8+OG6n+Im2V424R/xlxgPX6RNth+BJG81mMcCTmQJG3E90NKwnAQlIQAL9ROCKsbVeLvWTQ/rSXwT4R8mXSH+Nid4MH4FReJ/1so9Ep3AzvH///hTxEq8grlfX/ow8jvv27Svmj0UKMc0+Emu/ReRLXOvmEZ9I1TaIMF23bl3aiKmuvdWrVw/MFPAqd9ad4wZ9mFMvX//DzNW+jSYB30/dH3e+Yx599NHiu9/9rj/qdR9vX1v0/dTXw6NzEpBAFwgoenYB4jCb8ItwmEfXvvULgVF4n41CH/vl9aQf/UfA13//jYkeDS4B30+TGzsi7IlA5ce1+MGp0Q9uk2vJ2oNAwPfTIIySPkpAApMhoOg5GXojUPf73//+CPTSLkqg9wSYMh03H733pvse+E9195lqcXAI+PofnLHS0/4n0Kv3U6yLuXfv3oaQBiVynanr0zmLoSEwM3pOoFfvp553XAckIIGRIaDoOTJDPbGO+kU4MW7WkkAnBEbhfTYKfexkzC07WgR8/Y/WeNvbqSXg+2lq+Wp9tAj4fhqt8ba3EhhFAm5kNIqjbp8lIAEJSEACEpCABCQgAQlIQAISkIAEJDDEBBQ9h3hw7ZoEJCABCUhAAhKQgAQkIAEJSEACEpCABEaRgKLnKI66fZaABCQgAQlIQAISkIAEJCABCUhAAhKQwBATUPQc4sG1axKQgAQkIAEJSEACEpCABCQgAQlIQAISGEUCip6jOOr2WQISkIAEJCABCUhAAhKQgAQkIAEJSEACQ0xA0XOIB9euSUACEpCABCQgAQlIQAISkIAEJCABCUhgFAkoeo7iqNtnCUhAAkNG4IMPPijuuOOO4vXXX089+853vlPwIHHtwQcfLD799NP0vNM/b7/9drF69eqC43SnvB/Vtjvxq5OysLzrrrt60t9qH30uAQlIQAISkIAEJCABCUhgogSunGhF60lAAhKQgAT6lcAjjzzSNdcWLlxYHD58uGv2OjHUrX70sg+d9NeyEpCABCQgAQlIQAISkIAEukXASM9ukdSOBCQgAQl0RIDowyVLlhRXXHFFenAe0ZR1kYnVqMfnnnuurLt9+/ZxbUdZojxXrFhR7N27t/jqV79aEMVIyusSIRrXyaPu008/nXzDp0OHDpWRntWI0rAVkaT4TZTkSy+9VPqGvbyv1faw0ShFPyKf58HrBz/4QVxOUaz4QL/qUs4zIjnpY9gKn8i75557ihdeeKFYtGhRGTkLxyjLMSJqo63cr927d4+LuqVMzjsfZ9rDb+pgNziGXY8SkIAEJCABCUhAAhKQgAQmSsBIz4mSs54EJCABCUyYACLcunXriieeeKK47bbbkmi3ZcuWJH4hgLVKiGjPPvtsce7cueL6669PQiXCZjUyEttHjx5NZbE7Y8aMJMDldbGF0McRW6QXX3yxePXVV9NzfO0kvfXWW8Uf/dEfFZcuXUpiJ/1EJMTezJkzC/qJkEqbnSSExXfffbe4ePFiqoad999/P53Tr6eeeqptc+fPny+OHz8+ztaTTz6Z+MHhoYceKh599NGCCFF8p+1gDY9vfetbxe/8zu+kfMpTJvIpS2RsjAX5R44cSW3hJ2U3b95cCrRnzpwp5s6dm3i13QELSkACI0uAH2y+//3vj2z/7bgEukmA9xPfy/y/ZJKABCQwjAQUPYdxVO2TBCQggT4ngJh24sSJ0kvEsJUrVyZxrLzY4IS1ORHRNmzYUIqUGzduTP+0N6hSXiayEMETQS4EzjvvvDPZy4VI/vmP/LJymyc33HBDsXbt2lR63rx5xfLly1Pfwh79PH36dJvW/rIYfnNTgt+wIiF6Ij5ONMEvbAX76rqnPK/yYuzuvffe4sCBA8XWrVsTu5wnfT948GByC79ffvnlJKBGW7DlAW8iTEmrVq1KR/9IQAISaEXgG9/4hj+StIJkvgTaJMAsC36kNUlAAhIYVgJObx/WkbVfEpCABAaAAKIYwhf/dK9fv74tj4l0JDpw/vz5ZXkiKPPnZUblhGhE/rmfPXt2mYMYR6ThVKZ2fGvWfp3f9GHWrFnNqk06L1izRABjFI8YK/I/+uijcTzxa86cOalt/CbylanyUZfjjh07Ju2bBiQgAQlIQAISkIAEJCABCTQjoOjZjI55bRFg6mKsw5avG9dW5ZpCIYIQ1dQq5e11Uq+VXfM7J5C/Djqv3bgGY8waiYwviddFiCexDmFeGz/q8qnP6zTs5HU8n34C8X5FICPiECFy37590++ILbZFgCUCGKP8EdPXWxkg8vXUqVPj6mKn0+n9rdoxXwISkIAEJCABCUhAAhKQQE5A0TOn4fmkCcQOwRwnmpgCyrTHTteWmWi9ifppvaknwNRaNmthbUHGF8Fz06ZNpYCCWMYGNjEll/xYqxFRJc+nPs9Zt9DUewKIYEQ/EinYqfgVUZ1Ee0aKiMR43uiIyIooTgRiJF4/rJXZz6nOb/rw4YcfTqnbdazzBsm/9tprx/HEr/feey8Vq/M7r++5BCQgAQlIQAISkIAEJCCBqSKg6DlVZIfYbkRoIRywC+/JkyfL3uaRl1zMo+7yHXvJy+1gi80v8usIWJSJnZCpT7mIKk2Fsz9hL69XtztxVIny2Mzbj/xmR3yNHYqjPu1GQkTBz8jjCAtSoz797Gc/K6f5VllhO7eVt8V5XcQjbdXl5ZGTrfykD9VdlZuNKdNc77///tLX6DO+kOCW9yPGPPIYL/oe/WejlauvvjptlkKZ1157rVizZk35fNmyZcU777xTnD17NgmfCJ4ImwicJLjgE/mkpUuXJnEr55cy/NMTAoiWiJUkxiSmTPM8xLJjx47xNG0IFOtEMh2dcWa8eT+RELPZPKdVCvGb117UZdMifOH10iqFCMhrkYQN/JjqFH7TFu9bHrw3YyOjqWo/WO/atSuNAe3E5wbvb/JZDzTnyVqf8b0Qfuf5MIO178OpGjXtSkACEpCABCQgAQlIQAIQUPT0ddARAW5WicpCcCCSbv/+/cUrr7xSa4MbWm7QifqhLLs0s2MvNrhpJkIv7CB8EGlVFckwzC7D3/ve99LOx9hh7T028MBGs5TvToz9+WNRZRHlF/1geiY2m7XfqI1nnnmm2LNnT6rPtNy4qccv/IvdiLFPfi4a4NuPfvSj4ic/+Unig+DypS99qbSHsIdwQIIjtoMjEXI7d+4sBYjYECSEvtxf1tEjUScSItItt9xS7iLdzE/8unDhQuojO0MjQjYaU+y/8MILaddn+sx02LzP9CF2no581vXLhY/YMZsNbtgAhrbyDU4Yr3xKLX256aabUlnGEH8Z50gRhRbCWQg0IVhFOY/TTyA2swlxk7Hms+SNN95IIjWvZ8YaIRShHIGPzYoiUZ/Pj6h/1VVXFatXr47scUfeB7w2br311vS+ic+wqEvbfPbUvYfGGRp7wmuI9zcCLH5h65vf/Ga12JQ8py3er7yueSDiM3WclAuRk20cDnxGwA0usN62bVu5LidtI3TiD4kjZYInY/G1r32tXOezmk85xpY6JglIQAISkIAEJCABCUhAAlNGYEx8MEmgIYGxF964vDEh69KYsHBpTIArr48JepceeOCBS2Oi06Uxce3S7bffno51ZaNSszxs0wZl8vOom7eRn+dl8/Ool/vJ+ZhwGFnpiK2xG/VxfRtXIHtC3bx+7kdWrDzN8+t8q9qj7zAdE2fTked5qvM/z8/Pc9uMEXar9qJ8Mz+jLm3XpZwv+XX9zOtV83M/oz7jgU/VhP+8NhcvXlzmY6+uPHZzn6lbfQ1X7U/38+r7bLrbn472RqGP08FxENpo9F4cBN+nykdf/1NFVrujSMD30yiOun2eKgK+n6aKrHYlIIF+IWCk59gnval9AhFJR6RPpDyyLq5xJAqJvIj+ySP66uzkdfPz6667rowY4nrYG7uxzot1dH769Om0e3A+1ZqoJiIwu5mIbqQNbLeahrpgwYLLmiZ6C1aNdk6+rELNBSIlYU90K9O8me6NP3lqx8+6SMrcRrvnRI7BhHFsNh05xpdy1USE2NiHaIr+JXo4f21Vy1afY4+6Yb+a73MJSKB9AnURpqzJzDqfRGubJCABCUhAAhKQgAQkIAEJ9IqAomevyI9Au0wDZUo0AtNYtF0S7mKtxn7oPj7hW/7gZr2dKa6t/A8RMaZzj0UrltNQW9Wtyx+LThznJz7n07zr6sS1EDjxIaa2Rx+77We0WXcMsTOmxyM6NpqOTH3yW4nQ9AMBNKarUz4XMxFkqhvUIHrOmjWrzkWvSWDaCIRYmP/wUj3vRMyfNscrDcV0f5ayCP+PHDmSliMgzyQBCUhAAhKQgAQkIAEJSKBXBBQ9e0V+QNslcpPIQ6L+IvG8VUKgo87y5cuT8FZnp5GNqpCFqIXoVxcB2MhG9TpRlYhhCA/dTkRUvvnmm2kdTUTfydz4UzdYTdTPEAZfeumlAjEi1sjs1E+ieyfqC5xpG/G2XWGZ8SXKN1KIRIindanOP15zRLay4VEkXj9TveN1tOVRAo0I8N6OH4XyH17y80FZ83LhwoUF6/CG75P93GvEzOsSkIAEJCABCUhAAhKQgAQ6IaDo2Qkty5ZT1hGuSOwEToRPXSJKKd9VnKnV7LSNABVT38MO9Yk65FGXiA4MgZINfpjuzY32RBN+IdaycU4kxLRGO8NHmXaPuVCLuMgU7FbT2+tsI4ywWUu+IVAr8a/ODkInNtgkJheLO/EzfGEs6BOJ8Sdak2M7KQRy+sBGVs2mt4efEblZ1z6vMTaUWbt2bRKXYZX7x+urOs0WezG9vh2fLSMBCUhAAhKQgAQkIAEJSEACEpDA4BFQ9By8MeupxwhPjz32WBKWEI4Q8+67775an4hS4oF4RVmmWbNbN2Jl1Q75RF5u3bq11lbsWNyqXG3lmotEP7Lz+lRMycQ2ka2xDucXv/jF9HzOnDkpyrXGnaaXYNhs5+SquFxnDPaIk0Taxjp7E/ETX/Ids/MxrWs3rjHe7HgdvInKZIf6sU2VyqnpUTaOlEGwDNGT69X2N23aVOzfv78UwKv5CKC8Xmk/EsIr5ei/SQISkIAEJCABCUhAAhKQgAQkIIHhJHDF2HQ0dkE2SaCWACJjL18iRBTec889STREqDKNFgEEXYTL3bt3jxMuJ0qBCNPf+q3fKr7+9a+XQulEbXWzXq/fZ93sSyNbo9DHRn33ugR8/fsakED3CPh+6h5LLUnA95OvAQlIYNgJGOk57CNs/yQwwARYBuGaa65Ju853oxvHjx8vrr766r4SPLvRL21IQAISkIAEJNDfBGJ5In7QnWhqthTURG32e71WSyl1sjxVq7Kd8G23bDfGvd/HSP8kIAEJ9DMBRc9+Hh196wkB/onhV89Gj0Yb6fTE2SFvlGnpRGU++uij5TqiE+0yUcNEjW7cuHGiJqwnAQlIQAISkIAEJDCNBFgWizXgJ7OWf7vusjwVj3ZSJ2XbsWcZCUhAAhKYGgKKnlPDVatdIsC6i2xGM51T2/knJnYhrjsy3d40fQT4J/eHP/zhpNfg5LXErtKu5Tl9Y2dLEpCABCQggakmwI+abFCZR1BWI/ryH7TzTTbxLerHj92UjYQdltihDvl5G1GmeqRO2FqyZEna7JFoP9Y237t3b1rznTLRbm6z6jdRjtjAHj6w/j2pLvoRO9W+VX2L5xF9GH4+/fTT5caU+MXGnvSb/NjkM/yNOvgaqep3lI2+wZQ2sEX94BL1mx2rfQ3bYefkyZNl9ciLdsuM7OSjjz4q7r///nKM8rL4mY8/59HfeB1E+bws55Ef5SlXN+6ZK55KQAISkMA0EFD0nAbINiEBCUhAAhKQgAQkIAEJTD8BBDnEwosXL6YftdmQcfv27UmQQiSLteP5oZsylM0FvWeeeSZtfkl+qx/hEbqYVcImjJR/4okn0qaf2EUUYwPHo0ePpjZbkUDsW7duXbKBLX6URzQlsSnlTTfdNG6DzNdeey1tNtnOj7uPP/54soNfPFj+5/3330/X+MOmjxcuXEh94AdjysAJdvhC/+hnzqms3OCEvkd9uNA3+thJivEKO2xm+corr5Qm2gmWeOGFF4ovfelLqR+nTp0q2BQzhMzS0NgJfeN6jCU8iDhtlPLXyb59+5J4OpFxb2Tf6xKQgAQkMDECip4T42YtCUhAAhKQgAQkIAEJSGDACCDeIeSxhE7MJgoxk2tEZL788svlsjrLly9PIuNEuold2mhHiKzaP3bsWEHbrG9OwtbOnTvTOX6uXLmyOHLkSCnevvnmm8WyZctSfrM/CIeUpZ/Y4YGIWE2rVq0qL9GH+fPnF3feeWe6Rn8QYRE+sddOwvfgTJ/oG33sJCFSkohoJTEbaNu2bem83T+Ir9EP6q9Zs6ZAMM4TEZqwpY8xdmvXri0WL16cFxt3jp2Ygs84hDg8rpBPJCABCUhg2gkoek47chuUgAQkIAFukrhpqYuuGFQ61Sl4zfpB/++6666Oo1wa2SQipTolL3/eqF43r3e7T930TVsSkMDoEuC7hsjFmTNnXjat+vTp08WOHTvKKcxMTV60aFFx/vz5CQFDzEMcnD17drI5me84fJs7d24SJcOZBQsWxGkSOJmqTTQh0Yg33nhjW+IsZUn4GInzG264IZ5edqzzhTrXXXfdZWUbXch9R2ilb9jtJDGO8GUsI/G8k1THlOhehM5IMIVtldGcOXOiiEcJSEACEhgQAoqeAzJQuikBCUhAAhJolwDRKTxMEpCABEadQEx5RsgiuhBRM1/7kghEovLyx0SjMxHziCLFFnZXrFhxmdDarfFgivu1115bEP1IxCRRiLRvkoAEJCABCUjgFwQUPX/BwjMJSEACEugRgeqmCrFxQrhDJGNsDlDdAKFZXtVuHv1IZCbRlrFZA/ar7Ub7jY7YC79+8IMfjCuG/diAgjLhNxGRTK9kXTFuviMSKKJfw17uK2Xym/S8Ifq/fv36FK0U/lM36nOs20CC69EWNiJVmYXNyM/rhU+N+pSXpS2eR6JNnudl6Gc+nlE+okhfeumlkmnVr7DrUQISkEAdgRAkI9IRsZDow2qUX13diVzjh6cQWjudxk17db7lkZH0hynufC6ymU87U9uxG9GLwYFrnOdrenItT3W+UKeTiNjcd75n4J5Hf+btNTonqpNoT7hG4nknqTredVGsRJIiKFcZvffee500ZVkJSEACEugDAoqefTAIuiABCUhglAlw88PaYty8RaQN089iowWEsLqNIRDCmuWFXWxhl5skbnZCSIP5W2+9VW7WwM0NN08vvvhiW8OBHexhl8fHH39c3jQieOYbUJBPhBECKzdTCHtf+9rXUoQOa5yFaMhNcu5riJHN1oVDQGXTBKKKYp26ageefPLJxBjbrDuG2MrNJs/ZVCPWZQtmjcYCf6LP1GUdODYEqetTzifaYRopYxaJ56wbRz59ICqKG1CeI0jgGyxJ3Fx/73vfK1599dWUz7jyusFnkwQkMLoE+PxBDIt1Gfk85TMtEp9b+Y8ksS5kRHxWP/er5cNOO0c+3+LHIMqfPXu2eOedd2oFyVZ+Ywff2GSIhG0+M/OE0MlGPnz/EPnZTiLy9ZZbbknfR3x+8sh51dkIX+L7EcZ8xvMdgD34v/HGG6m/1CdStrrpz8GDB8vPc/pE37DbSYrlA7BP4vth165dnZhIm0HlTPGL9TrzFIIyfaSvpAMHDiRxOS/nuQQkIAEJ9D8BRc/+HyM9lIAEJDDUBOLmIzYWoLMbN25MGy2E4JUDaCYA5nlxU4UtEjcxiGS5kMYaZnGzw40b9fNolLzd/JybIG5AueHDbtiONdHYzODEiRPlpg1xA5XbyM+5gaNtHqSwl2+mkZfv9DzfYAGRcfXq1eXNJjf+rMuG6NvpWOQbglR9QsDNRVjaod08saFEbNLBzfvtt99ejkfsTpxH2mCTcSIxbogJiAomCUhgdAnE5yXiFRHlfC5985vfLIHEdwsiI/ns1r1nz570WcLnCecIZxH5zgY2/ECF3U5TfI4TTYk9PvcQKvlOiO8BftxBTGvld/iGv9hCmKxu2sPnJD+o8UNVJ/5u3bo1dQ0mPPgcvvnmm8so0Gq/8QUxGB/whf7x/QdrEv2OH9TI/+STT9JO9bkd/Ny8eXOqn49BXqbVOX187LHHSj+wd99995XV+G5GSM1/XCszPzuBYfSDsWAn+diAKC9L3+hXjOVVV12VfqyMSNm8bLPz6rg3K2ueBCQgAQl0n8CV3TepRQlIQAISkED7BIj22Lt3b3rktWKX1IjsiBsNRMsQB5vlYXf+WPQJN3SRsDFr1qx4OuEjQhzRiOEThupscwPGjVNEvCDy1SWEVm6Mq1E8VZGwru5ErlW5hI1WY8HNJDeLMGV89u/fX3uzGPY4cqPM9PtICJeNEmOTM83LIczmeZxzc81Y1N2w5nU9l4AEhptA/NCU9/LLX/5y+ZQfYHjUpbq6UY7P7xD24lqrI59xjT7nqvbq2s79rsuvtn/NNdfURpJWy+XPEeJyJvzA+OMf/zgVQeCMSMq8TqPrUaZZvylDdH6jMQgbdUcYxHco+c38oF91vofdnH+dL9Vxy/vE9/kf/MEfhKlxY1ytV/U5b7c04IkEJCABCUwLASM9pwXzcDeSTwPinyZu0uuis9ql0M6vtGErb6+TelF/FI6MDxEF7aScZ6vy8O7m7tOt2jN/uAkgBjIFHCExHkRKcuMQN2dcr24M0Syvl8Ti8whhjmgYfGf6drPUzc00mrXTKq/ZWMTNZkzXj+mh9Lea+OyJ6CSESR5TJeJW2/a5BCQggVEgEJHu7U5th0l8P+XRkEzdZso7n/GmIk35Z0kEvsciIaayzmcnrKOuRwlIQAIS6B0BRc/esR/KluOXTY4TTXFTHZFc7dqZaL127Y9CuW6M3yhwso/dJUDUIRGGCGmtEtEUIbhVN4ao5tXZRXj78MMPWzXTMj+PMozCuW3WjKN9fG0nSqhuk4iwO53HOmZ17YfYTJ9JsUZelGWNOKaIEpXLjWI3bqRZ0zPaox3OEZPz6M9o36MEJCCBbhPgcw0hjB9zGj1yIbHb7Vft8YM2a0d//etfHze1neuN/OM6n8l8XzK1O8phuxqtWG1vKp7zY3u+4V/4E0dmF9T9qDYVvuQ2+Y5jOZxuLXuQ2/ZcAhKQgASml4Ci5/TyHorW4hdi/iHhHxV2jIxUjRSMSJ8oS36k3A75EY0Y1/nHkXOiCdvZsbeuHjsWN/rHKcpHfrQf/jU71v3jm/8ajK1Odkuu+pLb4jxfgD/Kxj/W5D/88MPj/hGP+hzzXZ0Re6q/XOf9zMePdmBfx5A8hJxOdp+mnfwfcdbLqq67hL8xHrHTNfVoD79jl+2cB/mmwSYQU9TZbCcSr++42cnPyc83hmiWV7XL+5bXEDd6k/lhBh8Q8YjgZKo3dsN2vvttLuTiZz7FGxt5oq+Uj00iyOP9MN2v9Soz/MgZV30KsZOIz7pEn0jwYcOjfIpiyujwT/CmGpFJ3RjLDl2wuAQkMKIE4seemI1Qd+z0B/vJoESkjBkRuR2u1/kW1/j/DT/jOcepFjyxX9cG38X0IfclP+/Wj2Y5n3bPq74xHZ7XgEkCEpCABAaLgKLnYI1Xz70NsSuma7KeG7tG1iVulLlBjWgcFgpnwXFsxA1w2CEaih2BuaGuponu2Es9NuXANo/5Y1FXIapEP+Ifw2btV/3Bd379jR2h+eeMaav8GpyLuu3ulhy+BAt4wa2ORdWXeE7bUZ/IqvCFf2zzXZ1ZL49/2tqJPMN2I4YIPvjXye7TlOc1Ea+HCxcujBNAyCcyjLGAaf56wRfEE+qQ5z+eEBmexE0EGxPw+gjRG4Gc1wSvNW7OeER0Zb4xRLM87CJy8tmCXdah5H1bd+M1EZq8j7CHXR4IhrGRUdUv3tN8VsbutvSLqYT0JfrZbDONXHis85VNgNjEI4TiujLtXGs1Fq02BIk+Id7mUTLwYZMLps7HDsvt+FMtE7wZT8Y1NuOolvO5BCQgAQlIQAISkIAEJCABBASTBBoSGHuLjMsbE9Quja3JdmlMuCqvj4lql8ZuZC+NiVWXxqJ+Lo3tvpuOdWWjUrM8bNMGZfLzqJu3kZ/nZfPzqJf7yfnY+nmRlY7YGhPxxvVtXIEmT3I/KIbt3H61v/hHW9TL/Yom8vLV/Grf2snPfYk26o55P6rtUD5vK+9D5FXbCaY/+9nP0muEfkUib2wjlHKcg0fkc8Qebdb5kpcb9PPq+2zQ+1Pn/yj0sa7fXusOgUH/DPD1353XgVYkAAHfT74OJNA9Ar6fusdSSxKQQH8SMNJz7JPe1D4Bou2ImCRqJxLP61JMk4zoLCKVItXZibzqsdmOvdWy7T6PnZIjqowjEVdENnaSYro2dfNprXU2qtyiDL4QvZRPmYEZ/R6k1Iwp0ZsfffTRuLX36OOcOXNSF8cEjeKtt95KY5CPSXUn60Hioa8SkIAEJCABCUhAAhKQgAQkIAEJ9I6Aomfv2A99y4h4TEMe0/sv23G5Hzo/FkWYfMO/eLS7dlCInUyvRNAbi1osp7X2Q9965UMjpkyrb5WYFgzHGIs4tjsVv5V98yXQCYF4j+cifH7OlHSTBCQgAQlIQAISkIAEJCABCfQvAUXP/h2bvvSMaEWiNBH6IvG8VWINPeosX768YMflOjuNbBB9SSRgJM4RxIgUnGiazE7JrMH55ptvJoGuG2tL1vlCHzuNOp0oi27Vq+tH2CYy+Nprr71sHN97771UJKKB83GOuh4l0AsCsd5viO/Vo2L89I4Ka6DyoxRrpZokIAEJSEACEpCABCQgAQm0Q0DRsx1KlikJxJR1bj5JbNzDpjl1qbrxRr7jctUO9Yms4lGXur1j72R3Ss6FWERQNmhqNb29rl9cq/qCPTiwMRE3+gjEsfkJ5WE/2R2QsdPtVO0H9omGY/dp0sqVK1O/6B+JnZdPnjyZzukn/aXfkc8Rm/myCKmwfyQgAQlIQAISkIAEJCABCUhAAhKQQAsCip4tAJk9nkDs7IsIyVRPxL777rtvfKHPnlV3L853XK7awVaznXi7vWMvIluznZJrO/TZReoSBbZixYrE4Itf/GJ6zvqURLF2mrCHOBhMiXpEAIxIMjiy6zH84PTJJ5+kHZDbbSff1RnGiJDdmJqL37FTM/ZaMaU/9CWiOq+66qq0+3tE7FbzuQ5nI7vaHWnLSUACEpCABCQgAQlIQAISkIAEJBAErhibsscuiCYJ1BJAZOvlS4RoP8Qwxa/a4Rnoi4ztQw89VDz66KPFwoULB7ovk3W+1++zyfrfTv1R6GM7HCwzmgR8/Y/muNvrqSHA+8kkAQl0j0Av7/W61wstSUACEqgncGX9Za9KQAIS6B6BTz/9tNiyZUua4h4RrEzTZ53PefPmda8hLUlAAhKQgAQkMNQEFGiGenjtnAQkIAEJSKCrBJze3lWcGhsGAqwrSRRBo0c3poYPA6dO+sByBoierP8aXI8cOVLs3r27IM8kAQlIQAISkIAEJCABCUhAAhKQgAS6ScDp7d2kOYS2EKj8RX0IB9Yu9RWBUXifjUIf++pFpTN9RcDXf18Nh85IQAISkIAEJCABCYwIASM9R2Sg7aYEJCABCUhAAhKQgAQkIAEJSEACEpCABEaFgKLnqIy0/ZSABCQgAQlIQAISkIAEJCABCUhAAhKQwIgQUPQckYG2mxKQgAT6nQDr5T744IMFG191O2ET26+//noy/cEHHxR33HFH+bzb7eX2WCeYR6PUKj/qdeJztb9hw6MEJCABCUhAAhKQgAQkIIFRIeDu7aMy0vZTAhKQgARKAtdff31x6NCh8nkvTx555JG2mu8nn9ty2EISkIAEJCABCUhAAhKQgAR6SMBIzx7Ct2kJSEACo0wgIhfZ5GXJkiXFyZMnSxxvv/12sXr16oJjpDwikqjQ3bt3p2hN6hPBGdGNPI8H5bi+ZcuWYu/evcWKFSsKrkXbEflZrZtHZuLDXXfdldoLu3lEKjaIGsVmo/Tuu++WvtLXRv2q+vH000+XHKo+42POIOdQ7W8jv7wuAQlIQAISkIAEJCABCUhgWAkoeg7ryNovCUhAAn1MAAHvnnvuKTZs2FBcunSp2L9/f/HKK6905PEzzzxT7NmzJ9VfunRpEjbnzp2bnmNz3759xa5du4qzZ88mcfCBBx4ojh49mtrNGwpRNOpevHixQKTMhc+33nqruHDhQrJ97ty54syZM8WLL76YzNx2220papRIzEYJwZWITvx64okninXr1o0TPqPe448/nk7xgcfx48eL999/P7IvO+YM6C8+Uw8xtFF/LzPiBQlIQAISkIAEJCABCUhAAkNIQNFzCAfVLklAAhLodwKnTp1KLhIhSVq4cGGxbdu2dN7un+XLlxfz5s1LxWfMmFE89dRTSViM+suWLStuuOGGeNrwiLCIiLlx48bSFpGSCKQRkYmdtWvXpnzETYTO06dPN7RZzdi5c2eqw3UEWnw/duzYuGIIwW+++WYSb+kPD0ThZmnNmjWJHWXoL6IqoqxJAhKQgAQkIAEJSEACEpDAqBNQ9Bz1V4D9l4AEJNADAoiM8+fPL2bOnFm2zvNuJKIdmeq9aNGiplGS0VadL7Nnzy5mzZoVRSZ9XLBgQWkDMZOo0qpoGmIlbUfivB3hNsp7lIAEJCABCUhAAhKQgAQkIIG/JKDo6SuhIwLVNeU6qmzhnhCYzJgR5VZdV7FRJ2iHdQ8jMq5ROa9LYKoIhNjJ1HSmeBNNqmA4VbS1KwEJSEACEpCABCQgAQlIoL8JKHr29/jonQR6SoApx4cPHy6nz/bUGRsfKgJEdRJhiTgZiecTTTE1HKGTae5EU7ab6nwh6vLDDz9s10TLcnlUJ2uIIszm0Z8YiAjPiPjkGufN1vSkjEkCEpCABCQgAQlIQAISkIAELieg6Hk5E690QKC603C+ozFm2CU5djuu7ljcLK9qN99QhEjCZjspR2RjtJvXbdU1yrJbMv2gftXnql95f/Hr4YcfTg/qtmqX/lfrV6MqsRG7S3OMPnGM69GnZjyjDEf8pF/Yjv5Qty5RNnxqxh3mbErzwgsvpCnF4Vszn6Pt6FO+SzW+VPNzVrTHczZroX6eV9cPr/UfAda1nD8mfB46dCg5x+uLTYciIQAytrHuJfkHDx6M7Nrj+fPny/UseY1s3ry5LcEwfHnyySeTXV57vLbY6R3hvxsJ3+kDiQ2QEHhjPdOwz1qht9xyS2obH3g8++yzke1RAhKQgAQkIAEJSEACEpCABDogoOjZASyLjifADTmbfaxcubLcLZl16mL3YQQvbtiJVIodixEhECOa5YXdieykTN3t27eXO0ITRUZEVSNRb3yP/vIZOx7HjtL5LsvhV6P+UpvdpxcvXpz6y07NzRKbjnz00UdlpBviDvUjygtO+M66hPBCpAyWRLOxMUqIKPTvyJEjyVaVde4D5dk1mn7hH9FwRMUhWLaTGu1gjViDD1/72tfSlGI2eWnlc7xOGCMe+S7V7bBGNIrdtDuN7Gunr5aZWgK89h577LH0GYG4yWfDfffdVzbKa4rX6Pr165P4iQgZGw2VhbKTKI9Qib0vfvGLqf6cOXOScEp7vHfJr/4gQR72eb9Rl3VG+fxp9R6O5nmtI2Dynm2U6Bt9xD7iLrvO43M1bd26NV3CBx4IsjfffHMZBVot3+h5s/42quN1CUhAAhKQgAQkIAEJSEACQ0VgTCAxSaAhgbEX+7i8MdHt0ljk36WxXY3TY0wgvDQmWJVlyB8Tvi6NiXIpn7Jcqybqd5KHvdtvvz3Zzc/D7pgAeIkHvuDTvn37IqujY9iJSrk9fG7W3zq/wk7dMWxjlxRtcyRxPe9TlEuZY3/oI/k588jjSB5lYsx+7/d+LzHvhE3ep/w82qENHqTcj2rfonwzn+nfmGBcvnaasY4+VZlEO4N2rL7PBs3/dvwdhT62w6HTMrzv+EzlNW8aXAK+/gd37PRcAhKQgAQkIAEJSGBwCRjpOXYnYpoYASLt9u7dm6KRiF7iwZRUogFJMWU0pqkSDRWpWR52527GqKcAAB2XSURBVFd2dcZGOzspE91ElGZEh01k2nO+zh72YpflVv2NvrV7DNvYjajOVatWFT//+c/TtNbXXnut4PmYgFhQJiLYgjV9JI2JIYk5EaGRx3HHjh3jXPnKV75SvPfeewURplOd2vEZHxjXSJzHpjPdZh1teJRAPxPgc4CI0fyz8sCBA2nKe11UaD/3Rd8kIAEJSEACEpCABCQgAQn0moCiZ69HYMDbH4vGK6dUj2n/aVr3iRMn0jp4iHpMO+b6WDRgEu1ijcxmeZNFwtRq2hyLkCreeOONJMpWp7NOtI1m/Z2ITURNpqX/9Kc/La655po0lR07MW0dITPSWFRj6ldw5hjTbxEL6W+ex3k+bX0syrLYtm1buV5g2J3KYzOfW7Xbbdat2jNfAr0mUJ2iz48XpHif99o/25eABCQgAQlIQAISkIAEJDBIBBQ9B2m0+sxXojGJyCOqr1Xipp1yy5cvLzcmiTrVvDq7RDN2upMyG5AgwCK8ETnVbL298IVjo12W6/zK603kPETNH//4x2ktUESPq6++uviDP/iD4qqrrkpr/rGuX7Rd10ZE0sKoWcIGUWSMGRupTGVqx2faz33mPHapjv6289qayn5oWwLTTSB+tIkfMBQ8p3sEbE8CEpCABCQgAQlIQAISGBYCip7DMpI96EdMUY8dj3Eh39AjPyfv7NmzxTvvvJOmVzfLq9plU5t2d1KmLFPa842LmCaOkNDu9NB8l2U210EkRCys+lXtL887TYiDpG9/+9tJ2OSc6fVEOf7ar/0aT9NmQ0zZZ/OTiADN+0m/yCeaNYTdummy2IpIstwW17udiORt5XOzXaqngnW3+6g9CUhAAhKQgAQkIAEJSEACEpCABPqXgKJn/45N33uGsMXuywiYsZYkwhuCI+IaQiOPiEQkqpF1JonAbJaH3YnupExddpRH1Auf2JE5dkRuByrRqLHL8qZNm8pdllv1tx3b1TLYZEfpsU2dyqntrLk5tmnTuPUu4cXU9Fi3E7GUejF9nWPOGuZEiHGtmri2Zs2axJjo2apIXC3f7nPGHCETH3kNtPI5xoS+8EDojF2qp4J1u/2wnAQkIAEJSEACEpCABCQgAQlIQAKDT+CKsSl0lwa/G/ZgqgggHI7SSyTW/nRK6VS9ohrbJYr10UcfLb773e+2HZXb2Npg5YzC+2wU+jhYrzq9nU4Cvv6nk7ZtSUACEpCABCQgAQlI4C8JGOnpK0ECEph2AnXT792letqHwQYlIAEJSEACEpCABCQgAQlIQAJDS0DRc2iH1o5VCRDFSbRNo0e+Dmi17kSeT3d7E/GxV3VibdEVK1aU44EvRtj2akRsVwISkIAEJCABCUhAAhKQgAQkMFwEnN4+XOPZ9d44Ja/rSDUogcsIjML7bBT6eNnAekECnxHw9e9LQQISkIAEJCABCUhAAtNPwEjP6WduixKQgAQkIAEJSEACEpCABCQgAQlIQAISkMAUElD0nEK4mpaABCQgAQlIQAISkIAEJCABCUhAAhKQgASmn4Ci5/Qzt0UJSEACI0+gbjOrXkH59NNPiwcffLB4/fXXJ+3C22+/Xaxevbrg2GliXWH8wJ9q6pQXawrzaJW62fdWbZkvAQlIQAISkIAEJCABCUhgOglcOZ2N2ZYEJCABCUhAAvUE7rnnnoJHN5KbgnWDojYkIAEJSEACEpCABCQggUEmYKTnII+evktAAhIYcAKvvfZawSYvPO64446CiMZIEd0Y+URCRuI8ohkjn0hNrsfzaqRjnrdkyZIUjUmk45YtW4q9e/cWK1asSPVpg0hNyoStKB/tYzvyqn5HGY74RLnc9zw/P6dMHumZ+7t9+/a8aLLbrN1gQyXOd+/enfiGz/jVqO8R/Rllc5+wF30in7yHH354XFRpnk8ZnkfCl6effjqxrTKNMh4lIAEJSEACEpCABCQgAQl0g4CiZzcoakMCEpCABCZE4N133y0uXryYHvPnzy+efPLJZAfBk6jHDRs2FJcuXSrOnTtXPPvss+PEwx07dhSrVq1K+fv27Uui5enTp9PzU6dOFUePHi2nmSMgHjlyJLWDvSeeeKLYvHlzeo4g+MADD6TytInguW7dulSGsvi3fPnyJBwiCGIr/CYfHxElycsTYt+mTZsKfOk0gpM26C/9po25c+cWhw8fLs3fdtttxaFDh4rrr7++vNbs5Jlnnin27NlTskJ8pF/VvocQunLlylQ22n788ceTedjQJ9hG33ft2lU2TZ+xHX7T9507d5bjQMEXX3yxePXVV4sTJ04UCxcuLOt6IgEJSEACEpCABCQgAQlIoJsEFD27SVNbEpCABCTQEQEEwxkzZqQHQhtiIsIbgh4i6J133pnsIe4xZRshMKJBESqXLl2a8pctW1bcfvvtxdq1a9PzefPmFTfddFMS3yj/8ssvp4hO2iIhGoZwmC5kfxDiEOTIJ1EH3xolBM2nnnoqlYsyiH2Ig4irnQp79B+BFjYham7cuDGtFRr2Oz2uWbOm9ANWCJYIk9V0/PjxdCm484S233zzzSRcHjt2rMBWsIE/40DCb8aHcQq/6fu9995bHDhwIJXhD3Ujv7zoiQQkIAEJSEACEpCABCQggS4TUPTsMlDNSUACEpDA5AkQsUl0Y4iUWJw9e3Zx3XXXNTQ+a9asVKZaAHHvrbfeKhYtWlROSWfaNZGizVI+vX79+vVlUaaVnzlzppg5c2aapl3dtOj9998vvvKVrxRz5sxJbZYV2zxBPMQ+om8k2sqfx/VuH2mXqf60F9Pb4Q4/EuOyYMGCslnGh3EiETlKfZYJiLocc3ZlRU8kIAEJSEACEpCABCQgAQlMMQFFzykGPGzmQwTI12gbtD4ybZTpl5E4z5/H9ak+4kd1rbxGbcK73bKNbHhdAqNM4IYbbkjTzIlwzB91087jcw6xL6bXM30+ElGKRKLGtHfE1Or6mkz/JqIxputH3UE4ErlJ33JOnUxFj6nveX03VhqEkddHCUhAAhKQgAQkIAEJDBcBRc/hGk97MwEC3Iz34oa8bkrsBNy3igSGkgDRhDHVPTpIxOb58+fjadtHxEsiDuumc9cZYWr6/2/v7kHsqNoAjk/ARgmIH6AgSLBR0kTEIqI2W7i2WmiCSErFRgKmEi0MqRREQY2KhURBhSiChQa0UcEiyNr40RgJCAoaUYKW953/vDyXc8/OzM7dvV9z539gM/fOnDlzzm/uXcizz5lDViWBv7qgaJxDliPT2qNdzqMQYOWaTLU/e/bsxEI+cW7blna5PlmTUSKLMt7PaxvX5Xp1hftCtmcUslK5T5TIRk37HfXcKqCAAgoooIACCiiggAKLFjDouWjxNbse/+ElAzGmMubZiGQzxrF8pd62Y3m7aSYmU0mPHj1aLcARbefXbWLmmky1ZFprnJNmevKalYVjTNFn9se1aCNK3s9ok+ORLdaUFUs7UZ/XrIAc1+VacR3OZ7ooU04feOCB8fMMOR59in5GvzBiH8fJQGOxkrhW2rc4P/elL/xwPD0W7btVYN4CMYWcRW8ofJ/4LKbPuezaBzIzOY/zaSfa4xpN308CdxH4o046RTv97tJWBDvJ+EwLz7M8ceLExHXT402vCXrS3/T5pWSMpgsZNZ271/08o/NAGXBNM1QZf2Sy8jzQNJDLM0D53USJfrOwUUz5j9+R8ftsr/3zfAUUUEABBRRQQAEFFFCgq4BBz65S1tsmwH9mjx8/Xi3wEdMYebZbrPLLf5TT1YdjtWSCDm3Hol3aol0CD2QSpcE3ni93+fLl8WIcBCgiOLKto8kOsraYpspqwvnCI1GN/+wzLq7Ngh0EMshu4j3TNiMQEf1sWuU4psDGgh/RftOWQEFMpeU6ETjgfN4z5fSjjz6qFgAhgFC3EjW2/LAqNcEW+syKzazcHIXjOJDdmvqmQYlz584Vhw4dqo4vIws2+up2uAJ8f/hM8n0j+B5TzdsyL9u0OI/vUmR9suWzzT6CdXyP+eMCv2fYl9alD3wnvvnmm+LixYvjxZXiuZcsWMT3jD7nhQWB8iBiXqfuPdfn90H0d//+/RMLGaWByLrzu+7Lx877U6dOVb+j0z+KcC8YH4FcfpfHczux4XdNPOeTfvM+np+KEba7vW9dx2E9BRRQQAEFFFBAAQUUUGCbQBn0sCjQKFB+YCaOldM4R5ubm6MyCFf9lIG4URmUHNfh+JEjR0Zl5lN1nLrsywvnT3OM9sqVmat209fRbhnEHPHTpZRBz4m66bnpa9rK+5mPr238O/WFfsT56WvOS515Tz+ibtoHjkWh77ST1k2Pxfn5+KmDKfeNtut8ox238xHIv2fzucpyWx3CGJcrvLyrx++e5fVg9a/s53/175E9VEABBRRQQAEFFFg/ATM9y/+JWHYnQHZl2yq/MU0yMpXITIrSdox2yYwiQygKbbAy8zJK3pfow07jj3qz3paBydaVqOlXvup1ZGHRF57Hx/T+yOJiS1bWbp6VOOux2Z4CCqy2ABmf6aMymMZe/qGlYNq7RQEFFFBAAQUUUEABBRRYJQGDnqt0N3rYlzJ7sHGVX6ZJMoW8/FtBNZ2c6ZDx7Mm2Y31iaBv/PMcxzUrUdf0oM7Oq+8K9iR9Wo66bnlt3vvsUUGA6Af7ok/6hIX+dBhKna3mxtZmuT4mp/Q8//HDx8ssvV9PeF9sTr6aAAgoooIACCiiggAIKtAsY9Gz38WiLABmQZBXGYh8tVatn51Hv8OHDxfnz5yeq8ly99Fhdu2Q3Xrp0aeK8Zb+p6+ci+hSZs5jUFfqVr3qdrrZM1md+vK4d9ymgwOwEeNZl/IGhbtv0jOHZ9WA2LaV/sGIcW1tbBjxnQ2srCiiggAIKKKCAAgooMGMBg54zBh1SczFFvWmV33yhDRYAuXDhQjUNsu1Y3i4LBrH6OJmiLKKxKiXvJ/3KxzWPvpKN2bYSNVPVCUbHwk5MP2W15Sj5qtjsz6esRl23CiiggAIKKKCAAgoooIACCiigQB8FDHr28a6tSJ93WuWXzCZ+IjORYBzPkiRw2XaMdglyko3IFFCmUfKMylmtIs6z5wgCEvxjJfPdlp3GT9tcg0DoXksEMu+6666CIGbbStQERVlJmtXf8WMl92PHjo2f85kfpw4rwWPOmCwKKKCAAgoooIACCiiggAIKKKBA3wX2ldPTRn0fhP2fnwABMT8i8/NdVMtkcjLFfVaB40X1eyjXGcL3bAhjHMrn1XFOL+Dnf3ozz1BAAQUUUEABBRRQYK8CZnruVdDzFVgxgXyKPRmnZ86cKTY2Nlasp3ZHAQUUUEABBRRQQAEFFFBAAQUUmI+AQc/5uNrqkgROnjzZukIyGY/rXvJHB/B4ATI82W9RQAEFFFBAAQUUUEABBRRQQAEFhiDg9PYh3OU9jNEpeXvA81QFOgoM4Xs2hDF2vN1WG6CAn/8B3nSHrIACCiiggAIKKLB0ATM9l34L7IACCiiggAIKKKCAAgoooIACCiiggAIKzFLAoOcsNW1LAQUUUEABBRRQQAEFFFBAAQUUUEABBZYuYNBz6bfADiiggAIKKKCAAgoooIACCiiggAIKKKDALAV8pucsNdewLZ9DtoY31SGtnMAQvmdvvvnmyrnbIQUWKXDw4EEXlFskuNdSQAEFFFBAAQUUGLyAQc/BfwTaAYYQjGkX8KgC8xcYwvdsCGOc/yfFK/RVwM9/X++c/VZAAQUUUEABBRTos4DT2/t89+y7AgoooIACCiiggAIKKKCAAgoooIACCmwTMOi5jcQdCiiggAIKKKCAAgoooIACCiiggAIKKNBnAYOefb579l0BBRRQQAEFFFBAAQUUUEABBRRQQAEFtgkY9NxG4g4FFFBAAQUUUEABBRRQQAEFFFBAAQUU6LOACxn1+e4toO+uuLwAZC+hQCmw7is7u5CLH/MhC/j5H/Ldd+wKKKCAAgoooIACyxIw6Lks+Z5c1/+o9eRG2c1eCwzhezaEMfb6Q2jn5yrg53+uvDaugAIKKKCAAgoooECtgNPba1ncqYACCiiggAIKKKCAAgoooIACCiiggAJ9FTDo2dc7Z78VUEABBRRQQAEFFFBAAQUUUEABBRRQoFbAoGctizsVUEABBRRQQAEFFFBAAQUUUEABBRRQoK8CBj37eufstwIKKKCAAgoooIACCiiggAIKKKCAAgrUChj0rGVxpwIKKKCAAgoooIACCiiggAIKKKCAAgr0VcCgZ1/vnP1WQAEFFFBAAQUUUEABBRRQQAEFFFBAgVoBg561LO5UQAEFFJinwJ9//lncf//9xddffz3Py8y17ZMnTxb81JWffvqp2NzcLNjuVKaxoO7Ro0c7tbvTdT2ugAIKKKCAAgoooIACCqyzwBXrPDjHpoACCiigwLwEnnnmmZk0fd111xWffvrpTNqyEQUUUEABBRRQQAEFFFBAgf8LmOnpJ0EBBRRQYOkC//33X/H4448X+/btq354zb4o77777vjY7bffPpHp2HYsbzfNzCQLk6zJF198cdx2ft24ft02z/TkffT/rbfemjiFPja1nWZ6RibnG2+8MW6LjFj28/PII48U7733XnHbbbeNs2Tj/Lh2OkY6kfaLseYZtk1+tEufw6ep/xMD9Y0CCiiggAIKKKCAAgoosCICBj1X5EbYDQUUUGCoAgQmjx8/Xtx7773FaDSqfm666abihRdeqEiYAn/mzJnijz/+qI698sorxZNPPlkFAduORbu0Rbv//vtv8euvv05MSf/hhx+Ky5cvV8dp/5dffik+/PDDqW8FgUXa5hr8/PPPP8Xvv/8+bodg5enTp4srr7xyvK/pxV9//VV8++2347YOHDhQvPrqqwUZoQQojxw5Uvz444/F3XffPQ6EknWajpF6FLYYhR1j/eyzz8aX5viXX35ZXYvzU1sq4RE+Xfs/btwXCiiggAIKKKCAAgoooMASBQx6LhHfSyuggAIKFFWAD4cHH3xwzPHEE08U33///URGZxwk2Md0cIKAeUmPETgkaEdbFAKOBFe/+uqrcbs33HBD8dBDD1XHaY/zf/755+p913/IiCSw+Oijj1bXiOvQ9m5L2hbBYAKqaeZrtIsDfeaHEtf+5JNPqnMIaBIQDSvGeujQoaou/aYeJhGMjbbS6fYbGxtVff9RQAEFFFBAAQUUUEABBfokYNCzT3fLviqggAJrKEBg8vXXXy+uuuqq8ZTu66+/viALk3LHHXcUZDuyjyncBBijtB2jXc6j3Si0ce2118bbmWwji5K2o8zjOtF2uiVA++yzz47d8GHqO9miZJz+/ffflVucQ79uvPHG6i39xpj6MTWeLe1ZFFBAAQUUUEABBRRQQIG+Cxj07PsdXIH+Mz0ynvU2zYrFTV2P59OlgY2muun1pjmvqb2u+5nKmj83L86dph871U3HF+03baepy3VdAbpJ0v3LEHjsscfGU6xjivvW1lZx6623VlmITK1m/3PPPVfcc889RTzXkwzFpmPLGMcyrolJmMWWTM0uwV2yUZkqH+fFlun4FgUUUEABBRRQQAEFFFCgzwIGPft891aw7wQoeF4c290WpmHGlM1p2tjtedNcI+oyXXRWKzdHm3XbaTynqVt3LfcpsCwBsjHJyiQzcafC9456hw8fLs6fPz9RPT9W1y7ZjZcuXZo4b69vyJ4kQ5K2o8zjOtF2ur3lllsap76T4Xr11Vdv69dvv/1WNVHX77RtXyuggAIKKKCAAgoooIACfRYw6Nnnu7ekvkd2Iv/JJ9vqu+++G/ckzzYkCzSmTUZmVlRO26FOZE7GfjI9IyPx448/rq5FvcgqjXZiW3de3QrIef3oX1w/jrdt80zPdJxPP/30xKlpJuzEgeTNF198MXZKx5d78h5H+swKzKyqHPXTurxuWpUap7oVoJPu+FKBhQrEFHUW64nC9z9WLU9fc/zixYvFhQsXijvvvLOa6h718mN5uzwTk+8MmaJ7+cNM9DG2/MGFZ3Cy2BLXiOukCxlF3VlvGTsB43Txpfidw7V4Hii/r/jeUz744IPx7+zod3o8/T1aneA/CiiggAIKKKCAAgoooEBPBQx69vTGLavbETDjP/hMg3z//feLc+fO1XaHQEXTissEBQgORjtkbrFQB/9ZzwvPpnvttdeKzz//vLomKzGz8AZttJWmFZA5J8ZBZhjjaLt+2zU4Rp/TcdK/dHXkLqs2Y0VmGH1pGh99ZsXqEydOVPVeeuml4u23327sXtOq1AQ66HO6AnRjIx5QYAECTFE/depUFcBM/wjB55TPayyuE5mJPIOS504SuGw7RrsEOfndQrtkPvL9mkeWNt9z2uYa/BBwTRcyYizxB4q9kOJx8ODB6jmc4cPvgueff378hxMWL2LcjJ9+YRR2+/fvr777vKfkx9mPD+dYFFBAAQUUUEABBRRQQIFeC5RBFosCjQLlh3viWLnq8Whzc3NUBujG+995551R+Ty+URk4HJXPhhvdd9991baubpzUdoy2uQZ10tdxbnqN9HVaN30d56X95HX5HLw4VG1pqwwEToxtokLyhnP5YcyMnfai1F07juXburrpmNLXeIRztEMfYl9aN32d1o0xc13GSj3L8gXy79nyezT7HgxhjLNXm32Lfvdnb9qlRT//XZSso4ACCiiggAIKKKDAbAXM9Cz/J2LpLsA0ygPZasi8rysxtTQyjMhmjFLXThzLt9dcc8221YfJ2ir/855X7fy+bcXjzo2UFckQjbHEeWR5NZlEnXTbdXxch0wysrei8Dw/iwIKKFAnQDY82aVkhEbheck85/Pmm2+OXW4VUEABBRRQQAEFFFBAgbUUMOi5lrd1NQZFcG6VV1Uusx6raeLl3xHGWwICTB+1KKDAsAV4zmVMta/bpoHEVZXidzCPAmma+r6q/bZfCiiggAIKKKCAAgoooMAsBAx6zkJxQG2QwUjGIRmOUXi/U+myqnJTGzybM83q5DWByngmXdN5bfvbVjxuOy8/FlmdqUFkf+Z1m953HR/2PJswfZYpGasWBRSYvUA87zf9o0j6mmdh9qHw3NOtra3xH3b4Q1SaLd6HMdhHBRRQQAEFFFBAAQUUUGA3AgY9d6M24HNiyjoZkRRWCSeLqK60rbict8P5+YroaZuxKjL7WH14r6svt614nAYV0z7UvSZ4EKs2s9AQhRWo04WM6s7L98X4uHbT6tIs3kJwNVZpxv7s2bN5U75XQAEFFFBAAQUUUEABBRRQQAEFBi9g0HPwH4HpAAjyscoyQTqmfLKa+LFjx2ob2WlV5bQd2iKL8amnnqptK1ZF3qle7ck1O5nC3rbicc0pjbsYJ4HPeHYpqyOXCzGN6++0ajPP9CQIHKs+c2KdQ97nsM+f8zm+cMuLfAXolqoeUkABBRRQQAEFFFBAAQUUUEABBXonsK+crjfqXa/t8MIECDIu8yNC9iTTSJlqSnDRMilAQJUp7vhY+iuw7O/ZIuSGMMZFOHqNfgr4+e/nfbPXCiiggAIKKKCAAv0WMNOz3/fP3g9IIH9cAAFhMm43NjYGpOBQFVBAAQUUUEABBRRQQAEFFFBAgZ0FDHrubGSNgQms6qrN+eMCmE5vBuzAPpwOVwEFFFBAAQUUUEABBRRQQAEFOgk4vb0T03ArOSVvuPfekS9OYAjfsyGMcXGfGK/UNwE//327Y/ZXAQUUUEABBRRQYB0EzPRch7voGBRQQAEFFFBAAQUUUEABBRRQQAEFFFBgLGDQc0zhCwUUUEABBRRQQAEFFFBAAQUUUEABBRRYB4Er1mEQjmG+AkzLsyiggAJ7FfB3yV4FPV8BBRRQQAEFFFBAAQUUUKCrgM/07CplPQUUUEABBRRQQAEFFFBAAQUUUEABBRTohYDT23txm+ykAgoooIACCiiggAIKKKCAAgoooIACCnQVMOjZVcp6CiiggAIKKKCAAgoooIACCiiggAIKKNALAYOevbhNdlIBBRRQQAEFFFBAAQUUUEABBRRQQAEFugoY9OwqZT0FFFBAAQUUUEABBRRQQAEFFFBAAQUU6IWAQc9e3CY7qYACCiiggAIKKKCAAgoooIACCiiggAJdBQx6dpWyngIKKKCAAgoooIACCiiggAIKKKCAAgr0QuB/I3eaKSQu1FkAAAAASUVORK5CYII=;" vertex="1" parent="1">
          <mxGeometry x="70" y="-10" width="1341" height="784" as="geometry" />
        </mxCell>
        <mxCell id="_1nmayrgC0QgBhLAWD-L-2" value="" style="rounded=0;whiteSpace=wrap;html=1;strokeColor=none;" vertex="1" parent="1">
          <mxGeometry x="900" y="120" width="180" height="20" as="geometry" />
        </mxCell>
        <mxCell id="_1nmayrgC0QgBhLAWD-L-3" value="" style="rounded=0;whiteSpace=wrap;html=1;strokeColor=none;" vertex="1" parent="1">
          <mxGeometry x="210" y="710" width="180" height="20" as="geometry" />
        </mxCell>
        <mxCell id="_1nmayrgC0QgBhLAWD-L-4" value="" style="rounded=0;whiteSpace=wrap;html=1;strokeColor=none;" vertex="1" parent="1">
          <mxGeometry x="210" y="690" width="180" height="20" as="geometry" />
        </mxCell>
        <mxCell id="_1nmayrgC0QgBhLAWD-L-5" value="" style="rounded=0;whiteSpace=wrap;html=1;strokeColor=none;" vertex="1" parent="1">
          <mxGeometry x="210" y="660" width="180" height="30" as="geometry" />
        </mxCell>
        <mxCell id="_1nmayrgC0QgBhLAWD-L-6" value="" style="rounded=0;whiteSpace=wrap;html=1;strokeColor=none;" vertex="1" parent="1">
          <mxGeometry x="335" y="280" width="180" height="20" as="geometry" />
        </mxCell>
        <mxCell id="_1nmayrgC0QgBhLAWD-L-7" value="" style="rounded=0;whiteSpace=wrap;html=1;strokeColor=none;" vertex="1" parent="1">
          <mxGeometry x="335" y="300" width="180" height="20" as="geometry" />
        </mxCell>
        <mxCell id="_1nmayrgC0QgBhLAWD-L-8" value="" style="rounded=0;whiteSpace=wrap;html=1;strokeColor=none;" vertex="1" parent="1">
          <mxGeometry x="335" y="320" width="180" height="20" as="geometry" />
        </mxCell>
      </root>
    </mxGraphModel>
  </diagram>
</mxfile>
